<?xml version="1.0" encoding="utf-8"?>
<!-- Generator: Adobe Illustrator 25.0.0, SVG Export Plug-In . SVG Version: 6.00 Build 0)  -->
<svg version="1.1" xmlns="http://www.w3.org/2000/svg" xmlns:xlink="http://www.w3.org/1999/xlink" x="0px" y="0px"
	 viewBox="0 0 180 239.98" style="enable-background:new 0 0 180 239.98;" xml:space="preserve">
<style type="text/css">
	.st0{display:none;}
	.st1{display:inline;opacity:0.51;}
	.st2{display:inline;opacity:0.51;fill:#39B54A;}
	.st3{display:inline;}
	.st4{font-family:'Century751BT-RomanB';}
	.st5{font-size:160px;}
	.st6{font-family:'MyriadPro-Regular';}
	.st7{font-size:168px;}
</style>
<g id="Layer_27" class="st0">
	<rect y="-0.28" class="st1" width="34.53" height="239.98"/>
	<rect x="145.84" y="-0.28" class="st1" width="34.53" height="239.98"/>
	<rect x="34.56" y="173.99" class="st1" width="111.28" height="65.71"/>
	<rect x="34.53" y="-0.28" class="st1" width="111.32" height="59.39"/>
	<rect y="50.62" class="st2" width="90" height="8.49"/>
	<rect x="0.18" y="173.99" class="st2" width="90" height="8.49"/>
</g>
<g id="Z" class="st0">
	<text transform="matrix(1 0 0 1 37.0217 173.9861)" class="st3 st4 st5">Z</text>
</g>
<g id="Y" class="st0">
	<text transform="matrix(1 0 0 1 43.8111 173.9861)" class="st3 st4 st5">Y</text>
</g>
<g id="X" class="st0">
	<text transform="matrix(1 0 0 1 38.3375 173.9861)" class="st3 st4 st5">X</text>
</g>
<g id="W" class="st0">
	<text transform="matrix(1 0 0 1 9.8638 174.0007)" class="st3 st4 st5">W</text>
</g>
<g id="V" class="st0">
	<text transform="matrix(1 0 0 1 37.8111 173.9861)" class="st3 st4 st5">V</text>
</g>
<g id="U" class="st0">
	<text transform="matrix(1 0 0 1 25.6006 173.7205)" class="st3 st4 st5">U</text>
</g>
<g id="T" class="st0">
	<text transform="matrix(1 0 0 1 36.9164 173.9861)" class="st3 st4 st5">T</text>
</g>
<g id="S" class="st0">
	<text transform="matrix(1 0 0 1 40.7585 173.9861)" class="st3 st4 st5">S</text>
</g>
<g id="R" class="st0">
	<text transform="matrix(1 0 0 1 33.2322 173.9861)" class="st3 st4 st5">R</text>
</g>
<g id="Q" class="st0">
	<text transform="matrix(1 0 0 1 28.548 173.9861)" class="st3 st4 st5">Q</text>
</g>
<g id="P" class="st0">
	<text transform="matrix(1 0 0 1 38.6532 173.5626)" class="st3 st4 st5">P</text>
</g>
<g id="O">
	<text transform="matrix(1 0 0 1 28.6532 173.5626)" class="st4 st5">O</text>
</g>
<g id="N" class="st0">
	<text transform="matrix(1 0 0 1 26.6532 173.5626)" class="st3 st4 st5">N</text>
</g>
<g id="M" class="st0">
	<text transform="matrix(1 0 0 1 18.6532 173.5626)" class="st3 st4 st5">M</text>
</g>
<g id="L" class="st0">
	<text transform="matrix(1 0 0 1 38.7059 173.9861)" class="st3 st4 st5">L</text>
</g>
<g id="K" class="st0">
	<text transform="matrix(1 0 0 1 33.1796 173.9861)" class="st3 st4 st5">K</text>
</g>
<g id="J" class="st0">
	<text transform="matrix(1 0 0 1 54.5179 173.9861)" class="st3 st4 st5">J</text>
</g>
<g id="I" class="st0">
	<text transform="matrix(1 0 0 1 61.4653 173.9858)" class="st3 st4 st5">I</text>
</g>
<g id="H" class="st0">
	<text transform="matrix(1 0 0 1 24.3074 173.9861)" class="st3 st4 st5">H</text>
</g>
<g id="G" class="st0">
	<text transform="matrix(1 0 0 1 30.5706 173.9861)" class="st3 st4 st5">G</text>
</g>
<g id="F" class="st0">
	<text transform="matrix(1 0 0 1 37.4653 174.1942)" class="st3 st4 st5">F</text>
</g>
<g id="E" class="st0">
	<text transform="matrix(1 0 0 1 34.5578 174.2635)" class="st3 st4 st5">E</text>
</g>
<g id="D" class="st0">
	<text transform="matrix(1 0 0 1 28.0841 173.5628)" class="st3 st4 st5">D</text>
</g>
<g id="C" class="st0">
	<text transform="matrix(1 0 0 1 33.242 174.0011)" class="st3 st4 st5">C</text>
</g>
<g id="B" class="st0">
	<text transform="matrix(1 0 0 1 45.5792 173.0366)" class="st3 st6 st7">B</text>
</g>
<g id="A" class="st0">
	<text transform="matrix(1 0 0 1 41.347 173.9865)" class="st3 st4 st5">A</text>
</g>
</svg>
