<?xml version="1.0" encoding="utf-8"?>
<!-- Generator: Adobe Illustrator 25.0.0, SVG Export Plug-In . SVG Version: 6.00 Build 0)  -->
<svg version="1.1" id="Layer_1" xmlns="http://www.w3.org/2000/svg" xmlns:xlink="http://www.w3.org/1999/xlink" x="0px" y="0px"
	 viewBox="0 0 168 98.1" style="enable-background:new 0 0 168 98.1;" xml:space="preserve">
<style type="text/css">
	.st0{fill:#FFFFFF;}
</style>
<g>
	<path class="st0" d="M0,0c56,0,112,0,168,0c0,32.7,0,65.4,0,98.1c-56,0-112,0-168,0C0,65.4,0,32.7,0,0z M83.5,94.1
		c24.3,0,48.6,0,72.9,0c5.1,0,9-3.9,9-9.1c0-24.4,0-48.8,0-73.2c0-0.8-0.1-1.6-0.3-2.3c-1-4.1-4.5-6.7-8.7-6.7c-9.7,0-19.4,0-29.2,0
		c-38.9,0-77.7,0-116.6,0c-5.2,0-9.1,3.9-9.1,9.1c0,24.4,0,48.8,0,73.2c0,0.8,0.1,1.6,0.3,2.3c1,4.1,4.5,6.7,8.7,6.7
		C35,94.1,59.3,94.1,83.5,94.1z"/>
	<path d="M83.5,94.1c-24.3,0-48.6,0-72.9,0c-4.2,0-7.7-2.7-8.7-6.7c-0.2-0.8-0.3-1.5-0.3-2.3c0-24.4,0-48.8,0-73.2
		c0-5.2,3.9-9.1,9.1-9.1c38.9,0,77.7,0,116.6,0c9.7,0,19.4,0,29.2,0c4.2,0,7.7,2.7,8.7,6.7c0.2,0.8,0.3,1.5,0.3,2.3
		c0,24.4,0,48.8,0,73.2c0,5.2-3.9,9.1-9,9.1C132.1,94.1,107.8,94.1,83.5,94.1z M27.1,47.3c-5,0-8.7,1.3-11.7,3.8
		C8.7,56.7,8,66.3,13.9,72.7c6.2,6.6,17.1,6.9,23.7,0.7c5.5-5.2,6.3-13.2,1.9-19.3C36.2,49.5,31.6,47.5,27.1,47.3z M46.2,74.4
		c0.2,0,0.4,0,0.6,0c2.2,0,4.4,0,6.7,0c2.1-0.1,4.2-0.1,6.2-0.4c4.4-0.6,7.4-3.2,8.8-7.5c0.7-2.3,0.8-4.7,0.4-7.1
		c-0.9-4.4-3.3-7.5-7.7-8.7c-1.6-0.4-3.3-0.6-4.9-0.6c-3.1-0.1-6.3,0-9.4,0c-0.2,0-0.3,0-0.5,0C46.2,58.2,46.2,66.2,46.2,74.4z
		 M129.3,61.2c2.9-3.7,5.8-7.4,8.8-11.2c-2.3,0-4.5,0-6.6,0c-0.4,0-0.7,0.2-0.9,0.5c-2.2,3.1-4.4,6.3-6.6,9.4
		c-0.1,0.1-0.2,0.2-0.4,0.5c0-3.5,0-7,0-10.4c-2.2,0-4.3,0-6.4,0c0,8.1,0,16.2,0,24.3c2.1,0,4.3,0,6.4,0c0-3.7,0-7.3,0-11.1
		c0.2,0.3,0.3,0.4,0.4,0.6c2.3,3.4,4.5,6.8,6.8,10.2c0.2,0.3,0.3,0.4,0.7,0.4c2.4,0,4.7,0,7.1,0c0.1,0,0.3,0,0.5-0.1
		C135.7,69.9,132.5,65.6,129.3,61.2z M72.5,74.4c5.7,0,11.3,0,17,0c0-1.6,0-3.1,0-4.7c-3.5,0-7.1,0-10.6,0c0-1.8,0-3.6,0-5.5
		c3.2,0,6.4,0,9.6,0c0-1.6,0-3.1,0-4.6c-3.2,0-6.4,0-9.6,0c0-1.7,0-3.3,0-4.9c3.4,0,6.8,0,10.2,0c0-1.6,0-3.1,0-4.6
		c-5.6,0-11.1,0-16.6,0C72.5,58.2,72.5,66.2,72.5,74.4z M140.4,73.9c0.2,0.1,0.3,0.1,0.5,0.2c1.2,0.2,2.5,0.6,3.7,0.7
		c2.4,0.3,4.9,0.3,7.3-0.3c3-0.8,5.2-2.5,5.8-5.7c0.8-3.9-0.3-6.9-4.2-8.5c-1.4-0.6-2.9-1-4.3-1.6c-0.6-0.2-1.2-0.5-1.7-0.8
		c-1.1-0.9-1-2.3,0.2-3.1c0.4-0.2,0.8-0.4,1.3-0.5c1.6-0.4,3.1-0.2,4.7,0.2c0.9,0.2,1.7,0.5,2.6,0.8c0-0.2,0.1-0.3,0.1-0.4
		c0.1-1.4,0.2-2.8,0.4-4.1c0-0.4-0.1-0.5-0.4-0.6c-1.4-0.2-2.7-0.5-4.1-0.7c-2.5-0.2-5-0.2-7.3,0.7c-2.8,1.1-4.5,3.1-4.7,6.2
		c-0.2,3,1.1,5.2,3.7,6.6c1.2,0.6,2.5,1,3.7,1.6c1,0.4,1.9,0.8,2.8,1.4c1.4,0.9,0.9,2.6,0,3.1c-0.6,0.4-1.4,0.7-2.1,0.8
		c-2,0.3-4-0.2-5.9-0.9c-0.5-0.2-1-0.4-1.6-0.6C140.7,70.3,140.6,72,140.4,73.9z M113,68.5c-0.2,0.1-0.4,0.2-0.6,0.2
		c-2.1,0.9-4.3,1.3-6.7,1.1c-2.8-0.3-5.3-2.2-6.1-4.9c-0.4-1.3-0.4-2.6-0.4-3.9c0.2-3,2.1-5.5,4.9-6.4c2.7-0.8,5.4-0.5,7.9,0.9
		c0.2,0.1,0.4,0.2,0.7,0.3c0.2-1.6,0.3-3.1,0.5-4.6c0.1-0.5-0.1-0.6-0.5-0.8c-3.5-1.3-7.1-1.5-10.7-0.7c-4,0.8-7,3.1-8.5,7
		c-0.9,2.3-1.1,4.7-0.8,7.2c0.5,4.9,2.9,8.3,7.5,10c4.2,1.6,8.5,1.2,12.8,0.1c0.1,0,0.3-0.3,0.3-0.5C113.3,71.9,113.2,70.2,113,68.5
		z M12.6,39.9c1.4,0.4,2.8,0.8,4.2,1.1c1.7,0.4,3.4,0.3,5-0.3c3.5-1.2,5.7-3.8,6.8-7.3c0.5-1.6,0.6-3.3,0.6-5c0-2.2-0.6-4.2-1.8-6
		c-1.1-1.7-2.6-3-4.7-3.6c-1.4-0.4-2.7-0.5-4.2-0.3c-1.4,0.2-2.6,0.5-3.8,1.2c-0.7,0.4-1.3,0.9-1.9,1.3c0-3.9,0-7.9,0-12
		c-0.6,0-1.2,0-1.9,0c-0.3,0-0.5,0.2-0.5,0.6c0.1,2.1,0.1,4.3,0.1,6.4c0,6.4,0,12.7,0,19.1c0,0.2,0,0.4,0,0.6c0,1.5-0.1,2.9-0.1,4.4
		c0,0.1,0.1,0.3,0.2,0.4C11.4,40.8,12.4,40.5,12.6,39.9z M82.1,41.4c1.3,0.1,2.6-0.3,3.9-0.9c1.3-0.6,2.4-1.5,3.3-2.6
		c1.5-1.7,2.4-3.7,2.7-5.9c0.2-1.5,0.4-2.9,0.2-4.4c-0.2-1.4-0.3-2.7-0.9-3.9c-1-2.3-2.8-3.9-5.1-4.8c-3.2-1.2-6.2-0.8-8.9,1.3
		c-2.7,2-4.1,4.9-4.5,8.3c-0.2,2.3-0.2,4.7,0.6,7C74.5,38.5,77.9,41.5,82.1,41.4z M50.7,40.5c0.5,0,1,0,1.5,0c0.4,0,0.5-0.1,0.5-0.5
		c-0.1-0.6-0.2-1.3-0.2-1.9c-0.1-1.9-0.2-3.8-0.2-5.8c0-3.1,0-6.2,0-9.2c0-0.2,0-0.3,0-0.5c0-1.1,0-2.3,0-3.5c-0.7,0-1.4,0.1-2,0.1
		c-0.1,0-0.2,0.2-0.2,0.3c0,1.6,0.1,3.1,0.1,4.7c0,3.9,0.1,7.9,0.1,11.8c0,0.2-0.1,0.6-0.3,0.7c-1,0.9-2.2,1.4-3.5,1.8
		c-1.5,0.4-3,0.4-4.6,0.3c-1.3-0.1-2.6-0.4-3.2-1.7c-0.4-0.8-0.6-1.7-0.7-2.5c-0.1-1.4-0.2-2.9-0.1-4.3c0-3.6,0.1-7.1,0.1-10.7
		c0-0.2-0.2-0.4-0.2-0.4c-0.8,0-1.6,0-2.4,0.1c0.1,0.6,0.2,1.2,0.2,1.7c0.1,1.4,0.1,2.8,0.1,4.2c0,2.2,0,4.4-0.1,6.6
		c0,0.1,0,0.1,0,0.2c-0.1,1.6-0.1,3.3,0.4,4.9c0.5,1.5,1.2,2.7,2.7,3.4c1,0.5,2,0.6,3,0.7c1.9,0.3,3.7,0,5.4-0.7
		c1.1-0.5,2.1-1.1,3.2-1.6C50.4,39.2,50.5,39.8,50.7,40.5z M143.4,19.3c-0.7,0-1.4,0-2.2,0c-0.1,0-0.2,0.3-0.2,0.4
		c0.1,2,0.2,4.1,0.2,6.1c0,2.9-0.1,5.7,0,8.6c0,0.9,0.2,1.7,0.4,2.6c0.6,2.2,2.1,3.4,4.3,3.8c1.5,0.3,3,0.4,4.6,0.1
		c1.3-0.2,2.5-0.7,3.7-1.3c0.6-0.3,1.2-0.7,1.8-1c0.1,0.6,0.1,1.1,0.2,1.6c0,0.1,0.2,0.3,0.3,0.3c0.6,0,1.1,0,1.8,0
		c-0.7-7.2-0.3-14.2-0.3-21.4c-0.8,0-1.6,0.1-2.3,0.1c0,0.3,0.1,0.5,0.1,0.7c0.1,3.6,0.1,7.2,0.2,10.9c0,1.7,0,3.5,0,5.2
		c0,0.4-0.1,0.6-0.4,0.9c-1.4,1.1-3,1.7-4.7,1.9c-1.1,0.1-2.3,0.2-3.5,0c-1.2-0.1-2.4-0.4-3-1.6c-0.3-0.7-0.6-1.5-0.7-2.3
		c-0.2-1.5-0.2-3-0.3-4.5c0-2,0-4.1,0-6.1c0-0.2,0-0.4,0-0.6C143.4,22.3,143.4,20.8,143.4,19.3z M98.6,19.2c0.1,2.3,0.2,4.4,0.2,6.5
		c0,2.4,0,4.7,0,7.1c0,1.5,0,3,0.6,4.5c0.5,1.3,1.2,2.4,2.4,3c1,0.5,2.1,0.6,3.2,0.8c1.8,0.2,3.6,0,5.3-0.7c1.1-0.5,2.1-1.1,3.2-1.6
		c0,0.2,0.1,0.5,0.1,0.7c0.2,1.1,0.2,1.1,1.4,1.1c0.8,0,0.8-0.1,0.7-0.8c-0.1-1.8-0.3-3.7-0.3-5.5c0-4.4,0-8.9,0-13.3
		c0-0.5,0.2-1.3-0.1-1.6c-0.2-0.3-1-0.1-1.5-0.1c-0.2,0-0.4,0-0.5,0c0,1,0,2,0,3c0,3,0.1,5.9,0.1,8.9c0,1.6,0,3.3,0,4.9
		c0,0.4-0.1,0.7-0.4,0.9c-0.8,0.5-1.6,1-2.5,1.3c-2.3,0.9-4.7,1-7,0.3c-0.7-0.2-1.2-0.6-1.6-1.2c-0.6-1-0.7-2.1-0.8-3.2
		c-0.1-1.4-0.1-2.8-0.1-4.2c0-3.4,0.1-6.9,0.1-10.3c0-0.1-0.2-0.4-0.3-0.4C100,19.2,99.3,19.2,98.6,19.2z M134.3,19.6
		c-0.3-0.1-0.5-0.2-0.8-0.3c-1.1-0.2-2.1-0.4-3.2-0.5c-2.1-0.3-4.2-0.2-6.1,0.9c-2.8,1.5-3.2,4.7-1.9,6.9c0.7,1.2,1.8,2,3,2.6
		c1.7,0.8,3.4,1.5,5.1,2.3c1.4,0.6,2.5,1.5,2.7,3.3c0.2,1.9-0.8,3.5-2.6,3.9c-2.1,0.5-4.2,0.2-6.3-0.2c-0.9-0.2-1.8-0.5-2.7-0.8
		c-0.1,0.4-0.3,0.9-0.4,1.4c-0.2,0.8-0.2,0.8,0.6,1.1c0.2,0.1,0.4,0.1,0.6,0.2c2.1,0.6,4.3,0.8,6.5,0.7c1.4,0,2.7-0.4,3.9-1.2
		c1.5-1,2.2-2.4,2.3-4.2c0.1-2.1-0.4-3.9-2.2-5c-1-0.6-2.1-1.2-3.1-1.7c-1.6-0.8-3.2-1.5-4.8-2.3c-1.8-0.9-1.7-3.9,0-4.9
		c1-0.6,2-0.9,3.1-0.9c1.8,0,3.6,0.2,5.3,0.8c0.3,0.1,0.5,0,0.5-0.3C134,20.7,134.1,20.2,134.3,19.6z M60.3,18.7
		c-0.4,0.1-0.8,0.2-1.1,0.2c-1,0.2-1,0.2-0.9,1.2c0.2,1.4,0.4,2.9,0.5,4.3c0.1,1.7,0.2,3.5,0.2,5.2c0,3.5-0.1,7-0.2,10.5
		c0,0.1,0.2,0.4,0.3,0.4c0.6,0,1.2,0,1.8,0c0.3,0,0.4-0.2,0.4-0.5c-0.1-1.1-0.2-2.3-0.2-3.4c0-3.5,0-6.9-0.1-10.4
		c0-0.7,0-1.4,0.3-2.1c1-2.2,2.7-3.4,5-3.6c1.3-0.1,2.5,0.2,3.7,0.6c0.1,0,0.4-0.1,0.5-0.2c0.2-0.6,0.3-1.2,0.5-1.8
		c-1.7-0.6-3.3-0.9-5-0.7c-2.3,0.3-3.6,2-5,3.8C60.7,21,60.5,19.9,60.3,18.7z"/>
	<path class="st0" d="M27.1,47.3c4.5,0.2,9.1,2.2,12.4,6.8c4.4,6,3.5,14-1.9,19.3c-6.5,6.3-17.5,6-23.7-0.7
		c-5.9-6.4-5.3-16,1.4-21.6C18.4,48.6,22.1,47.3,27.1,47.3z M19.5,75.2c0.1,0,0.2,0,0.2,0c3.1,0,6.2,0,9.3,0c1,0,1.7-0.8,1.7-1.8
		c0-3.1,0-6.1,0-9.2c0-0.2,0-0.4,0-0.6c0,0.1,0.1,0.1,0.1,0.2C27.1,67.6,23.3,71.4,19.5,75.2z M30.3,63.2c-5.4,0-10.7,0-16.1,0
		c1.2,1.3,2.4,2.6,3.6,3.8c0.9,0.9,1.8,1.9,2.7,2.8c0.9,1,2,1.1,2.9,0.1C25.8,67.7,28,65.5,30.3,63.2z M21.5,62.3
		c5.4,0,10.8,0,16.2,0c-0.5-0.5-0.9-0.9-1.3-1.3c-1.6-1.7-3.2-3.3-4.7-5c-1.4-1.5-2.5-1.4-3.7-0.1c-1.5,1.6-3,3-4.6,4.5
		C22.8,61.1,22.2,61.7,21.5,62.3z M32.4,50.3c-3.2,0-6.4,0-9.5,0c-1.1,0-1.8,0.7-1.8,1.9c0,3,0,6,0,9c0,0.2,0,0.4,0,0.7
		c0,0,0-0.1-0.1-0.1C24.8,57.9,28.6,54.1,32.4,50.3z M31.4,63.6c0,4,0,7.9,0,11.9c0.2-0.2,0.3-0.3,0.4-0.5c1.3-1.4,2.7-2.7,4-4.1
		c0.9-0.9,0.9-1.8,0-2.7c-0.6-0.6-1.2-1.3-1.8-1.9C33.1,65.4,32.3,64.5,31.4,63.6z M20.5,50.1c-1.5,1.5-3,3-4.4,4.5
		c-0.9,0.9-0.9,1.9,0,2.8c0.9,0.9,1.7,1.8,2.6,2.7c0.6,0.6,1.2,1.2,1.8,1.9C20.5,57.9,20.5,54,20.5,50.1z M14.1,56.3
		c0,1.4,0,2.8,0,4.2c0,1,0.7,1.7,1.6,1.7c1,0,2.1,0,3.1,0c0.3,0,0.6,0,1,0C18,60.2,16.1,58.3,14.1,56.3z M37.7,69.2
		c0-1.4,0-2.8,0-4.2c0-1-0.7-1.7-1.6-1.7c-1.2,0-2.5,0-3.7,0c-0.1,0-0.3,0-0.4,0C33.9,65.3,35.8,67.2,37.7,69.2z"/>
	<path class="st0" d="M46.2,74.4c0-8.2,0-16.2,0-24.3c0.2,0,0.3,0,0.5,0c3.1,0,6.3-0.1,9.4,0c1.7,0.1,3.4,0.2,4.9,0.6
		c4.4,1.2,6.8,4.3,7.7,8.7c0.5,2.4,0.4,4.8-0.4,7.1c-1.4,4.3-4.4,6.9-8.8,7.5c-2,0.3-4.1,0.3-6.2,0.4c-2.2,0.1-4.4,0-6.7,0
		C46.6,74.4,46.5,74.4,46.2,74.4z M52.7,69.3c1.4,0,2.8,0.1,4.2,0c2.7-0.3,4.6-2.1,5.2-4.7c0.4-1.6,0.4-3.3,0-4.9
		c-0.4-1.8-1.4-3.1-3-4c-2-1.1-4.2-0.9-6.5-0.9C52.7,59.7,52.7,64.5,52.7,69.3z"/>
	<path class="st0" d="M129.3,61.2c3.2,4.4,6.4,8.7,9.7,13.1c-0.2,0-0.3,0.1-0.5,0.1c-2.4,0-4.7,0-7.1,0c-0.4,0-0.5-0.2-0.7-0.4
		c-2.3-3.4-4.5-6.8-6.8-10.2c-0.1-0.2-0.2-0.3-0.4-0.6c0,3.8,0,7.4,0,11.1c-2.2,0-4.3,0-6.4,0c0-8.1,0-16.2,0-24.3
		c2.1,0,4.2,0,6.4,0c0,3.4,0,6.8,0,10.4c0.2-0.2,0.3-0.4,0.4-0.5c2.2-3.1,4.4-6.3,6.6-9.4c0.2-0.4,0.5-0.5,0.9-0.5
		c2.2,0,4.3,0,6.6,0C135.1,53.8,132.2,57.5,129.3,61.2z"/>
	<path class="st0" d="M72.5,74.4c0-8.1,0-16.2,0-24.3c5.5,0,11.1,0,16.6,0c0,1.5,0,3,0,4.6c-3.4,0-6.7,0-10.2,0c0,1.6,0,3.2,0,4.9
		c3.2,0,6.4,0,9.6,0c0,1.6,0,3.1,0,4.6c-3.2,0-6.4,0-9.6,0c0,1.8,0,3.6,0,5.5c3.5,0,7,0,10.6,0c0,1.6,0,3.1,0,4.7
		C83.9,74.4,78.2,74.4,72.5,74.4z"/>
	<path class="st0" d="M140.4,73.9c0.2-1.9,0.4-3.6,0.5-5.5c0.6,0.2,1.1,0.4,1.6,0.6c1.9,0.7,3.8,1.2,5.9,0.9
		c0.7-0.1,1.4-0.4,2.1-0.8c0.9-0.6,1.4-2.2,0-3.1c-0.9-0.6-1.8-1-2.8-1.4c-1.2-0.6-2.5-1-3.7-1.6c-2.6-1.3-3.9-3.5-3.7-6.6
		c0.2-3.1,1.9-5.1,4.7-6.2c2.4-0.9,4.9-0.9,7.3-0.7c1.4,0.1,2.7,0.4,4.1,0.7c0.3,0.1,0.5,0.2,0.4,0.6c-0.2,1.4-0.3,2.8-0.4,4.1
		c0,0.1-0.1,0.2-0.1,0.4c-0.9-0.3-1.7-0.6-2.6-0.8c-1.5-0.4-3.1-0.6-4.7-0.2c-0.4,0.1-0.9,0.3-1.3,0.5c-1.2,0.7-1.3,2.2-0.2,3.1
		c0.5,0.4,1.1,0.6,1.7,0.8c1.4,0.6,2.9,1,4.3,1.6c3.9,1.6,5,4.6,4.2,8.5c-0.6,3.2-2.8,4.9-5.8,5.7c-2.4,0.6-4.8,0.6-7.3,0.3
		c-1.2-0.2-2.5-0.5-3.7-0.7C140.7,74,140.6,73.9,140.4,73.9z"/>
	<path class="st0" d="M113,68.5c0.1,1.8,0.2,3.5,0.3,5.1c0,0.2-0.1,0.4-0.3,0.5c-4.3,1.1-8.6,1.4-12.8-0.1c-4.6-1.7-7-5.1-7.5-10
		c-0.3-2.5-0.1-4.9,0.8-7.2c1.6-3.9,4.6-6.2,8.5-7c3.6-0.8,7.2-0.5,10.7,0.7c0.4,0.1,0.5,0.3,0.5,0.8c-0.2,1.5-0.3,3-0.5,4.6
		c-0.3-0.1-0.5-0.2-0.7-0.3c-2.5-1.3-5.2-1.7-7.9-0.9c-2.8,0.9-4.7,3.4-4.9,6.4c-0.1,1.3,0,2.6,0.4,3.9c0.9,2.7,3.3,4.6,6.1,4.9
		c2.3,0.2,4.5-0.2,6.7-1.1C112.6,68.6,112.8,68.6,113,68.5z"/>
	<path class="st0" d="M12.6,39.9c-0.3,0.6-1.2,1-1.9,0.6c-0.1,0-0.2-0.2-0.2-0.4c0-1.5,0-2.9,0.1-4.4c0-0.2,0-0.4,0-0.6
		c0-6.4,0-12.7,0-19.1c0-2.1-0.1-4.3-0.1-6.4C10.5,9.2,10.7,9,11,9c0.6,0,1.3,0,1.9,0c0,4,0,8,0,12c0.6-0.4,1.2-0.9,1.9-1.3
		c1.2-0.7,2.4-1,3.8-1.2c1.4-0.2,2.8,0,4.2,0.3c2,0.6,3.5,1.8,4.7,3.6c1.2,1.8,1.7,3.8,1.8,6c0,1.7,0,3.4-0.6,5
		c-1.1,3.5-3.3,6.1-6.8,7.3c-1.6,0.5-3.3,0.6-5,0.3C15.4,40.6,14.1,40.2,12.6,39.9z M12.7,33.3c0.1,0,0.2,0,0.2,0c0,1.4,0,2.8,0,4.1
		c0,0.2,0.1,0.4,0.2,0.4c0.4,0.2,0.9,0.5,1.3,0.6c1.1,0.3,2.2,0.6,3.3,0.7c1.6,0.1,3.2-0.1,4.6-0.8c2.6-1.3,3.6-3.7,4.2-6.4
		c0.3-1.4,0.3-2.8,0.1-4.3c-0.2-1.2-0.4-2.4-0.9-3.5c-1.2-2.3-3.1-3.5-5.6-3.7c-0.7,0-1.4,0-2.1,0c-2,0.1-3.8,0.9-5,2.5
		c-0.2,0.3-0.4,0.7-0.4,1C12.7,27.1,12.7,30.2,12.7,33.3z"/>
	<path class="st0" d="M82.1,41.4c-4.2,0.1-7.6-2.9-8.7-6.1c-0.8-2.3-0.8-4.6-0.6-7c0.3-3.4,1.7-6.2,4.5-8.3c2.7-2,5.7-2.5,8.9-1.3
		c2.3,0.9,4.1,2.5,5.1,4.8c0.6,1.3,0.7,2.6,0.9,3.9c0.2,1.5,0,3-0.2,4.4c-0.3,2.2-1.2,4.2-2.7,5.9c-1,1.1-2.1,2-3.3,2.6
		C84.7,41.1,83.4,41.5,82.1,41.4z M82.6,39.6c2,0,3.9-0.6,5.2-2.4c1.3-1.8,2.1-3.9,2.3-6.2c0.2-2.5-0.1-4.8-1.3-7
		c-0.8-1.6-2-2.9-3.7-3.6c-1.2-0.5-2.4-0.6-3.6-0.5c-1.6,0.2-3.1,0.8-4.2,2.1c-1.7,2.1-2.4,4.5-2.5,7.1c-0.1,2.4,0.3,4.7,1.6,6.9
		C77.7,38.4,79.7,39.7,82.6,39.6z"/>
	<path class="st0" d="M50.7,40.5c-0.1-0.7-0.2-1.3-0.3-1.9c-1.1,0.5-2.1,1.2-3.2,1.6c-1.7,0.7-3.5,0.9-5.4,0.7c-1-0.1-2.1-0.3-3-0.7
		c-1.5-0.7-2.2-1.9-2.7-3.4c-0.5-1.6-0.5-3.2-0.4-4.9c0-0.1,0-0.1,0-0.2c0-2.2,0.1-4.4,0.1-6.6c0-1.4-0.1-2.8-0.1-4.2
		c0-0.5-0.1-1.1-0.2-1.7c0.8,0,1.6-0.1,2.4-0.1c0.1,0,0.2,0.3,0.2,0.4c0,3.6-0.1,7.1-0.1,10.7c0,1.4,0,2.9,0.1,4.3
		c0.1,0.9,0.3,1.8,0.7,2.5c0.6,1.3,1.9,1.6,3.2,1.7c1.5,0.1,3.1,0.1,4.6-0.3c1.3-0.3,2.5-0.9,3.5-1.8c0.2-0.1,0.3-0.5,0.3-0.7
		c0-3.9-0.1-7.9-0.1-11.8c0-1.6-0.1-3.1-0.1-4.7c0-0.1,0.1-0.3,0.2-0.3c0.7-0.1,1.3-0.1,2-0.1c0,1.2,0,2.3,0,3.5c0,0.2,0,0.3,0,0.5
		c0,3.1-0.1,6.2,0,9.2c0,1.9,0.1,3.8,0.2,5.8c0,0.6,0.1,1.3,0.2,1.9c0,0.4-0.1,0.5-0.5,0.5C51.7,40.5,51.2,40.5,50.7,40.5z"/>
	<path class="st0" d="M143.4,19.3c0,1.5,0,3,0,4.5c0,0.2,0,0.4,0,0.6c0,2,0,4.1,0,6.1c0,1.5,0.1,3,0.3,4.5c0.1,0.8,0.3,1.6,0.7,2.3
		c0.6,1.2,1.8,1.5,3,1.6c1.1,0.1,2.3,0.1,3.5,0c1.7-0.2,3.3-0.8,4.7-1.9c0.3-0.2,0.4-0.5,0.4-0.9c0-1.7,0-3.5,0-5.2
		c0-3.6-0.1-7.2-0.2-10.9c0-0.2,0-0.4-0.1-0.7c0.8,0,1.5-0.1,2.3-0.1c0,7.1-0.4,14.2,0.3,21.4c-0.7,0-1.2,0-1.8,0
		c-0.1,0-0.3-0.2-0.3-0.3c-0.1-0.5-0.2-1.1-0.2-1.6c-0.6,0.3-1.2,0.7-1.8,1c-1.2,0.6-2.4,1.1-3.7,1.3c-1.5,0.3-3.1,0.2-4.6-0.1
		c-2.2-0.4-3.7-1.6-4.3-3.8c-0.2-0.8-0.4-1.7-0.4-2.6c0-2.9,0-5.7,0-8.6c0-2-0.2-4.1-0.2-6.1c0-0.1,0.1-0.4,0.2-0.4
		C141.9,19.2,142.7,19.3,143.4,19.3z"/>
	<path class="st0" d="M98.6,19.2c0.7,0,1.5,0,2.2,0c0.1,0,0.3,0.3,0.3,0.4c0,3.4-0.1,6.9-0.1,10.3c0,1.4,0,2.8,0.1,4.2
		c0.1,1.1,0.2,2.2,0.8,3.2c0.4,0.6,0.9,1,1.6,1.2c2.4,0.7,4.7,0.6,7-0.3c0.9-0.3,1.7-0.9,2.5-1.3c0.3-0.2,0.4-0.5,0.4-0.9
		c0-1.6,0-3.3,0-4.9c0-3-0.1-5.9-0.1-8.9c0-1,0-2,0-3c0.1,0,0.3,0,0.5,0c0.5,0,1.3-0.2,1.5,0.1c0.3,0.3,0.1,1,0.1,1.6
		c0,4.4-0.1,8.9,0,13.3c0,1.8,0.2,3.7,0.3,5.5c0,0.8,0,0.8-0.7,0.8c-1.1,0-1.1,0-1.4-1.1c0-0.3-0.1-0.5-0.1-0.7
		c-1.1,0.5-2.1,1.2-3.2,1.6c-1.7,0.7-3.5,0.9-5.3,0.7c-1.1-0.1-2.2-0.3-3.2-0.8c-1.3-0.6-2-1.7-2.4-3c-0.5-1.4-0.6-2.9-0.6-4.5
		c0-2.4,0.1-4.7,0-7.1C98.7,23.5,98.6,21.4,98.6,19.2z"/>
	<path class="st0" d="M134.3,19.6c-0.2,0.6-0.3,1.1-0.4,1.7c-0.1,0.3-0.2,0.4-0.5,0.3c-1.7-0.7-3.5-0.8-5.3-0.8
		c-1.1,0-2.1,0.3-3.1,0.9c-1.7,1-1.8,4,0,4.9c1.6,0.8,3.2,1.5,4.8,2.3c1.1,0.5,2.1,1.1,3.1,1.7c1.8,1.2,2.4,2.9,2.2,5
		c-0.1,1.8-0.8,3.2-2.3,4.2c-1.2,0.8-2.5,1.1-3.9,1.2c-2.2,0.1-4.3-0.1-6.5-0.7c-0.2-0.1-0.4-0.1-0.6-0.2c-0.8-0.3-0.8-0.3-0.6-1.1
		c0.1-0.5,0.2-0.9,0.4-1.4c0.9,0.3,1.8,0.6,2.7,0.8c2.1,0.4,4.1,0.7,6.3,0.2c1.8-0.4,2.8-2,2.6-3.9c-0.2-1.8-1.3-2.7-2.7-3.3
		c-1.7-0.8-3.4-1.5-5.1-2.3c-1.2-0.6-2.3-1.3-3-2.6c-1.3-2.2-0.8-5.4,1.9-6.9c1.9-1,4-1.1,6.1-0.9c1.1,0.1,2.1,0.3,3.2,0.5
		C133.8,19.4,134,19.5,134.3,19.6z"/>
	<path class="st0" d="M60.3,18.7c0.2,1.2,0.4,2.3,0.6,3.6c1.4-1.8,2.7-3.5,5-3.8c1.7-0.2,3.3,0.1,5,0.7c-0.2,0.6-0.3,1.2-0.5,1.8
		c0,0.1-0.3,0.2-0.5,0.2c-1.2-0.3-2.4-0.7-3.7-0.6c-2.3,0.1-4,1.4-5,3.6c-0.3,0.7-0.3,1.4-0.3,2.1c0,3.5,0,6.9,0.1,10.4
		c0,1.1,0.1,2.3,0.2,3.4c0,0.3-0.1,0.5-0.4,0.5c-0.6,0-1.2,0-1.8,0c-0.1,0-0.3-0.3-0.3-0.4c0.1-3.5,0.2-7,0.2-10.5
		c0-1.7-0.1-3.5-0.2-5.2c-0.1-1.4-0.3-2.9-0.5-4.3c-0.1-1-0.1-1,0.9-1.2C59.5,18.9,59.8,18.8,60.3,18.7z"/>
	<path d="M19.5,75.2c3.8-3.8,7.6-7.6,11.3-11.4c0-0.1-0.1-0.1-0.1-0.2c0,0.2,0,0.4,0,0.6c0,3.1,0,6.1,0,9.2c0,1-0.7,1.8-1.7,1.8
		c-3.1,0-6.2,0-9.3,0C19.7,75.3,19.7,75.2,19.5,75.2z"/>
	<path d="M30.3,63.2c-2.3,2.3-4.6,4.6-6.8,6.8c-0.9,0.9-2,0.8-2.9-0.1c-0.9-1-1.8-1.9-2.7-2.8c-1.2-1.3-2.4-2.5-3.6-3.8
		C19.6,63.2,24.9,63.2,30.3,63.2z"/>
	<path d="M21.5,62.3c0.7-0.7,1.3-1.3,1.9-1.9c1.5-1.5,3.1-3,4.6-4.5c1.3-1.4,2.3-1.4,3.7,0.1c1.5,1.7,3.2,3.3,4.7,5
		c0.4,0.4,0.8,0.8,1.3,1.3C32.3,62.3,26.9,62.3,21.5,62.3z"/>
	<path d="M32.4,50.3c-3.9,3.9-7.6,7.7-11.4,11.5c0,0,0,0.1,0.1,0.1c0-0.2,0-0.4,0-0.7c0-3,0-6,0-9c0-1.2,0.7-1.9,1.8-1.9
		C26.1,50.3,29.2,50.3,32.4,50.3z"/>
	<path d="M31.4,63.6c0.9,0.9,1.8,1.8,2.6,2.7c0.6,0.6,1.2,1.3,1.8,1.9c0.9,0.9,0.9,1.9,0,2.7c-1.3,1.4-2.7,2.7-4,4.1
		c-0.1,0.1-0.2,0.3-0.4,0.5C31.4,71.5,31.4,67.6,31.4,63.6z"/>
	<path d="M20.5,50.1c0,3.9,0,7.8,0,11.8c-0.6-0.7-1.2-1.3-1.8-1.9c-0.9-0.9-1.7-1.8-2.6-2.7c-0.9-0.9-0.9-1.9,0-2.8
		C17.6,53.1,19,51.6,20.5,50.1z"/>
	<path d="M14.1,56.3c1.9,2,3.8,3.9,5.8,5.9c-0.4,0-0.7,0-1,0c-1,0-2.1,0-3.1,0c-0.9,0-1.6-0.8-1.6-1.7
		C14.1,59.1,14.1,57.7,14.1,56.3z"/>
	<path d="M37.7,69.2c-1.9-2-3.8-3.9-5.7-5.8c0.2,0,0.3,0,0.4,0c1.2,0,2.5,0,3.7,0c1,0,1.6,0.7,1.6,1.7
		C37.7,66.4,37.7,67.8,37.7,69.2z"/>
	<path d="M52.7,69.3c0-4.8,0-9.6,0-14.5c2.2,0,4.4-0.2,6.5,0.9c1.6,0.9,2.5,2.2,3,4c0.4,1.6,0.4,3.3,0,4.9c-0.7,2.7-2.5,4.4-5.2,4.7
		C55.5,69.4,54.2,69.3,52.7,69.3z"/>
	<path d="M12.7,33.3c0-3.1,0-6.2,0-9.2c0-0.3,0.2-0.7,0.4-1c1.3-1.6,3-2.4,5-2.5c0.7,0,1.4,0,2.1,0c2.5,0.2,4.4,1.4,5.6,3.7
		c0.6,1.1,0.8,2.3,0.9,3.5c0.2,1.4,0.1,2.9-0.1,4.3c-0.5,2.7-1.6,5.1-4.2,6.4c-1.4,0.7-3,1-4.6,0.8c-1.1-0.1-2.2-0.4-3.3-0.7
		c-0.5-0.1-0.9-0.4-1.3-0.6c-0.1-0.1-0.2-0.3-0.2-0.4c0-1.4,0-2.8,0-4.1C12.9,33.3,12.8,33.3,12.7,33.3z"/>
	<path d="M82.6,39.6c-2.8,0.1-4.8-1.2-6.2-3.5c-1.3-2.1-1.7-4.5-1.6-6.9c0.1-2.6,0.9-5.1,2.5-7.1c1.1-1.3,2.5-1.9,4.2-2.1
		c1.3-0.1,2.5,0,3.6,0.5c1.7,0.7,2.8,2,3.7,3.6c1.1,2.2,1.5,4.5,1.3,7c-0.2,2.3-0.9,4.3-2.3,6.2C86.5,39,84.6,39.7,82.6,39.6z"/>
</g>
</svg>
