<?xml version="1.0" standalone="no"?>
<!DOCTYPE svg PUBLIC "-//W3C//DTD SVG 20010904//EN"
 "http://www.w3.org/TR/2001/REC-SVG-20010904/DTD/svg10.dtd">
<svg version="1.0" xmlns="http://www.w3.org/2000/svg"
 width="300.000000pt" height="169.000000pt" viewBox="0 0 300.000000 169.000000"
 preserveAspectRatio="xMidYMid meet">
<metadata>
Created by potrace 1.10, written by Peter Selinger 2001-2011
</metadata>
<g transform="translate(0.000000,169.000000) scale(0.100000,-0.100000)"
fill="#000000" stroke="none">
<path d="M1413 1310 c-13 -5 -23 -14 -23 -19 0 -5 -10 -11 -22 -13 -12 -2 -30
-17 -40 -35 -25 -42 -35 -128 -17 -149 12 -15 14 -14 21 3 7 17 8 16 6 -2 -2
-21 28 -92 48 -113 7 -6 16 -21 19 -32 3 -11 11 -20 16 -20 5 0 14 -12 19 -26
15 -37 -8 -73 -89 -140 -100 -82 -192 -224 -159 -245 18 -12 28 -11 28 2 0 5
-4 8 -9 4 -5 -3 -12 -1 -15 4 -8 13 22 7 36 -7 9 -9 6 -13 -9 -19 -18 -7 -19
-10 -7 -21 12 -11 14 -10 14 3 0 8 5 15 12 15 6 0 8 -3 5 -6 -11 -11 13 -44
31 -43 10 0 12 3 4 6 -6 2 -9 10 -6 15 4 7 2 8 -4 4 -8 -5 -12 0 -12 12 0 11
-7 25 -15 32 -8 7 -12 17 -8 23 3 6 1 7 -6 3 -16 -11 -24 19 -11 43 14 26 28
20 28 -13 0 -13 9 -38 21 -54 11 -17 25 -40 30 -53 l10 -24 0 24 c1 13 -10 36
-24 53 -23 27 -30 56 -26 98 3 23 23 60 33 60 5 0 7 -4 3 -9 -3 -5 -1 -12 5
-16 6 -4 8 -11 5 -16 -4 -5 1 -9 9 -9 9 0 16 5 16 10 0 6 -5 10 -12 10 -6 0
-8 3 -4 8 4 4 13 7 18 7 6 0 13 13 15 28 3 21 1 27 -9 21 -7 -4 -2 5 11 19 13
15 28 24 32 21 5 -3 9 1 9 8 0 9 3 9 10 -2 8 -13 10 -13 10 1 0 20 29 34 34
16 2 -6 13 -41 26 -77 12 -36 22 -71 23 -77 0 -7 5 -13 10 -13 5 0 4 -7 -3
-15 -11 -13 -10 -14 6 -8 16 6 17 5 6 -9 -11 -13 -10 -16 4 -14 11 0 18 -7 19
-22 2 -28 -10 -37 -55 -41 l-35 -3 25 29 25 28 -31 -27 c-16 -16 -37 -28 -45
-28 -9 0 -16 -6 -16 -12 0 -17 97 -11 97 5 0 7 5 4 11 -5 8 -14 3 -24 -23 -48
-44 -40 -59 -38 -22 2 l29 33 -31 -27 c-36 -34 -55 -37 -28 -5 l19 22 -23 -19
c-12 -11 -20 -21 -17 -24 3 -3 0 -11 -7 -19 -9 -11 -7 -12 8 -7 16 6 15 2 -6
-22 l-25 -29 31 28 c47 42 53 32 9 -15 l-40 -43 40 38 c46 42 71 51 35 12 -26
-27 -35 -55 -18 -55 6 0 8 6 5 14 -6 14 39 64 48 54 3 -2 -4 -13 -15 -23 -14
-13 -17 -22 -10 -35 7 -13 3 -23 -15 -40 -18 -17 -22 -27 -15 -40 6 -11 5 -21
-3 -29 -9 -10 -8 -11 8 -5 20 7 20 7 0 -16 -11 -14 3 -6 31 17 28 23 51 49 51
57 0 17 -25 7 -47 -18 -7 -9 -17 -16 -23 -16 -6 0 0 12 14 28 13 15 17 21 9
15 -8 -7 -19 -13 -24 -13 -6 1 0 10 13 21 13 11 21 22 17 26 -7 8 33 53 47 53
6 0 0 -12 -14 -28 -13 -15 -17 -21 -9 -15 24 22 34 14 14 -9 l-19 -23 22 19
c13 10 20 23 17 27 -3 5 12 26 33 46 21 21 29 30 18 21 -37 -31 -40 -19 -5 19
31 34 30 33 -10 -5 -46 -43 -73 -56 -49 -24 11 14 11 15 -1 4 -17 -14 -34 -16
-25 -2 4 6 -1 7 -12 3 -10 -3 9 22 42 56 33 33 64 61 69 61 6 0 -12 -24 -39
-52 l-50 -53 51 48 c28 26 51 54 51 62 0 22 -10 18 -47 -20 -42 -43 -54 -37
-14 8 l29 32 -32 -29 c-18 -17 -33 -25 -33 -19 0 6 6 16 14 22 21 18 26 50 9
66 -8 8 -11 15 -6 15 4 0 0 5 -10 11 -9 6 -15 14 -12 20 4 5 1 9 -6 9 -7 0 -9
3 -6 6 3 4 1 16 -4 27 -8 15 -8 22 2 28 18 11 21 11 43 -6 16 -12 17 -17 6
-30 -7 -8 -17 -12 -22 -9 -5 4 -2 -9 8 -27 l18 -34 17 55 17 55 -41 38 c-22
20 -44 37 -48 37 -5 0 -16 11 -25 25 -16 25 -17 104 -1 116 4 3 -2 16 -13 29
-11 13 -20 19 -20 14 0 -5 -14 7 -30 26 -45 52 -65 143 -47 212 6 24 56 54 80
49 5 -1 7 4 5 11 -7 20 -48 18 -61 -2 -6 -10 -17 -16 -24 -13 -9 4 -3 14 19
33 18 16 35 24 39 19 3 -5 13 -7 22 -3 13 5 16 2 10 -12 -4 -12 -3 -15 5 -10
7 4 15 1 18 -8 3 -9 15 -16 25 -16 11 0 24 -10 30 -23 6 -13 20 -27 32 -32 12
-6 33 -31 47 -57 l26 -47 0 55 c1 51 -7 67 -21 44 -3 -5 -1 -10 6 -10 7 0 9
-3 6 -6 -10 -10 -75 44 -100 82 -12 18 -28 34 -34 34 -7 0 -13 6 -13 14 0 9 7
12 20 9 11 -3 20 -9 20 -13 0 -4 7 -10 15 -14 26 -10 16 9 -14 27 -31 18 -73
21 -108 7z m-83 -183 c0 -5 -4 -5 -10 -2 -5 3 -10 14 -10 23 0 15 2 15 10 2 5
-8 10 -19 10 -23z m209 -414 c11 -23 10 -25 -3 -14 -11 9 -20 10 -34 2 -16 -8
-21 -7 -26 6 -9 21 0 29 18 14 10 -9 16 -9 21 -1 4 7 -6 16 -24 23 -17 6 -31
17 -31 24 0 21 65 -24 79 -54z m-199 -18 c0 -1 -8 -9 -19 -19 -17 -16 -18 -15
-16 6 1 13 3 24 4 25 1 3 31 -8 31 -12z m212 -67 c-7 -7 -12 -8 -12 -2 0 14
12 26 19 19 2 -3 -1 -11 -7 -17z m-47 -198 c-16 -16 -34 -30 -39 -30 -12 1 49
60 61 60 4 0 -6 -13 -22 -30z m0 -80 c-10 -11 -23 -20 -28 -20 -6 0 -2 9 8 20
10 11 23 20 28 20 6 0 2 -9 -8 -20z m5 -106 c-8 -8 -23 -20 -34 -26 -19 -10
-18 -8 3 16 26 27 53 37 31 10z"/>
<path d="M73 1275 c-7 -8 -9 -16 -4 -19 5 -3 12 1 15 10 8 22 4 25 -11 9z"/>
<path d="M106 1267 c9 -25 41 -40 50 -25 4 7 3 10 -1 5 -5 -4 -19 3 -32 15
-19 18 -23 19 -17 5z"/>
<path d="M2978 1273 c7 -3 16 -2 19 1 4 3 -2 6 -13 5 -11 0 -14 -3 -6 -6z"/>
<path d="M2488 1253 c12 -2 32 -2 45 0 12 2 2 4 -23 4 -25 0 -35 -2 -22 -4z"/>
<path d="M47 1239 c7 -7 15 -10 18 -7 3 3 -2 9 -12 12 -14 6 -15 5 -6 -5z"/>
<path d="M1596 1226 c20 -27 37 -35 28 -13 -2 7 -14 18 -25 25 -21 13 -21 13
-3 -12z"/>
<path d="M195 1228 c11 -6 23 -16 27 -22 5 -8 8 -7 8 1 0 7 -9 17 -19 23 -27
14 -41 12 -16 -2z"/>
<path d="M1556 1226 c3 -8 14 -16 25 -19 25 -7 24 -3 -6 17 -19 13 -23 13 -19
2z"/>
<path d="M267 1200 c26 -24 29 -30 15 -33 -12 -3 -11 -5 6 -6 15 -1 22 5 22
18 0 21 -23 45 -33 34 -4 -3 -7 -1 -7 5 0 7 -8 12 -17 12 -14 -1 -11 -7 14
-30z"/>
<path d="M0 1202 c0 -8 48 -32 64 -32 12 0 -22 24 -46 33 -10 4 -18 3 -18 -1z"/>
<path d="M2770 1201 c-8 -6 -17 -8 -21 -5 -4 2 -5 -5 -2 -17 8 -28 47 -22 51
9 4 24 -4 27 -28 13z"/>
<path d="M2958 1202 c-10 -2 -18 -8 -18 -14 0 -7 -5 -6 -14 1 -9 8 -16 8 -20
2 -4 -6 -17 -6 -36 1 -23 7 -34 7 -45 -2 -18 -15 -20 -34 -3 -24 18 11 48 12
42 2 -8 -12 88 -7 104 5 7 5 16 7 19 3 4 -4 2 -11 -6 -15 -10 -7 -9 -10 3 -14
11 -5 16 0 16 14 0 26 -20 46 -42 41z"/>
<path d="M132 1187 c-9 -11 -5 -20 18 -42 26 -25 28 -25 23 -6 -3 11 -10 21
-15 21 -5 0 -7 4 -4 8 2 4 1 14 -3 20 -6 10 -10 10 -19 -1z"/>
<path d="M334 1192 c4 -3 14 -7 22 -8 9 -1 13 0 10 4 -4 3 -14 7 -22 8 -9 1
-13 0 -10 -4z"/>
<path d="M1493 1179 c3 -10 1 -22 -4 -25 -5 -3 -9 0 -9 5 0 6 -5 11 -11 11 -8
0 -8 -4 -1 -13 14 -17 -12 -52 -33 -43 -9 3 -14 2 -11 -3 3 -4 -6 -13 -21 -20
-14 -6 -23 -14 -20 -17 3 -3 15 0 27 6 28 15 57 -5 39 -27 -9 -11 -9 -12 3 -8
8 3 21 -1 28 -10 11 -13 10 -15 -3 -10 -8 4 -18 2 -22 -4 -3 -7 2 -11 14 -11
10 0 21 -4 23 -10 2 -5 13 -7 25 -4 21 6 21 6 -8 36 -16 17 -29 37 -29 44 0 7
-3 19 -6 28 -4 11 -1 16 10 16 9 0 16 -4 16 -10 0 -5 11 -10 25 -10 14 0 25 5
25 10 0 6 10 11 23 11 20 1 20 2 2 6 -11 3 -23 9 -26 14 -3 6 -13 7 -22 3 -9
-3 -14 -10 -11 -15 3 -5 -2 -6 -11 -2 -12 4 -13 8 -4 13 6 5 9 15 6 23 -4 10
0 17 11 19 13 3 11 5 -6 10 -20 6 -23 4 -19 -13z"/>
<path d="M2692 1174 c-15 -16 -52 -19 -52 -4 0 5 -6 7 -13 4 -8 -3 -41 -6 -73
-7 -33 -2 -66 -7 -73 -12 -9 -5 -12 -4 -7 3 4 8 -7 10 -36 6 -40 -4 -263 -14
-315 -14 -13 0 -23 -4 -23 -8 0 -5 -26 -5 -57 -1 -83 11 -389 6 -383 -6 5 -10
8 -10 48 -1 12 3 22 1 22 -5 0 -5 -12 -9 -26 -9 -14 0 -23 -4 -19 -10 3 -5 12
-7 20 -3 10 3 15 -1 15 -13 1 -18 1 -18 11 -1 6 10 23 18 42 18 l32 2 -35 7
-35 7 34 2 c20 0 43 -6 55 -16 13 -11 16 -12 9 -3 -10 13 2 15 95 16 59 1 101
-1 95 -3 -7 -3 -13 -9 -13 -14 0 -6 7 -6 18 0 9 5 36 8 59 7 24 -1 44 2 46 8
3 10 121 11 137 1 4 -3 10 -1 12 4 1 5 15 7 30 4 15 -3 25 -9 23 -13 -3 -5 -1
-11 5 -15 5 -3 10 1 10 10 0 8 -10 20 -22 25 -19 7 -15 8 19 7 42 -2 55 -11
31 -20 -7 -3 -3 -4 9 -4 12 1 19 5 17 9 -3 4 11 8 30 8 20 0 36 -5 36 -11 0
-6 -9 -9 -20 -6 -13 3 -24 -1 -31 -14 -8 -15 -14 -17 -29 -9 -24 13 -33 13
-25 0 3 -5 0 -11 -7 -11 -7 -1 3 -4 22 -8 28 -5 36 -2 42 11 4 10 16 18 26 18
11 0 25 6 31 14 6 7 30 13 52 13 25 0 36 -3 28 -8 -8 -4 -11 -9 -9 -11 37 -24
46 -25 47 -7 1 11 -2 17 -7 14 -5 -3 -8 3 -7 13 0 10 7 19 14 19 8 0 12 -6 9
-13 -7 -18 5 -26 21 -13 10 9 13 8 13 -2 0 -10 3 -10 8 -3 10 16 52 28 52 15
0 -6 -7 -11 -17 -11 -9 0 -14 -3 -10 -6 3 -4 14 -3 24 1 10 5 36 9 57 9 23 1
41 7 42 14 1 7 0 9 -2 4 -7 -14 -54 -1 -54 14 0 8 -5 14 -10 14 -7 0 -7 -6 0
-20 6 -11 8 -20 6 -20 -3 0 -11 11 -18 24 -11 20 -15 22 -26 10z"/>
<path d="M80 1166 c0 -11 30 -39 36 -34 2 3 -5 13 -16 23 -11 10 -20 15 -20
11z"/>
<path d="M410 1160 c0 -5 5 -10 11 -10 5 0 7 5 4 10 -3 6 -8 10 -11 10 -2 0
-4 -4 -4 -10z"/>
<path d="M2836 1156 c6 -15 4 -18 -9 -13 -11 4 -14 2 -10 -9 3 -7 9 -14 13
-14 14 0 21 33 10 44 -8 8 -9 6 -4 -8z"/>
<path d="M6 1139 c3 -5 12 -9 20 -9 8 0 14 -4 14 -10 0 -5 5 -10 11 -10 8 0 8
4 0 14 -13 16 -54 29 -45 15z"/>
<path d="M315 1140 c-3 -6 1 -13 9 -16 9 -3 13 -10 10 -15 -3 -5 0 -9 5 -9 12
0 14 11 5 34 -7 18 -20 21 -29 6z"/>
<path d="M2866 1135 c-2 -7 23 -11 68 -12 59 -1 67 0 46 9 -33 14 -109 16
-114 3z"/>
<path d="M540 1128 c0 -5 9 -8 21 -8 35 0 117 -31 135 -51 18 -20 44 -26 44
-9 0 5 -6 7 -14 4 -8 -3 -17 -1 -21 5 -3 6 -1 11 5 11 6 0 8 5 4 12 -5 8 0 9
14 6 12 -4 20 -2 16 3 -3 5 -1 9 5 9 5 0 13 -5 16 -10 4 -7 12 -7 25 0 26 14
40 12 34 -4 -4 -11 0 -13 16 -9 16 4 18 8 8 14 -7 5 -8 9 -2 9 6 0 14 -3 17
-6 4 -4 26 -8 49 -10 88 -6 129 -11 135 -18 3 -3 -6 -6 -22 -6 -36 0 -30 -7
12 -13 17 -3 37 -8 43 -12 7 -4 6 1 -2 14 -7 12 -29 26 -48 33 -19 6 -29 13
-22 16 7 2 26 -1 42 -6 16 -6 30 -7 32 -2 2 5 17 11 33 14 26 4 28 3 13 -8
-15 -11 -14 -13 13 -13 21 0 26 3 17 10 -8 5 -2 7 20 3 19 -3 32 -1 32 5 0 9
16 7 56 -8 6 -2 14 5 16 15 5 19 2 20 -66 14 -86 -6 -503 -8 -604 -1 -39 2
-72 1 -72 -3z m155 -28 c3 -6 -1 -7 -9 -4 -18 7 -21 14 -7 14 6 0 13 -4 16
-10z"/>
<path d="M211 1120 c10 -6 15 -20 14 -34 -2 -18 1 -23 12 -19 10 4 13 0 11
-12 -2 -11 4 -19 15 -20 26 -5 20 24 -8 37 -14 6 -25 15 -25 20 0 5 10 4 23
-2 18 -9 17 -7 -6 14 -15 14 -33 26 -40 26 -7 0 -5 -5 4 -10z"/>
<path d="M374 1123 c4 -7 3 -13 -3 -13 -15 0 -7 -24 19 -57 14 -17 51 -42 82
-56 53 -24 57 -24 72 -8 14 15 13 17 -11 19 -15 1 -30 8 -35 15 -6 9 -8 9 -8
0 0 -8 -8 -5 -20 7 -11 11 -28 20 -38 20 -10 0 -27 7 -38 15 -16 13 -17 16 -4
24 13 9 13 13 -4 28 -10 10 -16 12 -12 6z"/>
<path d="M2500 1120 c0 -5 5 -10 10 -10 6 0 10 -5 10 -10 0 -7 -13 -8 -34 -5
-18 4 -36 3 -39 -2 -8 -12 95 -15 113 -3 12 8 11 10 -8 10 -13 0 -21 4 -18 9
3 5 -1 12 -10 15 -21 8 -24 8 -24 -4z"/>
<path d="M2743 1123 c-7 -3 -13 -10 -13 -16 0 -8 4 -7 12 1 9 9 16 8 29 -4 9
-8 20 -11 23 -6 7 11 -34 31 -51 25z"/>
<path d="M120 1098 c12 -10 28 -18 36 -18 8 0 13 -4 11 -8 -3 -10 45 -82 56
-82 4 0 7 -7 7 -15 0 -9 7 -27 16 -40 21 -32 11 -45 -29 -39 -25 3 -28 2 -12
-5 17 -8 18 -10 3 -10 -10 -1 -18 -7 -19 -13 0 -7 -4 -3 -9 8 -9 22 -60 32
-60 12 0 -6 9 -8 20 -5 11 3 22 2 24 -2 3 -4 -14 -8 -37 -9 -30 -2 -38 0 -27
7 8 6 12 12 10 14 -11 9 -90 15 -90 6 0 -5 15 -9 33 -10 30 -1 31 -1 7 -9 -14
-4 -20 -9 -15 -11 6 -1 15 -3 20 -4 6 -2 34 -3 63 -4 36 -1 51 -5 46 -12 -4
-7 1 -7 15 1 12 6 32 13 43 15 11 3 28 11 37 18 13 11 46 14 81 8 3 -1 -6 -7
-19 -14 -17 -8 -25 -21 -26 -40 -1 -30 -41 -70 -59 -60 -5 3 -6 1 -3 -4 4 -6
-7 -16 -25 -22 -56 -20 -102 -78 -65 -83 6 0 17 -2 22 -3 6 -2 18 -3 27 -4 9
0 24 -8 32 -17 9 -9 24 -13 35 -9 10 3 23 -1 30 -8 9 -12 5 -14 -26 -13 -21 1
-49 -3 -61 -10 -22 -11 -21 -12 20 -16 23 -2 46 0 49 5 3 5 9 2 12 -7 4 -9 11
-16 16 -16 6 0 8 7 5 15 -4 10 0 15 11 15 9 0 14 -3 12 -7 -3 -5 6 -9 19 -9
29 -2 31 7 4 24 -12 7 -18 16 -15 21 2 5 -1 14 -9 20 -11 9 -12 6 -9 -16 l4
-28 -15 26 c-15 27 -64 43 -130 44 -16 0 -31 5 -33 10 -2 7 25 10 74 8 l78 -2
-70 13 c-62 11 -66 14 -40 20 17 4 41 14 55 22 14 8 33 18 43 21 9 3 17 9 17
14 0 5 6 9 14 9 17 0 68 58 61 70 -3 5 -1 11 5 15 13 8 13 35 0 35 -5 0 -7 -8
-4 -17 5 -16 4 -16 -8 -2 -19 22 -58 42 -58 29 0 -5 -10 0 -22 12 -14 14 -18
23 -10 26 18 6 4 22 -18 22 -10 0 -22 5 -26 12 -5 7 -2 9 9 5 11 -4 14 -2 11
8 -8 20 -34 27 -34 9 0 -8 -5 -12 -10 -9 -6 4 -10 16 -8 28 2 12 -3 22 -9 23
-7 1 -19 2 -25 3 -8 1 -6 7 5 16 18 13 18 14 -5 29 -14 9 -37 15 -52 14 l-28
-2 22 -18z m235 -253 c0 -11 -7 -21 -16 -23 -12 -2 -16 4 -16 23 0 19 4 25 16
23 9 -2 16 -12 16 -23z"/>
<path d="M443 1096 c15 -14 33 -26 39 -26 13 0 14 0 -32 29 l-35 23 28 -26z"/>
<path d="M468 1113 c7 -3 16 -2 19 1 4 3 -2 6 -13 5 -11 0 -14 -3 -6 -6z"/>
<path d="M1975 1110 c-3 -5 1 -10 9 -10 9 0 16 5 16 10 0 6 -4 10 -9 10 -6 0
-13 -4 -16 -10z"/>
<path d="M2155 1110 c3 -5 11 -10 16 -10 6 0 7 5 4 10 -3 6 -11 10 -16 10 -6
0 -7 -4 -4 -10z"/>
<path d="M10 1100 c0 -5 5 -10 10 -10 6 0 10 5 10 10 0 6 -4 10 -10 10 -5 0
-10 -4 -10 -10z"/>
<path d="M1660 1085 c0 -14 5 -25 10 -25 6 0 10 5 10 11 0 5 4 8 9 4 5 -3 13
0 17 6 4 8 3 9 -4 5 -7 -4 -12 -3 -12 2 0 6 -7 12 -15 16 -11 4 -15 -1 -15
-19z"/>
<path d="M1850 1099 c0 -5 5 -7 10 -4 6 3 10 8 10 11 0 2 -4 4 -10 4 -5 0 -10
-5 -10 -11z"/>
<path d="M2279 1101 c-3 -7 -23 -15 -47 -17 -24 -2 -52 -10 -63 -18 -20 -13
-18 -14 19 -13 29 2 38 6 34 16 -3 9 1 12 14 7 10 -3 26 -1 33 4 9 5 22 5 31
0 9 -5 22 -5 31 1 10 6 7 9 -13 9 -14 0 -28 6 -30 13 -4 9 -6 9 -9 -2z"/>
<path d="M2900 1100 c-12 -9 -9 -11 13 -7 15 2 27 0 27 -4 0 -5 14 -9 30 -9
29 0 43 15 18 18 -7 1 -26 4 -43 7 -16 3 -37 1 -45 -5z"/>
<path d="M1758 1093 c7 -3 16 -2 19 1 4 3 -2 6 -13 5 -11 0 -14 -3 -6 -6z"/>
<path d="M1798 1093 c7 -3 16 -2 19 1 4 3 -2 6 -13 5 -11 0 -14 -3 -6 -6z"/>
<path d="M2090 1090 c20 -13 33 -13 25 0 -3 6 -14 10 -23 10 -15 0 -15 -2 -2
-10z"/>
<path d="M2616 1085 c4 -8 11 -15 16 -15 6 0 5 6 -2 15 -7 8 -14 15 -16 15 -2
0 -1 -7 2 -15z"/>
<path d="M1193 1078 c7 -4 -15 -5 -47 -2 -52 5 -58 4 -52 -11 3 -9 6 -18 6
-21 0 -2 11 1 25 6 19 7 23 6 18 -6 -5 -13 -1 -13 23 -2 16 6 35 16 41 21 7 5
24 6 37 3 13 -3 35 -1 48 4 22 10 22 10 -4 7 -16 -3 -28 -1 -28 4 0 4 -18 7
-40 6 -23 -1 -34 -4 -27 -9z"/>
<path d="M1540 1081 c0 -5 -8 -18 -17 -27 -14 -14 -15 -17 -3 -12 9 3 24 0 35
-8 10 -8 13 -14 7 -14 -7 0 -12 -5 -12 -11 0 -6 8 -8 19 -4 14 4 21 0 26 -16
5 -16 9 -18 15 -9 5 8 -4 32 -22 61 -27 45 -48 62 -48 40z"/>
<path d="M1924 1079 c-4 -8 -33 -10 -85 -7 -44 3 -79 2 -79 -2 0 -4 38 -8 84
-9 67 -1 85 1 89 14 7 17 1 20 -9 4z"/>
<path d="M1950 1075 c-11 -13 -11 -18 0 -28 10 -9 11 -9 5 1 -4 8 0 19 11 27
11 8 14 15 8 15 -6 0 -17 -7 -24 -15z"/>
<path d="M2127 1078 c-5 -13 -49 -22 -114 -22 -18 0 -29 -4 -26 -9 3 -5 28 -5
57 -1 28 4 59 7 69 6 17 -1 35 23 24 34 -2 3 -7 -1 -10 -8z"/>
<path d="M2662 1078 c-20 -20 -14 -28 22 -25 28 2 31 5 23 18 -9 15 -13 15
-24 3 -19 -19 -29 -18 -13 1 15 18 9 20 -8 3z"/>
<path d="M70 1070 c0 -6 7 -10 15 -10 8 0 15 2 15 4 0 2 -7 6 -15 10 -8 3 -15
1 -15 -4z"/>
<path d="M854 1066 c23 -19 61 -22 50 -4 -5 7 -3 8 7 2 8 -5 21 -7 30 -6 9 2
22 -4 29 -13 7 -8 27 -14 44 -14 21 1 25 3 11 6 -11 3 -27 11 -36 19 -9 8 -47
17 -85 20 -64 5 -68 4 -50 -10z"/>
<path d="M2013 1073 c9 -2 23 -2 30 0 6 3 -1 5 -18 5 -16 0 -22 -2 -12 -5z"/>
<path d="M2825 1072 c-11 -2 -31 -8 -44 -13 -19 -8 -21 -12 -11 -25 15 -17 6
-30 -25 -37 -11 -2 38 -5 108 -5 70 -1 132 -4 137 -7 6 -4 10 4 10 16 0 17 -3
19 -13 10 -8 -6 -16 -9 -19 -6 -3 3 -29 8 -59 11 -30 2 -63 6 -75 7 -11 1 -21
8 -21 15 0 16 59 16 75 0 7 -7 12 -8 12 -2 0 7 20 9 51 6 40 -3 50 -1 47 9 -3
9 -16 13 -36 11 -16 -2 -33 2 -37 8 -5 8 -11 8 -21 -1 -10 -8 -21 -9 -37 -2
-12 5 -31 7 -42 5z"/>
<path d="M512 1046 c6 -14 15 -26 20 -26 10 0 -7 36 -22 45 -6 4 -5 -5 2 -19z"/>
<path d="M617 1059 c-9 -6 -26 -7 -37 -4 -21 7 -25 -1 -11 -24 7 -11 15 -11
41 -2 18 6 46 11 62 11 24 0 27 2 16 14 -9 10 -18 11 -32 4 -13 -7 -16 -7 -12
1 9 14 -3 14 -27 0z"/>
<path d="M754 1058 c-3 -5 -16 -13 -28 -18 -19 -8 -19 -9 7 -9 16 -1 30 5 33
14 4 8 10 12 15 9 5 -3 7 -10 4 -15 -4 -5 -4 -9 -2 -9 8 0 62 30 57 31 -22 7
-82 4 -86 -3z"/>
<path d="M1410 1060 c-8 -5 -10 -10 -5 -10 6 0 17 5 25 10 8 5 11 10 5 10 -5
0 -17 -5 -25 -10z"/>
<path d="M2286 1061 c-3 -5 1 -11 9 -15 8 -3 15 -1 15 4 0 13 -18 22 -24 11z"/>
<path d="M2438 1063 c7 -3 16 -2 19 1 4 3 -2 6 -13 5 -11 0 -14 -3 -6 -6z"/>
<path d="M2595 1060 c3 -5 8 -10 11 -10 2 0 4 5 4 10 0 6 -5 10 -11 10 -5 0
-7 -4 -4 -10z"/>
<path d="M1210 1050 c0 -5 17 -10 38 -9 33 1 34 2 12 9 -36 11 -50 11 -50 0z"/>
<path d="M1300 1050 c0 -5 5 -10 11 -10 5 0 7 5 4 10 -3 6 -8 10 -11 10 -2 0
-4 -4 -4 -10z"/>
<path d="M1649 1055 c0 0 -2 -11 -4 -25 -4 -32 12 -97 26 -102 15 -5 -4 -49
-34 -82 -27 -29 -39 -70 -25 -84 7 -7 2 -32 -11 -69 -12 -33 -21 -68 -21 -79
0 -11 -4 -24 -9 -30 -5 -5 -6 -17 -2 -27 7 -18 8 -18 21 -1 9 11 10 15 3 10
-29 -17 -10 11 22 33 27 18 34 29 31 47 -3 13 0 26 5 30 20 12 32 60 33 131 1
40 5 75 9 79 4 4 7 16 7 26 0 11 5 16 10 13 6 -4 8 -11 5 -16 -4 -5 1 -9 9 -9
19 0 21 -16 4 -23 -9 -3 -8 -7 4 -12 14 -6 15 -11 5 -33 -6 -15 -17 -32 -23
-39 -9 -10 -24 -70 -28 -116 -1 -4 -8 -12 -16 -17 -12 -8 -12 -10 -1 -10 11 0
11 -3 1 -15 -11 -13 -10 -14 6 -8 17 6 17 5 5 -10 -7 -9 -10 -17 -6 -17 4 0 1
-8 -6 -17 -11 -15 -11 -16 1 -5 8 6 19 12 25 12 5 0 -4 -13 -20 -28 -17 -15
-26 -24 -21 -19 19 14 28 7 15 -10 -11 -15 -11 -16 1 -5 8 6 19 12 25 12 5 0
-8 -16 -30 -36 l-40 -35 42 28 c37 25 57 68 26 56 -27 -11 -11 8 28 33 22 14
44 22 47 18 4 -4 2 -9 -4 -11 -6 -2 -20 -11 -30 -19 -18 -14 -18 -15 3 -5 28
14 36 14 27 0 -5 -8 -1 -8 14 0 29 15 37 14 22 -4 -11 -13 -10 -14 4 -9 10 4
15 13 12 20 -3 8 3 18 14 24 28 15 38 12 16 -5 -11 -8 -15 -15 -9 -15 13 0 26
18 29 38 3 17 -1 16 -46 -13 -45 -28 -58 -32 -40 -10 9 11 9 15 1 15 -7 0 -9
5 -4 13 4 6 -5 4 -20 -5 -36 -24 -44 -23 -21 4 l19 22 -29 -22 c-40 -30 -58
-28 -21 3 19 16 23 23 11 18 -13 -4 -17 -3 -12 5 5 8 1 10 -11 6 -12 -4 -10 0
7 15 29 24 48 28 30 6 -11 -13 -10 -14 4 -9 10 4 15 12 12 19 -2 7 -2 16 2 20
4 4 7 10 8 13 0 4 3 14 6 22 11 27 26 100 21 100 -2 0 -13 -20 -24 -45 -19
-43 -35 -62 -45 -52 -3 3 9 26 25 53 51 79 45 95 -57 152 -16 9 -22 20 -19 33
3 10 1 19 -5 21 -5 2 -6 11 -3 21 6 15 23 17 124 18 64 1 107 3 96 5 -14 2
-180 9 -226 9z m24 -256 c-8 -29 -13 -23 -13 14 0 22 3 28 9 18 5 -7 6 -22 4
-32z m-31 -37 c-18 -5 -31 9 -14 15 6 3 13 14 13 26 1 16 3 14 8 -8 5 -21 3
-31 -7 -33z m104 -27 c-14 -11 -16 -15 -5 -15 9 0 5 -8 -11 -20 -34 -26 -52
-25 -20 1 16 14 19 19 8 15 -27 -8 -22 1 10 18 35 19 42 19 18 1z m-89 -17
c-1 -13 -11 -31 -22 -40 -11 -10 -15 -17 -10 -18 20 0 13 -35 -11 -53 -13 -10
-24 -13 -24 -7 0 6 7 13 15 16 8 4 15 16 15 27 0 20 0 20 -15 1 -8 -10 -15
-14 -15 -7 0 6 14 25 31 42 20 20 24 29 12 24 -17 -6 -17 -5 1 15 24 27 25 27
23 0z"/>
<path d="M863 1033 c9 -2 25 -2 35 0 9 3 1 5 -18 5 -19 0 -27 -2 -17 -5z"/>
<path d="M2675 1030 c-4 -6 9 -10 31 -10 42 0 42 4 2 14 -15 3 -30 2 -33 -4z"/>
<path d="M18 1023 c6 -2 18 -2 25 0 6 3 1 5 -13 5 -14 0 -19 -2 -12 -5z"/>
<path d="M2623 1018 c0 -7 10 -13 23 -13 17 0 20 3 12 13 -6 6 -16 12 -23 12
-6 0 -12 -6 -12 -12z"/>
<path d="M55 1010 c-3 -5 -13 -6 -22 -3 -10 4 -14 2 -10 -4 4 -6 18 -10 33
-10 18 0 22 2 13 8 -10 6 -8 9 8 9 12 0 25 -4 28 -10 3 -5 1 -10 -6 -10 -7 0
-10 -3 -6 -6 3 -3 11 -3 17 1 8 5 8 11 -1 21 -13 16 -45 19 -54 4z"/>
<path d="M2525 1010 c-4 -6 7 -10 25 -10 18 0 29 4 25 10 -3 6 -15 10 -25 10
-10 0 -22 -4 -25 -10z"/>
<path d="M143 995 c0 -18 19 -15 25 3 2 7 -3 12 -10 12 -8 0 -15 -7 -15 -15z"/>
<path d="M1426 1001 c-4 -6 -2 -19 3 -28 6 -10 11 -12 11 -6 0 9 7 10 26 3 14
-6 30 -7 36 -4 6 4 8 -1 3 -15 -4 -13 -1 -28 6 -37 10 -13 10 -17 -1 -24 -10
-6 -7 -9 11 -12 16 -2 25 -11 27 -25 2 -12 9 -27 17 -33 12 -10 13 -6 5 22
-14 48 -12 58 11 58 19 0 20 -4 14 -42 -9 -52 -2 -48 18 9 12 34 12 40 1 36
-9 -3 -14 2 -14 17 0 19 -1 20 -16 6 -19 -19 -28 -20 -54 -4 -19 12 -19 13 3
25 l22 13 -22 6 c-13 3 -21 9 -19 13 2 3 -12 6 -31 7 -19 0 -38 6 -43 13 -5 9
-10 10 -14 2z"/>
<path d="M2080 995 c-11 -13 -10 -14 4 -9 9 3 16 10 16 15 0 13 -6 11 -20 -6z"/>
<path d="M2113 997 c-6 -9 64 -3 74 6 4 4 -10 6 -31 5 -21 -2 -40 -7 -43 -11z"/>
<path d="M2234 995 c-18 -14 -18 -15 7 -6 14 5 47 7 75 5 40 -3 43 -2 19 5
-48 14 -80 12 -101 -4z"/>
<path d="M653 993 c-7 -2 -13 -11 -13 -19 0 -9 -5 -12 -12 -8 -7 4 -8 3 -4 -4
9 -15 26 -15 26 -1 0 7 8 18 18 25 17 13 9 17 -15 7z"/>
<path d="M1798 993 c7 -3 16 -2 19 1 4 3 -2 6 -13 5 -11 0 -14 -3 -6 -6z"/>
<path d="M2390 991 c8 -6 24 -11 35 -11 17 0 17 -2 5 -10 -13 -8 -13 -10 2
-10 9 0 29 5 44 11 31 11 83 3 68 -11 -5 -4 -35 -10 -67 -13 -32 -2 -61 -8
-65 -12 -10 -11 120 5 134 16 6 5 78 8 160 8 82 -1 183 0 224 1 130 4 18 17
-154 18 -158 1 -347 10 -381 18 -16 4 -17 3 -5 -5z"/>
<path d="M340 981 c0 -6 4 -13 10 -16 6 -3 7 1 4 9 -7 18 -14 21 -14 7z"/>
<path d="M1738 983 c7 -3 16 -2 19 1 4 3 -2 6 -13 5 -11 0 -14 -3 -6 -6z"/>
<path d="M1930 972 c-14 -2 -29 -8 -34 -13 -6 -5 -17 -9 -25 -8 -12 0 -10 3 4
9 13 6 -13 8 -75 8 -52 -1 -87 -3 -77 -5 9 -3 15 -9 12 -14 -4 -5 12 -9 35 -9
30 0 39 3 34 13 -6 9 -5 9 8 0 8 -7 17 -11 19 -8 3 2 30 0 62 -4 31 -4 57 -4
57 0 0 4 -8 10 -17 12 -15 4 -14 5 3 6 11 0 25 -4 32 -11 6 -6 13 -10 16 -7 9
10 -32 34 -54 31z"/>
<path d="M1980 969 c0 -5 5 -7 10 -4 6 3 10 8 10 11 0 2 -4 4 -10 4 -5 0 -10
-5 -10 -11z"/>
<path d="M2089 976 c-2 -2 -19 -6 -38 -8 -19 -2 -37 -10 -39 -16 -2 -7 2 -10
10 -7 7 3 28 7 46 9 24 2 32 -1 33 -13 0 -10 2 -12 6 -3 2 6 8 10 12 8 4 -3 8
1 8 9 0 8 -3 13 -5 10 -3 -3 -10 0 -17 5 -7 5 -14 8 -16 6z"/>
<path d="M2145 970 c-3 -5 7 -8 24 -7 16 1 27 5 24 10 -6 10 -41 9 -48 -3z"/>
<path d="M2313 973 c15 -2 39 -2 55 0 15 2 2 4 -28 4 -30 0 -43 -2 -27 -4z"/>
<path d="M4 962 c3 -5 26 -10 52 -11 59 -2 55 4 -10 13 -28 5 -46 4 -42 -2z"/>
<path d="M575 954 l-30 -14 30 6 c31 6 41 11 34 18 -2 2 -17 -2 -34 -10z"/>
<path d="M1617 963 c-4 -3 -7 -11 -7 -17 0 -6 5 -5 12 2 6 6 9 14 7 17 -3 3
-9 2 -12 -2z"/>
<path d="M2206 954 c-3 -9 -6 -17 -6 -19 0 -2 28 -3 63 -2 34 1 69 -1 77 -5
20 -10 45 6 35 22 -5 7 -10 8 -14 2 -3 -5 -28 -6 -58 -2 -29 3 -53 3 -53 -2 0
-4 -7 -8 -16 -8 -10 0 -14 6 -10 15 3 8 1 15 -3 15 -5 0 -12 -7 -15 -16z"/>
<path d="M429 934 c-25 -14 -11 -17 31 -5 19 5 21 8 9 13 -8 3 -26 0 -40 -8z"/>
<path d="M498 943 c7 -3 16 -2 19 1 4 3 -2 6 -13 5 -11 0 -14 -3 -6 -6z"/>
<path d="M760 940 c-8 -5 -12 -12 -9 -15 4 -3 12 1 19 10 14 17 11 19 -10 5z"/>
<path d="M1010 940 c0 -5 5 -10 11 -10 5 0 7 5 4 10 -3 6 -8 10 -11 10 -2 0
-4 -4 -4 -10z"/>
<path d="M1053 936 c-3 -6 -3 -8 2 -4 4 4 16 3 26 -2 12 -7 19 -6 21 1 3 8 10
6 20 -5 21 -20 38 -21 38 0 0 9 5 14 11 12 6 -2 9 -8 7 -13 -3 -11 39 -22 90
-24 21 -1 31 3 27 10 -4 6 -13 8 -21 5 -8 -3 -14 -1 -14 4 0 6 33 11 73 12
l72 2 -64 3 c-35 2 -71 1 -80 -3 -17 -8 -38 -7 -61 3 -27 12 -140 11 -147 -1z"/>
<path d="M2150 940 c19 -13 30 -13 30 0 0 6 -10 10 -22 10 -19 0 -20 -2 -8
-10z"/>
<path d="M2580 939 c0 -5 5 -7 10 -4 6 3 17 0 25 -8 16 -17 180 -22 169 -6 -3
5 5 9 18 9 14 0 18 -3 12 -8 -7 -4 33 -8 87 -9 78 -1 99 2 99 12 0 11 -22 14
-107 13 -60 -1 -114 -6 -120 -11 -9 -6 -13 -6 -13 2 0 6 -8 11 -17 11 -15 0
-16 -2 -3 -10 12 -8 10 -10 -10 -10 -15 0 -31 5 -38 12 -8 8 -18 9 -34 1 -18
-8 -26 -7 -36 3 -15 17 -42 18 -42 3z"/>
<path d="M0 928 c0 -5 6 -8 14 -8 7 0 28 -3 46 -7 22 -4 31 -3 27 4 -8 13 -87
22 -87 11z"/>
<path d="M655 920 c-14 -16 -15 -23 -6 -34 7 -8 10 -20 6 -26 -3 -5 -1 -10 6
-10 6 0 9 8 6 19 -6 26 -1 27 130 26 75 0 116 -4 124 -12 21 -21 1 -28 -71
-27 -38 0 -67 -4 -64 -8 3 -4 1 -8 -5 -8 -5 0 -12 6 -15 13 -3 9 -9 7 -19 -6
-14 -17 -16 -16 -36 10 -11 15 -21 22 -21 16 0 -12 14 -27 60 -67 22 -19 50
-28 91 -31 22 -1 45 -11 59 -25 21 -21 22 -24 7 -35 -18 -13 -13 -25 10 -25 8
0 13 6 12 13 -3 26 2 37 16 37 24 0 18 13 -21 44 -26 21 -39 25 -47 17 -6 -6
-16 -11 -22 -11 -5 0 -3 5 5 11 12 8 8 10 -17 7 -18 -3 -30 -1 -27 3 2 4 0 10
-6 14 -13 8 -13 25 1 25 5 0 7 -5 3 -11 -4 -8 3 -9 25 -4 20 4 31 3 31 -4 0
-6 18 -11 39 -11 22 0 42 -4 45 -9 3 -4 46 -8 96 -8 69 0 90 3 90 14 0 16 17
18 22 2 3 -8 37 -7 123 4 l120 15 -87 -1 c-47 -1 -84 1 -81 6 2 4 -8 7 -24 7
-32 0 -47 9 -55 31 -5 12 -28 15 -129 17 -68 0 -125 5 -126 9 -4 11 -212 4
-235 -8 -11 -6 -18 -6 -18 0 0 5 9 13 20 16 11 3 20 11 20 16 0 15 -16 10 -35
-11z m331 -39 c-4 -5 -3 -16 0 -25 5 -13 10 -14 20 -5 7 6 19 7 26 3 15 -10
-28 -23 -54 -16 -19 5 -31 39 -14 46 19 8 27 6 22 -3z m179 -28 c19 -14 18
-15 -10 -8 -16 3 -41 8 -55 11 -14 2 -43 8 -65 13 -32 8 -25 9 35 4 42 -3 84
-12 95 -20z m-72 -22 c-4 -3 -11 -10 -15 -14 -3 -5 -11 0 -17 11 -9 17 -7 19
15 14 14 -2 22 -8 17 -11z m-293 -11 c0 -5 -4 -10 -10 -10 -5 0 -10 5 -10 10
0 6 5 10 10 10 6 0 10 -4 10 -10z"/>
<path d="M525 920 c-11 -5 -33 -11 -48 -15 -25 -5 -97 -65 -97 -80 0 -3 10 -5
23 -4 12 0 16 3 9 6 -9 3 -4 10 14 19 15 8 29 12 32 9 3 -2 -2 -7 -11 -11 -11
-4 -13 -10 -6 -17 20 -25 59 -88 59 -97 0 -14 41 -90 49 -90 12 0 51 -67 46
-81 -10 -27 12 -35 144 -53 132 -18 159 -15 141 14 -9 13 -10 13 -10 0 0 -13
-2 -13 -9 0 -6 8 -7 26 -4 41 3 15 0 30 -7 34 -8 5 -10 2 -7 -11 3 -11 0 -32
-8 -49 l-14 -30 1 35 c2 71 -1 78 -19 45 -11 -20 -12 -30 -4 -33 6 -2 11 -11
11 -20 0 -15 -1 -15 -16 0 -15 15 -15 20 -1 61 15 44 15 45 -6 51 -26 7 -33 1
-19 -17 7 -8 9 -29 5 -50 -6 -39 -9 -41 -83 -37 -52 2 -70 9 -70 29 0 9 -7 26
-15 37 -22 29 -18 40 15 40 21 0 29 -4 26 -13 -3 -7 -1 -13 5 -13 5 0 15 -12
21 -27 9 -23 12 -25 15 -10 5 21 -23 87 -37 87 -6 0 -10 5 -10 10 0 20 30 9
47 -17 10 -16 23 -32 30 -36 10 -6 10 -14 -2 -37 -19 -37 -19 -46 1 -29 13 10
17 10 25 -2 7 -11 9 -11 9 4 0 9 -4 17 -10 17 -16 0 -11 18 6 22 12 2 5 13
-24 43 -22 22 -38 43 -35 48 3 4 -19 6 -48 4 -44 -4 -54 -8 -61 -28 l-9 -24
-19 25 c-22 28 -25 40 -9 40 5 0 7 -4 4 -10 -3 -5 -2 -10 3 -10 6 0 12 7 16
15 4 10 -6 20 -32 31 -33 14 -35 17 -17 24 19 8 19 9 -1 9 -12 1 -25 8 -28 17
-5 13 -2 15 14 11 23 -6 26 1 6 17 -8 6 -16 24 -18 41 -2 23 2 32 20 41 22 11
52 35 42 33 -3 0 -14 -4 -25 -9z m102 -246 c-3 -3 -12 -4 -19 -1 -8 3 -5 6 6
6 11 1 17 -2 13 -5z"/>
<path d="M590 920 c0 -5 5 -10 11 -10 5 0 7 5 4 10 -3 6 -8 10 -11 10 -2 0 -4
-4 -4 -10z"/>
<path d="M1903 918 c7 -5 26 -7 42 -6 17 1 44 -1 60 -5 17 -3 48 -2 70 2 l40
9 -55 0 c-30 0 -81 2 -112 4 -31 2 -51 0 -45 -4z"/>
<path d="M2490 926 c0 -7 40 -14 44 -7 3 4 -6 8 -20 9 -13 1 -24 0 -24 -2z"/>
<path d="M2125 910 c-3 -5 -1 -10 4 -10 6 0 11 5 11 10 0 6 -2 10 -4 10 -3 0
-8 -4 -11 -10z"/>
<path d="M2390 916 c0 -2 9 -6 20 -9 11 -3 18 -1 14 4 -5 9 -34 13 -34 5z"/>
<path d="M1316 901 c-4 -5 3 -7 14 -4 23 6 26 13 6 13 -8 0 -17 -4 -20 -9z"/>
<path d="M1858 903 c7 -3 16 -2 19 1 4 3 -2 6 -13 5 -11 0 -14 -3 -6 -6z"/>
<path d="M2178 903 c12 -2 32 -2 45 0 12 2 2 4 -23 4 -25 0 -35 -2 -22 -4z"/>
<path d="M1905 890 c27 -12 43 -12 25 0 -8 5 -22 9 -30 9 -10 0 -8 -3 5 -9z"/>
<path d="M2538 893 c6 -2 18 -2 25 0 6 3 1 5 -13 5 -14 0 -19 -2 -12 -5z"/>
<path d="M575 870 c-39 -26 -26 -26 22 0 21 11 31 20 23 20 -8 0 -28 -9 -45
-20z"/>
<path d="M1790 887 c0 -3 15 -10 32 -16 18 -6 28 -7 23 -2 -12 10 -55 25 -55
18z"/>
<path d="M2035 880 c-7 -11 22 -26 32 -16 4 3 -2 7 -13 7 -12 1 -7 4 11 9 l30
8 -27 1 c-15 0 -30 -4 -33 -9z"/>
<path d="M2110 880 c8 -5 24 -10 35 -10 17 0 17 2 5 10 -8 5 -24 10 -35 10
-17 0 -17 -2 -5 -10z"/>
<path d="M2667 875 c-6 -15 10 -32 20 -21 4 3 1 6 -5 6 -6 0 -9 7 -6 15 4 8 4
15 1 15 -3 0 -7 -7 -10 -15z"/>
<path d="M2698 883 c6 -2 18 -2 25 0 6 3 1 5 -13 5 -14 0 -19 -2 -12 -5z"/>
<path d="M2758 883 c7 -3 16 -2 19 1 4 3 -2 6 -13 5 -11 0 -14 -3 -6 -6z"/>
<path d="M2805 880 c3 -5 8 -10 11 -10 2 0 4 5 4 10 0 6 -5 10 -11 10 -5 0 -7
-4 -4 -10z"/>
<path d="M2913 883 c9 -2 23 -2 30 0 6 3 -1 5 -18 5 -16 0 -22 -2 -12 -5z"/>
<path d="M1324 868 c-3 -4 15 -8 40 -8 25 0 47 4 50 8 3 5 -15 9 -40 9 -25 0
-47 -4 -50 -9z"/>
<path d="M2179 872 c9 -7 10 -11 2 -15 -7 -4 -8 -5 0 -3 15 2 13 20 -3 24 -10
3 -10 2 1 -6z"/>
<path d="M2350 876 c0 -2 13 -6 29 -8 17 -2 28 -1 25 4 -5 8 -54 12 -54 4z"/>
<path d="M1944 861 c18 -7 66 -3 66 5 0 2 -19 4 -42 3 -31 0 -37 -3 -24 -8z"/>
<path d="M2250 860 c0 -5 7 -7 15 -4 8 4 15 8 15 10 0 2 -7 4 -15 4 -8 0 -15
-4 -15 -10z"/>
<path d="M2595 859 c-28 -6 -26 -7 13 -8 42 -1 53 3 30 11 -7 2 -26 1 -43 -3z"/>
<path d="M2893 863 c9 -2 23 -2 30 0 6 3 -1 5 -18 5 -16 0 -22 -2 -12 -5z"/>
<path d="M2430 850 c8 -5 20 -10 25 -10 6 0 3 5 -5 10 -8 5 -19 10 -25 10 -5
0 -3 -5 5 -10z"/>
<path d="M2806 850 c-11 -4 -15 -9 -9 -13 11 -7 64 1 73 10 3 3 -5 4 -17 1
-12 -3 -23 -2 -25 2 -2 4 -12 4 -22 0z"/>
<path d="M2958 848 c17 -8 26 -8 34 0 9 9 4 12 -22 11 -33 0 -34 -1 -12 -11z"/>
<path d="M594 835 c-10 -8 -14 -15 -8 -15 6 0 17 7 24 15 16 19 9 19 -16 0z"/>
<path d="M1900 834 c0 -8 5 -12 10 -9 6 4 17 1 25 -5 8 -7 15 -9 15 -5 0 9
-31 34 -42 35 -5 0 -8 -7 -8 -16z"/>
<path d="M140 829 c0 -5 5 -7 10 -4 6 3 10 8 10 11 0 2 -4 4 -10 4 -5 0 -10
-5 -10 -11z"/>
<path d="M1805 828 c-22 -59 -32 -108 -22 -108 6 0 2 -7 -9 -15 -10 -8 -14
-15 -7 -15 6 0 15 5 18 10 3 6 11 10 16 10 6 0 7 -5 3 -11 -4 -7 1 -7 16 1 36
19 34 4 -3 -19 -37 -23 -52 -27 -42 -11 3 6 2 10 -4 10 -5 0 -9 -9 -8 -20 1
-11 2 -20 3 -20 2 0 26 14 54 32 35 22 47 34 38 40 -10 6 -10 8 0 8 8 0 12 17
12 50 0 31 -4 50 -12 50 -6 0 -8 -3 -5 -7 4 -3 0 -17 -8 -30 -10 -15 -12 -23
-4 -23 8 0 8 -4 -1 -15 -11 -13 -10 -15 6 -9 18 5 18 5 0 -10 -22 -18 -41 -21
-31 -6 3 6 -1 7 -9 4 -21 -8 -21 19 -1 36 8 6 14 15 13 18 -1 4 3 17 10 28 11
21 7 34 -10 34 -5 0 -11 -6 -13 -12z"/>
<path d="M1858 833 c7 -3 16 -2 19 1 4 3 -2 6 -13 5 -11 0 -14 -3 -6 -6z"/>
<path d="M2213 833 c9 -2 23 -2 30 0 6 3 -1 5 -18 5 -16 0 -22 -2 -12 -5z"/>
<path d="M2480 830 c-23 -7 -23 -8 -3 -9 12 -1 25 4 28 9 3 6 5 10 3 9 -2 -1
-14 -5 -28 -9z"/>
<path d="M2713 833 c9 -2 25 -2 35 0 9 3 1 5 -18 5 -19 0 -27 -2 -17 -5z"/>
<path d="M2408 823 c6 -2 18 -2 25 0 6 3 1 5 -13 5 -14 0 -19 -2 -12 -5z"/>
<path d="M2528 823 c7 -3 16 -2 19 1 4 3 -2 6 -13 5 -11 0 -14 -3 -6 -6z"/>
<path d="M2658 823 c6 -2 18 -2 25 0 6 3 1 5 -13 5 -14 0 -19 -2 -12 -5z"/>
<path d="M2878 823 c6 -2 18 -2 25 0 6 3 1 5 -13 5 -14 0 -19 -2 -12 -5z"/>
<path d="M79 803 c-13 -16 -12 -17 4 -4 9 7 17 15 17 17 0 8 -8 3 -21 -13z"/>
<path d="M1967 807 c-4 -11 9 -11 65 -4 39 5 91 5 117 1 25 -4 49 -7 54 -6 4
1 7 -3 7 -9 0 -6 9 -8 21 -4 15 5 19 4 15 -4 -4 -6 -2 -11 4 -11 7 0 10 -7 7
-14 -4 -10 -1 -13 9 -9 10 4 11 9 5 17 -7 8 -4 16 10 25 12 7 24 10 27 7 3 -3
0 -6 -6 -6 -7 0 -12 -5 -12 -11 0 -7 12 -9 34 -5 20 4 37 2 41 -4 3 -5 15 -10
26 -10 11 0 18 4 14 10 -3 6 16 7 52 4 152 -14 203 -14 203 1 0 17 -31 20 -46
5 -6 -6 -21 -6 -42 -1 -23 7 -32 6 -32 -2 0 -8 -3 -8 -12 1 -7 7 -44 12 -94
12 -46 0 -85 4 -88 8 -3 5 -20 7 -38 5 -18 -2 -37 -4 -43 -4 -5 -1 -34 4 -64
10 -77 16 -228 14 -234 -2z"/>
<path d="M2570 810 c17 -11 77 -14 67 -3 -4 3 -24 8 -45 10 -27 2 -33 1 -22
-7z"/>
<path d="M2828 813 c6 -2 18 -2 25 0 6 3 1 5 -13 5 -14 0 -19 -2 -12 -5z"/>
<path d="M2970 810 c0 -5 7 -7 15 -4 8 4 15 8 15 10 0 2 -7 4 -15 4 -8 0 -15
-4 -15 -10z"/>
<path d="M610 800 c0 -5 7 -7 15 -4 8 4 15 8 15 10 0 2 -7 4 -15 4 -8 0 -15
-4 -15 -10z"/>
<path d="M2508 803 c6 -2 18 -2 25 0 6 3 1 5 -13 5 -14 0 -19 -2 -12 -5z"/>
<path d="M2690 801 c25 -3 44 -10 43 -16 -2 -5 3 -10 10 -11 6 0 23 -2 37 -3
l25 -2 -23 -11 c-26 -13 -24 -32 4 -35 16 -2 16 -1 1 3 -9 3 -15 10 -12 15 9
13 49 11 64 -3 11 -11 11 -9 0 9 -7 12 -16 20 -20 17 -4 -2 -10 3 -13 12 -5
12 -1 14 17 9 19 -5 19 -4 5 5 -13 8 -23 7 -36 -1 -15 -10 -24 -9 -43 4 -14
10 -40 16 -64 15 l-40 -1 45 -6z"/>
<path d="M650 793 c0 -7 5 -15 11 -19 8 -5 8 -9 -1 -14 -8 -5 3 -17 35 -35 35
-21 43 -30 33 -37 -9 -7 -8 -8 5 -4 10 3 23 6 28 6 6 0 7 6 3 13 -6 9 -4 9 8
-1 21 -17 53 -5 37 14 -6 7 -8 18 -4 24 3 5 -1 10 -10 10 -10 0 -14 -5 -10
-12 4 -7 -5 0 -19 17 -14 16 -28 26 -32 22 -4 -4 1 -16 11 -27 26 -28 14 -34
-31 -15 -37 16 -38 17 -20 31 20 14 20 14 0 14 -11 0 -25 5 -32 12 -9 9 -12 9
-12 1z"/>
<path d="M940 790 c0 -6 7 -10 15 -10 8 0 15 2 15 4 0 2 -7 6 -15 10 -8 3 -15
1 -15 -4z"/>
<path d="M1293 793 c9 -2 23 -2 30 0 6 3 -1 5 -18 5 -16 0 -22 -2 -12 -5z"/>
<path d="M2095 790 c-3 -6 1 -7 9 -4 18 7 21 14 7 14 -6 0 -13 -4 -16 -10z"/>
<path d="M1219 785 c-3 -2 -36 -6 -74 -7 -41 -2 -70 -8 -72 -15 -5 -13 32 -11
131 6 64 11 84 21 44 21 -13 0 -27 -2 -29 -5z"/>
<path d="M1912 780 c2 -24 -4 -50 -11 -50 -6 0 -8 9 -6 20 2 11 0 20 -5 20
-10 0 -5 -124 6 -141 3 -5 1 -9 -4 -9 -5 0 -8 -10 -6 -22 1 -13 3 -26 3 -30 1
-5 6 -8 12 -8 5 0 8 3 6 8 -3 4 -1 16 4 27 5 14 8 2 8 -38 1 -37 -3 -56 -9
-52 -6 4 -7 11 -4 17 4 7 2 8 -5 4 -6 -4 -8 -13 -4 -19 4 -7 6 -22 4 -35 -2
-21 -1 -22 18 -10 14 9 17 14 8 20 -7 4 -7 8 -2 8 6 0 9 31 8 78 -4 189 -3
206 9 213 8 5 5 8 -9 6 -12 0 -21 -4 -21 -7z"/>
<path d="M2066 776 c6 -16 92 -38 110 -28 10 5 3 8 -20 9 -19 1 -48 8 -65 16
-20 10 -28 11 -25 3z"/>
<path d="M2140 781 c0 -5 9 -7 20 -4 11 3 20 7 20 9 0 2 -9 4 -20 4 -11 0 -20
-4 -20 -9z"/>
<path d="M2685 780 c-3 -5 -2 -10 4 -10 5 0 13 5 16 10 3 6 2 10 -4 10 -5 0
-13 -4 -16 -10z"/>
<path d="M2945 783 c37 -3 45 -7 35 -14 -11 -7 -11 -9 -2 -7 33 9 13 23 -33
24 l-50 1 50 -4z"/>
<path d="M1025 771 c-3 -6 3 -9 14 -8 11 0 17 5 15 9 -7 11 -22 10 -29 -1z"/>
<path d="M1288 773 c-28 -7 -21 -21 7 -15 14 2 22 8 19 13 -3 5 -6 8 -7 8 -1
-1 -10 -3 -19 -6z"/>
<path d="M1546 763 c-6 -14 -5 -15 5 -6 7 7 10 15 7 18 -3 3 -9 -2 -12 -12z"/>
<path d="M1976 740 c9 -22 14 -50 11 -62 -4 -12 -2 -27 4 -34 7 -9 5 -22 -5
-43 -20 -38 -20 -52 -1 -27 8 11 15 14 15 8 0 -17 0 -18 10 -52 5 -19 5 -28
-1 -25 -5 4 -9 -1 -9 -10 0 -9 5 -13 10 -10 6 3 10 0 11 -7 0 -7 2 -26 5 -43
2 -16 4 -39 4 -49 1 -10 8 -32 16 -48 9 -17 13 -37 9 -46 -5 -14 -4 -15 6 -5
7 7 21 13 32 13 17 0 17 -2 -4 -31 l-22 -31 -22 26 c-33 39 -50 31 -19 -9 14
-19 31 -32 37 -28 7 4 8 0 3 -13 -5 -10 -14 -40 -21 -65 -7 -25 -17 -55 -23
-65 -10 -16 -12 -12 -13 26 -1 25 -1 63 0 86 3 43 -15 95 -43 129 -16 19 -16
18 -3 -10 23 -48 16 -137 -14 -172 -14 -17 -33 -29 -42 -27 -9 1 -15 -2 -11
-7 3 -5 11 -7 17 -3 7 3 5 0 -3 -8 -18 -15 -40 -62 -40 -83 0 -29 19 -14 26
20 4 26 20 46 56 77 l51 42 -5 -59 c-3 -33 -9 -68 -13 -77 -4 -11 -3 -18 4
-18 6 0 11 7 11 15 0 9 19 36 41 60 23 25 39 48 35 52 -3 3 -6 1 -6 -5 0 -7
-5 -12 -10 -12 -7 0 -7 6 -2 18 8 15 24 84 22 97 0 3 7 19 15 35 12 24 21 29
40 26 14 -3 28 0 31 6 4 7 2 8 -4 4 -16 -10 -15 -3 5 39 10 20 20 30 23 24 5
-7 9 -5 13 6 4 9 3 13 -3 10 -6 -3 -10 -1 -10 6 0 9 -3 9 -14 0 -17 -15 -24 0
-22 51 1 27 -1 34 -10 27 -9 -7 -15 0 -24 26 -6 19 -16 33 -21 30 -5 -4 -6 1
-2 11 5 14 8 13 19 -7 7 -13 14 -19 14 -14 0 6 5 3 10 -5 5 -8 10 -10 10 -5 0
14 -19 42 -21 30 0 -5 -8 8 -18 29 -14 32 -19 36 -24 22 -4 -10 -3 -15 3 -11
12 8 13 -5 1 -24 -14 -22 -24 24 -11 49 13 25 3 71 -11 49 -7 -12 -9 -11 -9 1
-1 12 -3 11 -11 -3 -8 -13 -6 -29 5 -58 9 -22 13 -45 10 -51 -5 -7 -2 -8 6 -3
9 6 12 4 8 -6 -6 -16 16 -41 27 -31 4 4 1 -3 -6 -16 -12 -19 -12 -24 1 -32 8
-5 18 -6 22 -4 4 3 8 1 8 -5 0 -15 -18 -23 -22 -9 -3 7 -7 3 -10 -9 -3 -12 -3
-22 1 -21 22 2 32 -4 27 -18 -3 -8 -2 -13 2 -10 4 2 14 1 22 -5 13 -7 12 -9
-2 -9 -10 0 -18 -4 -18 -10 0 -5 7 -7 15 -4 11 4 13 2 10 -9 -4 -10 -18 -14
-43 -12 -52 4 -51 3 -50 23 0 9 -3 33 -6 52 -4 19 -9 53 -12 75 -2 22 -12 87
-21 145 -8 58 -16 112 -16 121 -1 9 -7 15 -14 12 -8 -3 -13 3 -13 16 0 12 -4
21 -10 21 -5 0 -3 -18 6 -40z m95 -119 c7 12 9 11 9 -1 0 -8 -5 -22 -10 -30
-6 -9 -10 -10 -10 -3 0 6 -2 17 -3 25 -2 7 -2 9 1 4 2 -4 8 -2 13 5z"/>
<path d="M20 765 c0 -3 16 -43 35 -89 19 -47 35 -91 35 -98 0 -7 18 -31 40
-52 33 -33 49 -41 96 -47 32 -4 60 -12 63 -18 8 -13 111 -26 111 -14 0 8 -14
11 -60 14 -9 0 -20 10 -25 21 -6 11 -13 20 -18 19 -9 -2 -107 48 -107 54 0 3
33 2 73 -1 39 -4 70 -4 67 -1 -9 10 -149 24 -144 15 3 -4 1 -8 -5 -8 -6 0 -8
-7 -4 -16 4 -11 2 -15 -6 -13 -7 3 -11 8 -9 13 2 5 -7 12 -20 17 -12 5 -24 14
-26 21 -15 57 -33 100 -59 141 -28 44 -37 54 -37 42z m180 -245 c0 -5 -7 -10
-16 -10 -8 0 -12 5 -9 10 3 6 10 10 16 10 5 0 9 -4 9 -10z"/>
<path d="M613 755 c0 -8 4 -12 9 -9 5 3 6 10 3 15 -9 13 -12 11 -12 -6z"/>
<path d="M2840 765 c0 -10 29 -24 34 -17 3 6 -3 12 -14 15 -11 3 -20 4 -20 2z"/>
<path d="M370 739 c-14 -11 -19 -18 -11 -14 7 4 17 1 23 -6 7 -11 8 -9 6 6 -3
20 3 22 50 11 12 -3 22 -1 22 5 0 5 -9 9 -19 9 -11 0 -25 2 -33 5 -7 2 -24 -5
-38 -16z"/>
<path d="M855 750 c-3 -5 1 -10 10 -10 9 0 13 5 10 10 -3 6 -8 10 -10 10 -2 0
-7 -4 -10 -10z"/>
<path d="M1805 750 c-3 -5 -2 -10 4 -10 5 0 13 5 16 10 3 6 2 10 -4 10 -5 0
-13 -4 -16 -10z"/>
<path d="M2029 747 c6 -9 23 -12 43 -9 28 4 30 6 13 13 -11 4 -31 8 -44 8 -18
1 -21 -2 -12 -12z"/>
<path d="M2315 751 c-3 -5 -1 -12 5 -16 5 -3 10 -1 10 5 0 6 11 8 28 5 22 -4
24 -4 7 4 -26 13 -43 13 -50 2z"/>
<path d="M2432 748 c3 -7 23 -14 48 -16 39 -3 41 -2 27 12 -17 18 -32 21 -22
6 8 -13 -11 -13 -37 1 -16 9 -19 8 -16 -3z"/>
<path d="M2685 749 c-16 -4 -25 -7 -20 -8 6 -1 3 -6 -5 -11 -9 -6 -10 -10 -3
-10 6 0 15 5 18 10 3 6 16 10 27 10 21 0 21 0 2 -21 -19 -21 -19 -21 0 -18 22
5 41 45 23 51 -7 2 -25 1 -42 -3z"/>
<path d="M2913 746 c-18 -5 -33 -12 -33 -15 0 -4 15 -8 33 -9 17 -1 39 -5 49
-8 9 -2 19 -1 22 4 3 6 0 10 -7 9 -36 -1 -70 4 -64 10 4 3 25 6 47 5 22 -1 40
0 40 2 0 9 -58 11 -87 2z"/>
<path d="M955 734 c-20 -16 -20 -16 1 -12 11 2 21 -1 22 -7 0 -5 -5 -9 -13 -7
-7 1 -17 -3 -21 -9 -4 -7 -3 -9 3 -6 6 4 16 0 23 -8 10 -13 9 -15 -9 -15 -25
0 -29 -19 -3 -19 43 -1 53 -5 48 -18 -4 -9 5 -13 32 -13 20 0 32 4 26 8 -11 7
-2 52 10 52 3 0 3 -7 0 -15 -4 -10 0 -15 11 -15 9 0 13 4 10 10 -3 6 1 7 9 4
19 -7 22 -34 4 -34 -6 0 -8 -3 -5 -6 4 -4 12 -2 20 4 8 7 18 7 27 2 9 -5 19
-5 27 1 7 6 17 8 22 5 5 -4 12 -2 16 4 7 12 -38 24 -65 17 -12 -3 -18 -1 -14
5 8 13 -14 28 -42 28 -12 0 -27 7 -35 16 -12 14 -7 16 42 14 78 -3 95 -1 84 9
-6 5 -40 6 -80 2 -50 -5 -76 -4 -95 6 -31 16 -30 16 -55 -3z m100 -45 c9 -14
-31 -38 -53 -32 -19 5 -20 8 -10 21 10 12 10 14 1 8 -7 -4 -13 -2 -13 4 0 11
68 11 75 -1z"/>
<path d="M1010 681 c0 -6 4 -13 10 -16 6 -3 7 1 4 9 -7 18 -14 21 -14 7z"/>
<path d="M1364 739 c-3 -6 -2 -15 3 -20 5 -5 9 -1 10 11 2 22 -2 25 -13 9z"/>
<path d="M2538 743 c7 -3 16 -2 19 1 4 3 -2 6 -13 5 -11 0 -14 -3 -6 -6z"/>
<path d="M270 736 c0 -2 7 -7 16 -10 8 -3 12 -2 9 4 -6 10 -25 14 -25 6z"/>
<path d="M605 730 c-28 -8 -27 -8 10 -7 23 0 48 -3 55 -7 8 -4 6 0 -4 8 -11 9
-22 15 -25 15 -3 -1 -19 -5 -36 -9z"/>
<path d="M1258 733 c7 -3 16 -2 19 1 4 3 -2 6 -13 5 -11 0 -14 -3 -6 -6z"/>
<path d="M1401 718 c0 -16 2 -28 7 -28 11 1 42 26 42 36 0 4 -5 3 -12 -4 -17
-17 -26 -15 -31 6 -3 10 -5 6 -6 -10z"/>
<path d="M2175 729 c-4 -6 -5 -13 -2 -15 3 -3 -4 -15 -15 -26 -11 -11 -22 -17
-25 -14 -7 6 -43 -12 -43 -22 0 -4 32 -56 70 -116 39 -61 70 -104 70 -98 0 14
72 16 86 2 13 -13 146 -19 214 -10 l55 8 -60 0 c-88 0 -158 11 -176 28 -8 8
-29 14 -46 14 -20 0 -36 8 -46 23 -16 22 -16 22 -17 -13 0 -23 -3 -30 -9 -22
-4 8 -12 13 -17 12 -5 -1 -10 3 -12 9 -2 6 1 11 7 11 19 0 12 18 -10 25 -11 4
-24 18 -29 31 -5 13 -14 24 -20 24 -5 0 -10 5 -10 11 0 7 10 5 26 -6 24 -16
26 -16 39 1 11 16 10 20 -4 31 -14 11 -14 12 4 13 17 0 17 2 5 10 -23 15 -29
12 -25 -10 2 -13 -2 -20 -11 -20 -8 0 -14 7 -14 16 0 10 -7 14 -22 12 -11 -2
-23 2 -25 8 -5 15 62 25 92 14 13 -5 29 -18 35 -30 13 -24 27 -26 27 -5 0 8
-6 15 -13 15 -10 0 -11 6 -4 26 9 22 8 25 -4 21 -9 -4 -18 -2 -21 4 -4 5 -11
6 -17 3 -7 -5 -9 2 -6 20 5 26 -14 37 -27 15z"/>
<path d="M2574 726 c-3 -8 -12 -12 -20 -9 -7 3 -21 -3 -31 -12 -16 -17 -16
-17 2 -12 11 3 37 9 58 13 30 5 35 9 26 20 -15 18 -28 18 -35 0z"/>
<path d="M7 724 c-4 -4 -7 -19 -7 -33 1 -23 2 -24 11 -8 11 19 9 53 -4 41z"/>
<path d="M2050 719 c0 -5 -6 -7 -12 -3 -7 4 -9 3 -5 -1 13 -15 35 -14 41 1 3
8 -1 14 -9 14 -8 0 -15 -5 -15 -11z"/>
<path d="M2103 710 c1 -11 5 -20 10 -20 5 0 7 6 4 14 -3 8 -1 17 6 20 7 2 5 5
-5 5 -11 1 -16 -6 -15 -19z"/>
<path d="M2220 720 c0 -5 5 -10 10 -10 6 0 10 5 10 10 0 6 -4 10 -10 10 -5 0
-10 -4 -10 -10z"/>
<path d="M840 710 c0 -5 5 -10 11 -10 5 0 7 5 4 10 -3 6 -8 10 -11 10 -2 0 -4
-4 -4 -10z"/>
<path d="M2261 711 c-10 -6 -10 -10 -1 -16 13 -8 24 -1 19 14 -3 6 -10 7 -18
2z"/>
<path d="M2342 708 c-7 -7 -12 -18 -12 -25 0 -21 -17 -15 -24 10 l-6 22 -15
-25 c-21 -36 -19 -39 23 -36 20 2 39 0 42 -5 3 -4 28 -4 55 0 28 5 44 9 37 10
-7 0 -11 5 -7 10 3 5 -4 12 -15 16 -11 3 -20 13 -20 21 0 17 -41 19 -58 2z"/>
<path d="M2431 713 c-1 -18 18 -26 34 -13 8 6 19 9 24 6 5 -4 12 -2 16 4 4 6
-6 10 -25 10 -18 0 -29 -4 -25 -10 3 -5 2 -10 -4 -10 -5 0 -12 6 -14 13 -4 9
-6 9 -6 0z"/>
<path d="M2795 710 l-60 -7 68 -1 c43 -1 66 2 62 8 -3 6 -7 9 -8 8 -1 -1 -29
-4 -62 -8z"/>
<path d="M345 699 c-11 -16 -1 -19 13 -3 7 8 8 14 3 14 -5 0 -13 -5 -16 -11z"/>
<path d="M1952 633 c-2 -73 -1 -76 13 -53 17 29 20 52 4 30 -9 -12 -10 -12 -5
3 3 10 6 21 6 23 0 3 5 2 12 -2 7 -4 8 -3 4 5 -4 6 -11 9 -16 6 -5 -3 -6 10
-3 30 3 19 1 35 -4 35 -5 0 -10 -35 -11 -77z"/>
<path d="M866 692 c-3 -5 1 -9 9 -9 8 0 12 4 9 9 -3 4 -7 8 -9 8 -2 0 -6 -4
-9 -8z"/>
<path d="M1164 687 c-4 -7 -4 -9 1 -5 4 4 14 3 22 -3 8 -7 13 -8 13 -1 0 15
-28 23 -36 9z"/>
<path d="M1216 685 c4 -8 10 -15 15 -15 4 0 6 7 3 15 -4 8 -10 15 -15 15 -4 0
-6 -7 -3 -15z"/>
<path d="M1445 675 c2 -17 -1 -22 -11 -18 -8 3 -11 10 -7 17 3 6 2 7 -2 3 -13
-11 -15 -37 -3 -37 6 0 6 -6 -2 -15 -7 -8 -16 -13 -19 -10 -4 2 -8 -3 -8 -11
0 -11 6 -9 23 7 13 12 21 26 18 30 -3 5 2 6 11 3 14 -6 13 -10 -7 -33 l-23
-26 27 24 c19 17 25 28 19 40 -5 9 -6 21 -4 28 2 6 0 14 -5 17 -5 3 -8 -5 -7
-19z"/>
<path d="M2072 688 c-7 -7 -12 -16 -12 -21 0 -5 7 -1 16 8 9 9 14 18 12 20 -2
3 -10 -1 -16 -7z"/>
<path d="M2608 693 c6 -2 18 -2 25 0 6 3 1 5 -13 5 -14 0 -19 -2 -12 -5z"/>
<path d="M2853 674 c-18 -14 -38 -22 -44 -19 -6 5 -4 12 8 21 16 13 15 13 -9
3 -30 -13 -37 -29 -13 -29 26 0 16 -18 -15 -29 -18 -6 -28 -6 -25 -1 4 6 1 10
-4 10 -6 0 -11 5 -11 11 0 6 7 9 15 5 24 -9 17 12 -10 30 -21 14 -28 14 -42 3
-14 -12 -16 -12 -8 0 6 11 4 13 -9 8 -10 -4 -22 -7 -27 -7 -5 0 -9 -7 -9 -16
0 -12 -7 -15 -25 -12 -13 3 -27 0 -30 -6 -3 -6 -4 -2 -2 9 3 15 -2 21 -15 22
-10 1 -16 -2 -13 -7 3 -6 -1 -7 -9 -4 -11 4 -16 0 -16 -10 0 -10 -9 -16 -24
-16 -20 0 -25 -7 -31 -37 -4 -21 -14 -50 -22 -67 -15 -28 -15 -29 9 -23 12 4
38 7 56 7 30 0 35 5 49 40 l16 39 24 -19 c13 -10 39 -24 58 -30 30 -10 34 -15
40 -61 5 -39 10 -49 22 -45 8 3 17 6 21 6 3 0 -2 6 -12 13 -14 10 -6 11 48 3
78 -12 74 -30 -6 -28 -40 1 -49 -1 -36 -8 19 -12 98 -9 98 3 0 4 7 7 16 7 11
0 14 5 10 16 -9 22 32 8 63 -22 18 -19 27 -22 37 -13 9 7 14 8 14 1 0 -21 -59
-24 -97 -4 -14 8 -24 9 -28 2 -3 -5 -19 -10 -36 -10 -16 0 -29 -4 -29 -9 0
-13 30 -22 43 -14 7 4 45 6 85 4 l72 -3 0 27 c0 20 -4 26 -15 21 -22 -8 -43 3
-40 22 1 9 -2 25 -7 35 -5 11 -5 17 2 17 5 0 10 7 10 15 0 10 -10 15 -30 15
-17 0 -41 7 -54 15 -12 8 -47 17 -77 20 -29 2 -55 9 -57 15 -2 5 -11 10 -19
10 -13 0 -13 -3 -2 -16 7 -9 14 -25 16 -36 3 -18 -2 -16 -32 11 -20 17 -47 31
-60 31 -26 0 -34 15 -12 23 6 2 -2 4 -20 4 -18 0 -30 -4 -27 -9 3 -4 -4 -8
-15 -8 -14 0 -21 6 -21 20 0 17 6 19 54 15 30 -2 64 -8 75 -14 11 -6 27 -8 36
-5 9 4 21 -1 29 -11 9 -13 25 -18 54 -17 23 1 51 -2 64 -7 13 -5 27 -9 32 -9
5 0 12 -6 17 -13 4 -8 11 -10 15 -6 4 3 1 13 -6 22 -11 13 -10 15 6 9 16 -5
16 -4 4 5 -8 6 -39 11 -68 11 -50 0 -52 1 -40 20 7 11 16 20 21 20 4 0 6 -3 4
-7 -3 -5 9 -8 26 -9 18 0 55 -4 84 -8 l51 -8 -1 36 c-1 41 -14 45 -61 21 -27
-14 -28 -14 -23 4 4 16 -10 32 -26 31 -1 0 -17 -12 -34 -26z m-153 -28 c0 -6
5 -4 10 4 8 13 10 12 10 -2 0 -21 -20 -24 -38 -6 -17 17 -15 29 3 22 8 -4 15
-11 15 -18z m-150 -79 c0 -13 -31 -36 -48 -37 -14 0 -8 34 11 58 11 13 37 -1
37 -21z m305 -34 c11 -10 29 -18 40 -18 32 0 24 -30 -7 -31 -22 -1 -28 4 -28
19 0 15 -3 17 -13 8 -9 -6 -31 -8 -58 -5 -52 7 -51 7 -44 26 9 22 86 23 110 1z"/>
<path d="M2831 524 c0 -11 3 -14 6 -6 3 7 2 16 -1 19 -3 4 -6 -2 -5 -13z"/>
<path d="M760 680 c-9 -6 -10 -10 -3 -10 6 0 15 5 18 10 8 12 4 12 -15 0z"/>
<path d="M795 673 c-19 -15 -19 -15 11 -10 29 6 31 4 26 -21 -5 -25 -4 -26 12
-9 11 11 26 15 37 12 11 -4 19 -2 19 4 0 6 -8 11 -17 11 -10 0 -27 7 -37 15
-24 18 -26 18 -51 -2z"/>
<path d="M1854 674 c-18 -14 -18 -15 4 -4 12 6 22 13 22 15 0 8 -5 6 -26 -11z"/>
<path d="M2478 683 c7 -3 16 -2 19 1 4 3 -2 6 -13 5 -11 0 -14 -3 -6 -6z"/>
<path d="M2620 669 c0 -5 5 -7 10 -4 6 3 10 8 10 11 0 2 -4 4 -10 4 -5 0 -10
-5 -10 -11z"/>
<path d="M2465 660 c-3 -5 1 -10 9 -10 8 0 18 5 21 10 3 6 -1 10 -9 10 -8 0
-18 -4 -21 -10z"/>
<path d="M1378 653 c6 -2 9 -10 6 -15 -4 -7 -2 -8 5 -4 13 9 5 26 -12 25 -9 0
-8 -2 1 -6z"/>
<path d="M920 633 c0 -27 14 -37 36 -25 14 8 14 10 0 21 -9 8 -16 10 -16 5 0
-5 -5 -2 -10 6 -8 12 -10 11 -10 -7z"/>
<path d="M1277 644 c-3 -4 -2 -15 4 -26 5 -10 7 -24 3 -30 -5 -7 -3 -8 6 -3
10 6 12 4 6 -11 -5 -14 -4 -16 4 -8 9 9 8 19 -4 42 -8 16 -12 32 -9 36 4 3 4
6 1 6 -2 0 -8 -3 -11 -6z"/>
<path d="M1343 635 c1 -14 -4 -20 -15 -19 -11 1 -15 -3 -11 -10 4 -6 8 -17 10
-25 2 -18 36 -64 50 -68 16 -6 22 31 6 45 -7 7 -10 18 -7 24 4 6 3 8 -2 5 -6
-3 -16 -2 -24 3 -12 7 -11 13 5 31 11 12 15 19 8 16 -6 -4 -14 -1 -17 5 -3 7
-4 4 -3 -7z m22 -75 c10 -11 13 -20 7 -20 -6 0 -16 9 -22 20 -6 11 -9 20 -7
20 2 0 12 -9 22 -20z"/>
<path d="M1795 640 c-3 -5 -1 -10 5 -10 6 0 8 -5 4 -11 -4 -8 0 -8 15 0 25 14
28 23 4 14 -11 -4 -14 -3 -9 5 4 7 3 12 -3 12 -5 0 -13 -4 -16 -10z"/>
<path d="M2460 630 c0 -5 5 -10 11 -10 5 0 7 5 4 10 -3 6 -8 10 -11 10 -2 0
-4 -4 -4 -10z"/>
<path d="M495 620 c-3 -6 1 -7 9 -4 18 7 21 14 7 14 -6 0 -13 -4 -16 -10z"/>
<path d="M2278 610 c-7 -11 -18 -20 -25 -20 -7 0 -17 -9 -23 -20 -6 -11 -16
-20 -23 -20 -8 0 -7 4 3 11 12 9 12 10 -3 5 -10 -3 -21 -6 -23 -6 -2 0 -4 -4
-4 -9 0 -18 40 -19 53 -2 14 21 47 35 47 20 0 -5 15 -9 33 -8 17 0 43 -2 57
-6 32 -8 39 -9 70 -5 20 2 17 4 -15 12 -22 5 -47 9 -57 9 -9 0 -22 14 -28 30
-14 34 -44 38 -62 9z"/>
<path d="M2400 620 c-7 -4 -19 -6 -27 -3 -7 3 -13 -1 -13 -8 0 -7 3 -10 6 -6
3 3 15 -4 27 -16 l22 -22 3 23 c2 12 7 22 12 22 5 0 7 -7 4 -15 -5 -11 -2 -13
10 -9 9 4 15 11 13 17 -5 15 -42 26 -57 17z"/>
<path d="M15 613 c3 -7 1 -13 -4 -13 -6 0 -11 -8 -11 -17 0 -15 2 -16 10 -3 8
12 12 9 22 -17 7 -18 18 -33 24 -33 7 0 18 -13 26 -30 7 -16 18 -32 25 -34 13
-5 -23 60 -38 70 -5 3 -6 10 -3 16 4 7 2 8 -4 4 -7 -4 -12 -1 -12 6 0 7 -10
24 -21 38 -11 14 -18 19 -14 13z"/>
<path d="M886 605 c4 -8 8 -15 10 -15 2 0 4 7 4 15 0 8 -4 15 -10 15 -5 0 -7
-7 -4 -15z"/>
<path d="M1140 613 c0 -4 5 -15 10 -23 8 -13 10 -13 10 2 0 9 -4 20 -10 23 -5
3 -10 3 -10 -2z"/>
<path d="M1440 589 c-19 -16 -27 -27 -17 -23 9 3 17 3 17 -1 0 -4 -8 -14 -17
-21 -17 -13 -17 -14 1 -7 14 5 17 3 11 -7 -5 -8 -4 -11 2 -7 6 4 9 17 9 29 -1
13 7 33 18 46 27 30 18 27 -24 -9z"/>
<path d="M2640 610 c0 -6 7 -10 15 -10 8 0 15 2 15 4 0 2 -7 6 -15 10 -8 3
-15 1 -15 -4z"/>
<path d="M1096 599 c3 -5 0 -9 -6 -9 -7 0 -5 -7 4 -16 9 -8 16 -20 16 -26 0
-6 6 -5 15 2 13 11 13 15 3 21 -11 7 -11 9 0 9 19 0 6 17 -18 23 -11 3 -18 1
-14 -4z"/>
<path d="M469 583 c-13 -16 -12 -17 4 -4 9 7 17 15 17 17 0 8 -8 3 -21 -13z"/>
<path d="M978 588 c9 -9 15 -9 24 0 9 9 7 12 -12 12 -19 0 -21 -3 -12 -12z"/>
<path d="M1036 585 c4 -9 14 -20 24 -25 15 -8 35 -60 24 -60 -11 0 -40 38 -37
47 2 6 -6 13 -19 16 -13 4 -24 2 -26 -3 -5 -15 -22 -12 -22 4 0 7 -12 16 -27
19 -29 6 -41 -6 -55 -51 -5 -19 -2 -25 20 -33 20 -8 23 -12 12 -19 -10 -6 -7
-12 16 -27 20 -12 28 -24 26 -37 -3 -13 0 -17 11 -13 8 3 19 1 25 -5 14 -14
53 8 46 26 -7 17 8 27 24 17 10 -6 9 -11 -3 -21 -20 -17 -19 -30 3 -30 22 0
57 36 67 68 6 20 9 21 23 11 14 -11 15 -11 5 1 -18 19 -16 30 5 30 14 0 15 2
2 10 -10 6 -20 4 -32 -7 -10 -9 -18 -11 -18 -6 0 6 -9 13 -21 16 -12 3 -19 11
-17 18 2 6 -7 25 -21 40 -28 32 -44 38 -35 14z m-71 -35 c-3 -5 1 -10 9 -10 9
0 16 -4 16 -10 0 -5 13 -10 29 -10 20 0 30 -6 34 -20 4 -16 14 -20 49 -21 33
0 38 -2 23 -9 -24 -10 -86 -12 -137 -4 -34 6 -36 8 -27 31 12 32 12 32 -10 26
-20 -5 -36 11 -26 27 3 6 15 10 26 10 11 0 17 -4 14 -10z m61 -125 c-19 -14
-36 -12 -36 5 0 9 41 19 50 12 3 -2 -4 -10 -14 -17z"/>
<path d="M995 500 c-4 -6 1 -7 11 -3 12 4 15 3 10 -5 -4 -7 -2 -12 3 -12 6 0
11 7 11 15 0 17 -25 20 -35 5z"/>
<path d="M1617 581 c-10 -14 -10 -14 4 -4 9 7 18 10 21 7 3 -3 8 -1 12 4 9 16
-24 9 -37 -7z"/>
<path d="M1465 581 c-3 -5 -2 -12 3 -15 5 -3 9 1 9 9 0 17 -3 19 -12 6z"/>
<path d="M490 570 c-12 -7 -10 -9 7 -7 12 0 19 5 17 9 -6 10 -6 10 -24 -2z"/>
<path d="M1825 555 c-43 -27 -60 -32 -49 -14 4 8 0 8 -15 0 -25 -14 -28 -23
-3 -14 15 6 16 5 2 -12 -12 -15 -7 -14 26 6 50 30 91 58 84 58 -3 0 -23 -11
-45 -24z"/>
<path d="M2961 563 c7 -10 14 -20 16 -22 1 -1 7 0 13 4 8 5 5 11 -7 21 -25 19
-38 17 -22 -3z"/>
<path d="M343 536 c2 -29 5 -33 20 -25 22 12 21 15 -3 39 -20 20 -20 20 -17
-14z"/>
<path d="M431 561 c-8 -5 -9 -11 -3 -15 5 -3 12 1 16 9 6 17 6 18 -13 6z"/>
<path d="M2260 545 c0 -8 8 -15 18 -15 14 0 15 -2 2 -10 -18 -12 -13 -12 65
-11 38 1 46 -1 35 -9 -11 -8 -8 -9 15 -4 41 9 55 24 23 24 -15 0 -29 4 -32 9
-3 5 -22 7 -41 4 -23 -3 -45 1 -60 11 -22 15 -25 15 -25 1z"/>
<path d="M2611 548 c0 -10 -7 -18 -13 -18 -8 0 -5 -7 6 -15 14 -11 23 -12 33
-4 9 8 13 8 13 0 0 -6 9 -11 20 -11 11 0 20 5 20 11 0 6 -9 13 -20 16 -11 3
-20 9 -20 14 0 5 -4 9 -10 9 -5 0 -7 -7 -4 -15 4 -8 1 -15 -4 -15 -6 0 -13 10
-15 23 -3 14 -5 16 -6 5z"/>
<path d="M10 540 c-13 -8 -12 -10 3 -10 9 0 17 5 17 10 0 12 -1 12 -20 0z"/>
<path d="M491 534 c0 -11 3 -14 6 -6 3 7 2 16 -1 19 -3 4 -6 -2 -5 -13z"/>
<path d="M520 525 c0 -14 4 -25 9 -25 4 0 6 11 3 25 -2 14 -6 25 -8 25 -2 0
-4 -11 -4 -25z"/>
<path d="M560 542 c0 -23 2 -27 11 -24 12 3 11 -9 -1 -28 -8 -12 -10 -12 -10
-1 0 8 -2 12 -5 9 -8 -8 6 -38 17 -38 5 0 24 -11 41 -23 18 -13 41 -24 52 -24
11 0 28 -4 39 -8 14 -6 18 -5 14 6 -3 8 -18 18 -34 23 -23 7 -85 33 -103 43
-2 2 1 9 8 16 8 11 6 19 -9 37 -11 13 -20 18 -20 12z"/>
<path d="M1885 540 c-3 -6 1 -7 9 -4 18 7 21 14 7 14 -6 0 -13 -4 -16 -10z"/>
<path d="M1956 539 c-7 -22 -4 -49 6 -49 4 0 8 -8 8 -17 0 -15 -2 -16 -10 -3
-12 19 -3 -42 12 -83 8 -21 13 -25 19 -15 12 18 11 30 -1 23 -11 -7 -13 3 -15
87 -1 56 -10 84 -19 57z"/>
<path d="M1327 515 c2 -17 5 -36 5 -43 1 -8 7 -7 20 5 23 20 24 30 1 12 -15
-12 -16 -12 -11 3 4 9 1 24 -7 34 -11 16 -12 15 -8 -11z"/>
<path d="M1833 509 c-33 -21 -40 -29 -25 -29 8 1 70 50 62 50 -3 0 -20 -10
-37 -21z"/>
<path d="M2957 509 c-5 -18 15 -33 27 -22 11 11 6 24 -6 18 -7 -4 -5 0 6 9 18
14 18 15 -2 13 -12 0 -23 -9 -25 -18z"/>
<path d="M1704 504 c-18 -14 -18 -15 4 -4 12 6 22 13 22 15 0 8 -5 6 -26 -11z"/>
<path d="M1752 485 c-29 -18 -68 -46 -86 -61 -18 -16 -24 -23 -14 -15 10 8 21
12 24 9 5 -6 -69 -68 -81 -68 -4 0 -1 7 6 17 13 15 12 15 -7 3 -19 -12 -20
-15 -8 -28 8 -7 11 -18 8 -24 -4 -7 -9 -6 -13 1 -5 8 -14 4 -26 -11 -11 -13
-13 -17 -5 -10 8 6 18 12 23 12 4 0 5 -6 1 -12 -4 -7 2 -4 14 6 12 11 20 21
17 24 -7 7 15 32 27 32 6 0 4 -8 -3 -17 -13 -16 -12 -17 3 -5 10 8 16 18 15
24 -1 6 11 12 26 13 28 4 27 3 -15 -36 -24 -22 -37 -38 -30 -34 18 9 15 -6 -5
-22 -10 -8 -12 -12 -5 -8 7 3 24 9 39 11 24 5 25 3 12 -12 -8 -9 -14 -20 -14
-23 0 -3 -3 -5 -6 -4 -3 1 -21 -12 -40 -29 -19 -16 -26 -25 -16 -18 36 26 26
2 -12 -28 -46 -37 -62 -41 -35 -9 l19 22 -26 -22 c-34 -31 -48 -29 -19 2 13
14 20 25 15 25 -4 0 0 10 11 23 10 12 12 16 4 10 -18 -17 -33 -17 -24 0 5 8 2
8 -9 -2 -18 -14 -23 -26 -8 -17 20 13 18 -23 -3 -43 -32 -31 -44 -26 -15 7
l24 27 -26 -22 c-35 -32 -47 -29 -18 4 l24 28 -31 -28 c-17 -15 -31 -34 -31
-43 0 -10 4 -11 11 -4 21 21 29 9 8 -13 -15 -15 -18 -27 -12 -37 6 -10 3 -21
-8 -35 -16 -19 -16 -19 1 -6 16 13 18 12 13 -12 -4 -24 -2 -26 14 -17 10 6 22
16 26 23 5 8 2 7 -9 -2 -10 -8 -20 -12 -22 -9 -6 6 117 108 130 108 5 0 -4
-13 -20 -28 -17 -15 -26 -24 -21 -19 24 18 27 5 5 -20 -17 -19 -10 -16 28 13
29 21 51 44 49 49 -2 6 4 19 13 30 16 20 16 20 -7 1 -12 -11 -20 -21 -17 -24
7 -7 -25 -42 -38 -42 -6 0 -3 8 5 18 8 9 14 27 13 40 -1 14 8 30 23 43 14 10
19 19 11 19 -16 0 4 23 23 26 7 1 22 5 33 9 17 6 16 3 -5 -15 -18 -15 -10 -13
31 9 62 34 78 39 59 16 -11 -13 -10 -14 4 -9 10 4 15 12 12 19 -2 7 6 22 18
34 25 23 41 28 30 9 -4 -8 -3 -10 2 -5 5 5 9 12 9 15 0 4 4 13 9 21 6 10 5 12
-3 7 -6 -4 -23 -10 -38 -12 -23 -4 -25 -3 -13 12 22 26 22 46 0 34 -33 -18
-36 -10 -5 16 22 18 24 23 10 19 -18 -6 -18 -5 -4 7 23 19 21 50 -2 37 -26
-13 -33 -11 -18 7 8 10 0 8 -24 -6 -39 -23 -52 -39 -16 -20 42 23 28 2 -19
-29 -58 -37 -79 -40 -37 -5 21 17 24 23 10 18 -31 -11 -8 9 65 55 36 22 61 40
55 40 -5 0 -34 -15 -63 -34z m54 -44 c-8 -13 -97 -64 -102 -58 -5 4 85 65 99
66 5 1 6 -3 3 -8z m-26 -46 c-7 -8 -16 -15 -21 -15 -4 0 -25 -12 -46 -26 -46
-31 -52 -37 -31 -29 13 5 16 1 15 -14 -1 -21 -17 -30 -17 -10 0 8 -4 8 -14 0
-10 -9 -15 -8 -19 3 -7 17 3 26 76 72 56 36 77 43 57 19z m-16 -36 c-4 -7 1
-7 16 1 12 6 24 9 27 7 5 -6 -66 -53 -95 -64 -15 -6 -15 -5 -3 10 11 14 11 17
0 17 -8 0 0 9 16 20 33 22 50 26 39 9z m38 -53 c-16 -17 -83 -56 -97 -56 -3 0
-4 4 -1 9 4 5 -4 7 -16 4 -31 -8 -18 5 39 37 26 15 58 27 70 26 20 -1 21 -2 5
-20z m-222 -160 c-30 -29 -115 -96 -121 -96 -4 0 -6 8 -5 17 2 10 -1 21 -7 24
-12 8 38 42 64 44 11 1 19 -3 19 -9 0 -6 10 0 22 12 12 12 27 22 32 22 6 0 4
-6 -4 -14z"/>
<path d="M1729 283 c-13 -15 -12 -15 9 -4 23 12 28 21 13 21 -5 0 -15 -7 -22
-17z"/>
<path d="M1469 103 c-11 -15 -11 -16 1 -5 8 6 19 12 25 12 5 -1 -1 -10 -14
-20 -13 -11 -19 -20 -14 -20 15 0 44 36 36 43 -10 11 -20 8 -34 -10z"/>
<path d="M417 490 c-7 -27 20 -48 38 -29 12 12 10 17 -10 31 -22 17 -23 16
-28 -2z"/>
<path d="M499 505 c-4 -3 -2 -25 3 -50 8 -36 6 -47 -9 -64 -20 -24 -38 -28
-29 -6 3 8 1 15 -4 15 -6 0 -10 -4 -10 -10 0 -5 -9 -19 -21 -31 -16 -16 -24
-18 -32 -10 -7 7 -12 17 -12 24 0 16 -46 38 -67 33 -12 -3 -18 2 -18 12 0 12
-9 17 -30 18 -16 1 -27 -3 -24 -7 3 -5 12 -9 20 -9 8 0 12 -4 9 -10 -3 -5 12
-17 35 -26 22 -9 47 -26 55 -37 13 -18 12 -23 -9 -42 -23 -22 -63 -36 -99 -36
-14 0 -15 -4 -6 -21 8 -15 8 -26 -1 -43 -14 -27 -49 -39 -56 -21 -3 8 -15 11
-30 8 -18 -3 -22 -8 -14 -17 7 -9 -7 -15 -58 -24 -66 -12 -101 -25 -92 -35 3
-2 37 2 75 10 86 19 63 15 385 75 287 53 294 55 286 67 -2 4 25 7 62 8 42 0
67 4 70 12 2 7 19 12 37 12 46 0 65 9 65 30 0 23 14 32 60 40 l35 6 -42 5
c-23 2 -40 2 -37 0 2 -2 -8 -13 -23 -23 -16 -10 -22 -18 -15 -18 10 0 10 -3 1
-13 -11 -11 -16 -10 -31 5 -10 10 -18 24 -18 31 0 19 -50 15 -74 -5 -12 -10
-32 -26 -45 -36 l-24 -19 51 4 c33 3 52 1 52 -6 0 -7 -25 -11 -63 -11 -35 0
-67 -4 -73 -10 -10 -10 -426 -91 -433 -84 -2 2 1 16 8 30 10 22 9 25 -2 21 -8
-3 -14 1 -14 9 0 18 1 17 39 -2 25 -13 32 -13 39 -3 4 7 5 17 2 22 -3 5 -9 4
-13 -3 -5 -8 -10 -8 -14 -2 -7 12 7 23 62 47 23 10 42 21 42 25 0 16 34 20 74
8 22 -6 47 -11 54 -9 6 1 12 -4 12 -12 0 -10 -8 -13 -24 -10 -26 5 -79 -24
-70 -38 6 -10 67 -10 104 0 17 5 21 9 12 15 -15 9 -16 26 -1 26 5 0 7 -4 4
-10 -3 -5 -2 -10 4 -10 5 0 15 8 21 18 7 11 13 13 16 6 7 -16 44 -5 44 13 0 9
-6 13 -14 10 -8 -3 -20 1 -26 9 -7 8 -22 13 -34 13 -17 -1 -17 -2 -3 -6 17 -5
23 -19 10 -26 -30 -17 -108 78 -122 146 -3 16 -9 26 -12 22z m392 -164 c20
-18 20 -18 -6 -14 -14 3 -25 12 -25 19 0 19 7 18 31 -5z m-327 -46 c-6 -16
-24 -21 -24 -7 0 11 11 22 21 22 5 0 6 -7 3 -15z m-274 -75 c0 -5 -2 -10 -4
-10 -3 0 -8 5 -11 10 -3 6 -1 10 4 10 6 0 11 -4 11 -10z m-10 -24 c0 -11 -19
-15 -25 -6 -3 5 1 10 9 10 9 0 16 -2 16 -4z"/>
<path d="M1855 496 c-10 -7 -20 -21 -21 -30 -2 -15 0 -16 18 -4 12 8 22 22 24
31 3 20 3 20 -21 3z m10 -16 c-3 -5 -11 -10 -16 -10 -6 0 -7 5 -4 10 3 6 11
10 16 10 6 0 7 -4 4 -10z"/>
<path d="M2514 499 c-2 -4 -18 -5 -36 -3 -18 2 -40 -1 -48 -6 -13 -9 -13 -12
3 -24 18 -14 57 -11 57 4 0 9 47 2 75 -10 11 -5 36 -11 55 -13 l35 -4 -32 -13
c-44 -19 -42 -30 6 -30 22 0 46 -3 55 -6 25 -10 19 19 -9 46 -19 18 -22 26
-13 32 13 8 -10 13 -41 9 -7 -2 -10 2 -6 8 3 6 2 11 -3 11 -6 0 -13 -7 -16
-16 -5 -12 -8 -13 -20 -2 -12 11 -12 14 3 20 9 4 -1 6 -22 5 -22 -1 -41 -5
-43 -8z"/>
<path d="M110 495 c0 -13 38 -46 43 -38 3 5 -3 17 -14 26 -20 17 -29 21 -29
12z"/>
<path d="M630 489 c0 -5 5 -7 10 -4 6 3 10 8 10 11 0 2 -4 4 -10 4 -5 0 -10
-5 -10 -11z"/>
<path d="M333 484 c10 -10 67 -12 61 -3 -3 5 -19 9 -36 9 -17 0 -29 -3 -25 -6z"/>
<path d="M1354 458 l-29 -33 33 29 c30 28 37 36 29 36 -2 0 -16 -15 -33 -32z"/>
<path d="M1650 468 c-15 -12 -18 -19 -8 -15 9 3 18 2 20 -3 2 -5 14 0 27 11
13 10 18 19 13 19 -6 0 -14 -4 -17 -10 -3 -5 -11 -10 -17 -10 -7 0 -6 6 2 15
17 21 9 18 -20 -7z"/>
<path d="M2678 473 c-4 -19 38 -60 49 -49 4 3 1 6 -5 6 -7 0 -12 9 -12 20 0
11 -5 20 -11 20 -5 0 -7 5 -4 10 3 6 2 10 -4 10 -5 0 -11 -8 -13 -17z"/>
<path d="M1579 443 l-34 -38 38 34 c20 19 37 36 37 38 0 8 -8 0 -41 -34z"/>
<path d="M2960 460 c0 -5 6 -10 14 -10 8 0 18 5 21 10 3 6 -3 10 -14 10 -12 0
-21 -4 -21 -10z"/>
<path d="M530 452 c0 -5 7 -13 16 -16 10 -4 14 -1 12 6 -5 15 -28 23 -28 10z"/>
<path d="M1200 450 c0 -5 5 -10 11 -10 5 0 7 5 4 10 -3 6 -8 10 -11 10 -2 0
-4 -4 -4 -10z"/>
<path d="M1351 426 c-25 -26 -29 -36 -19 -41 7 -5 10 -5 6 0 -10 11 11 37 23
29 5 -3 8 0 7 8 -2 7 2 12 8 11 6 -1 11 5 11 13 0 18 2 19 -36 -20z"/>
<path d="M1855 446 c-13 -9 -19 -27 -20 -54 -1 -36 1 -39 17 -31 21 11 24 21
4 13 -22 -8 -14 29 9 44 19 12 19 12 -5 7 l-25 -6 25 20 c28 23 24 29 -5 7z"/>
<path d="M1931 444 c0 -11 3 -14 6 -6 3 7 2 16 -1 19 -3 4 -6 -2 -5 -13z"/>
<path d="M2164 449 c-4 -7 -3 -9 4 -5 5 3 13 0 15 -6 4 -9 6 -10 6 -1 1 17
-16 25 -25 12z"/>
<path d="M570 439 c0 -5 5 -7 10 -4 6 3 10 8 10 11 0 2 -4 4 -10 4 -5 0 -10
-5 -10 -11z"/>
<path d="M440 424 l-25 -15 30 6 c17 4 34 11 40 16 15 15 -17 10 -45 -7z"/>
<path d="M910 430 c-22 -14 2 -37 30 -29 14 4 18 8 10 8 -12 1 -12 3 -2 10 11
6 9 9 -6 13 -11 3 -25 2 -32 -2z"/>
<path d="M1280 425 c8 -9 15 -29 16 -43 3 -47 4 -52 12 -52 4 0 5 24 2 52 -4
42 -9 54 -25 57 -17 3 -18 1 -5 -14z"/>
<path d="M2898 433 c7 -3 16 -2 19 1 4 3 -2 6 -13 5 -11 0 -14 -3 -6 -6z"/>
<path d="M741 417 c-6 -8 -9 -16 -6 -19 3 -3 -2 -11 -11 -18 -12 -11 -20 -11
-34 -2 -12 7 -21 8 -25 2 -3 -6 0 -10 9 -10 8 0 23 -12 34 -27 11 -16 24 -25
28 -21 4 4 1 14 -6 23 -7 8 -8 15 -2 15 5 0 12 9 15 20 3 11 9 20 14 19 27 -5
35 1 23 16 -15 19 -24 19 -39 2z"/>
<path d="M1208 423 c6 -2 18 -2 25 0 6 3 1 5 -13 5 -14 0 -19 -2 -12 -5z"/>
<path d="M615 410 c-3 -5 -1 -10 4 -10 6 0 11 5 11 10 0 6 -2 10 -4 10 -3 0
-8 -4 -11 -10z"/>
<path d="M1895 410 c3 -5 8 -10 11 -10 2 0 4 5 4 10 0 6 -5 10 -11 10 -5 0 -7
-4 -4 -10z"/>
<path d="M1926 412 c-3 -6 -1 -14 5 -17 15 -10 25 3 12 16 -7 7 -13 7 -17 1z"/>
<path d="M2167 413 c-4 -3 -7 -11 -7 -17 0 -6 5 -5 12 2 6 6 9 14 7 17 -3 3
-9 2 -12 -2z"/>
<path d="M210 399 c-12 -9 -12 -10 4 -5 14 5 17 3 12 -11 -6 -15 -5 -16 5 -5
18 17 -1 35 -21 21z"/>
<path d="M817 400 c-31 -9 -57 -28 -57 -41 0 -15 45 -6 67 14 12 10 26 17 31
13 5 -3 18 1 28 9 18 13 17 14 -11 14 -16 0 -43 -5 -58 -9z"/>
<path d="M635 390 c-3 -5 -1 -10 4 -10 6 0 11 5 11 10 0 6 -2 10 -4 10 -3 0
-8 -4 -11 -10z"/>
<path d="M1349 373 l-24 -28 28 24 c25 23 32 31 24 31 -2 0 -14 -12 -28 -27z"/>
<path d="M156 381 c-4 -5 3 -7 14 -4 23 6 26 13 6 13 -8 0 -17 -4 -20 -9z"/>
<path d="M926 382 c-2 -4 -1 -14 4 -22 8 -12 10 -12 15 2 4 9 13 14 21 11 8
-3 14 0 14 6 0 13 -46 15 -54 3z"/>
<path d="M1188 383 c6 -2 18 -2 25 0 6 3 1 5 -13 5 -14 0 -19 -2 -12 -5z"/>
<path d="M1898 365 c-6 -30 -2 -32 12 -6 6 11 6 22 1 25 -5 3 -11 -5 -13 -19z"/>
<path d="M2250 380 c0 -5 5 -10 10 -10 6 0 10 5 10 10 0 6 -4 10 -10 10 -5 0
-10 -4 -10 -10z"/>
<path d="M252 365 c-7 -8 -21 -15 -31 -15 -10 0 -21 -9 -24 -21 -4 -15 -2 -18
7 -10 7 6 15 10 17 8 2 -2 17 10 34 25 16 15 25 28 20 28 -6 -1 -16 -7 -23
-15z"/>
<path d="M1074 356 c-8 -11 -14 -26 -14 -32 0 -15 -23 -24 -58 -24 -17 0 -22
-3 -15 -8 14 -9 15 -82 2 -82 -5 0 -13 9 -19 20 -12 22 -69 41 -86 28 -7 -5
-22 -4 -36 1 -14 5 -31 6 -38 1 -9 -5 -3 -10 18 -15 18 -3 31 -10 31 -13 -1
-4 -1 -20 0 -37 1 -23 3 -27 11 -15 5 8 10 27 10 43 0 23 4 27 29 27 30 0 64
-31 76 -70 5 -15 14 -17 48 -14 23 2 36 1 30 -2 -25 -11 -13 -22 37 -34 28 -7
50 -16 50 -20 0 -4 21 -13 46 -19 26 -7 45 -14 43 -16 -10 -9 -201 48 -226 67
-8 6 -15 3 -22 -11 -14 -26 -14 -38 0 -24 8 8 29 6 78 -7 146 -39 301 -67 301
-54 0 24 -28 45 -77 59 -32 9 -71 22 -88 30 -16 7 -41 17 -55 23 l-25 9 33 7
c18 5 40 19 49 33 13 19 22 24 43 19 24 -4 28 -1 42 45 14 42 14 49 2 49 -9 0
-14 -8 -12 -17 2 -13 -5 -19 -25 -21 -18 -2 -27 -8 -24 -16 4 -10 -2 -10 -28
-2 -19 6 -33 14 -32 18 1 4 -18 21 -43 38 l-45 30 38 0 c44 0 42 16 -3 22 -23
4 -35 0 -46 -16z m68 -63 c22 -21 48 -37 57 -36 9 1 11 0 4 -3 -7 -3 -10 -11
-7 -18 5 -13 -62 -66 -84 -66 -6 0 -34 5 -61 11 -48 10 -50 12 -39 32 7 12 12
26 13 30 0 5 8 14 17 21 10 7 15 16 11 19 -3 4 -1 7 5 7 7 0 12 6 12 14 0 12
9 20 28 25 2 1 21 -16 44 -36z"/>
<path d="M1258 373 c7 -3 16 -2 19 1 4 3 -2 6 -13 5 -11 0 -14 -3 -6 -6z"/>
<path d="M2216 363 c-4 -13 -14 -23 -21 -23 -21 0 -28 -19 -14 -37 11 -13 10
-17 -6 -30 -11 -7 -30 -11 -42 -8 -16 4 -25 -1 -33 -15 -10 -18 -8 -19 22 -13
18 3 37 10 43 15 5 5 29 22 53 38 23 17 42 35 42 42 0 6 -3 8 -7 4 -4 -3 -12
6 -18 21 -12 28 -12 28 -19 6z m19 -51 c-10 -10 -35 -10 -35 -1 0 6 -5 7 -12
3 -7 -4 -8 -3 -4 5 4 6 12 9 17 5 6 -3 13 4 16 17 l6 23 9 -24 c5 -12 6 -25 3
-28z"/>
<path d="M2970 370 c0 -5 4 -10 9 -10 6 0 13 5 16 10 3 6 -1 10 -9 10 -9 0
-16 -4 -16 -10z"/>
<path d="M1347 342 c-17 -18 -27 -39 -27 -58 0 -33 34 -181 44 -191 4 -4 17 4
29 17 l22 24 -22 -18 c-21 -18 -22 -18 -20 2 0 11 4 19 8 16 4 -2 13 4 20 14
12 15 12 16 -1 5 -10 -8 -21 -9 -30 -3 -8 6 -11 10 -7 10 4 0 3 9 -3 21 -9 15
-8 24 2 37 9 11 10 14 1 8 -14 -8 -14 -7 -18 41 -1 21 2 30 9 26 6 -3 8 -3 4
2 -4 4 -2 17 4 29 11 20 19 46 14 46 -1 0 -14 -13 -29 -28z m11 -12 c-7 -11
-17 -20 -22 -20 -5 0 -1 9 9 20 10 11 20 20 22 20 2 0 -2 -9 -9 -20z"/>
<path d="M1991 351 c-8 -5 -9 -11 -3 -15 5 -3 12 1 16 9 6 17 6 18 -13 6z"/>
<path d="M1200 330 c34 -11 62 -12 56 -2 -3 5 -22 9 -43 9 -33 1 -35 0 -13 -7z"/>
<path d="M2500 336 c0 -2 7 -7 16 -10 8 -3 12 -2 9 4 -6 10 -25 14 -25 6z"/>
<path d="M2011 314 c0 -11 3 -14 6 -6 3 7 2 16 -1 19 -3 4 -6 -2 -5 -13z"/>
<path d="M2398 323 c6 -2 18 -2 25 0 6 3 1 5 -13 5 -14 0 -19 -2 -12 -5z"/>
<path d="M1399 303 c-13 -16 -12 -17 4 -4 16 13 21 21 13 21 -2 0 -10 -8 -17
-17z"/>
<path d="M2565 310 c-3 -5 -1 -10 4 -10 6 0 11 5 11 10 0 6 -2 10 -4 10 -3 0
-8 -4 -11 -10z"/>
<path d="M1250 306 c0 -2 7 -7 16 -10 8 -3 12 -2 9 4 -6 10 -25 14 -25 6z"/>
<path d="M27 289 c7 -7 15 -10 18 -7 3 3 -2 9 -12 12 -14 6 -15 5 -6 -5z"/>
<path d="M437 280 c10 -11 19 -20 20 -20 7 0 -3 26 -12 32 -20 15 -24 8 -8
-12z"/>
<path d="M1589 284 c-7 -9 -14 -22 -15 -30 -3 -16 12 -19 21 -4 3 6 1 10 -6
10 -7 0 -5 8 6 20 10 11 16 20 13 20 -3 0 -12 -7 -19 -16z"/>
<path d="M1840 291 c-8 -6 -17 -8 -21 -5 -4 2 -10 0 -14 -5 -3 -6 6 -8 21 -5
24 4 26 3 14 -11 -7 -8 -9 -15 -5 -15 4 0 2 -7 -5 -15 -7 -8 -17 -12 -23 -8
-6 3 -7 1 -3 -5 5 -9 14 -7 32 5 17 11 21 18 13 23 -8 5 -6 11 7 19 11 6 13
11 6 11 -7 0 -10 5 -7 10 8 12 4 12 -15 1z"/>
<path d="M1402 278 c-16 -16 -35 -17 -44 -3 -4 5 -6 0 -5 -12 1 -15 5 -19 13
-13 6 6 13 8 16 5 3 -3 13 4 23 15 20 22 17 28 -3 8z"/>
<path d="M1902 270 c0 -14 2 -19 5 -12 2 6 2 18 0 25 -3 6 -5 1 -5 -13z"/>
<path d="M90 269 c0 -5 5 -7 10 -4 6 3 10 8 10 11 0 2 -4 4 -10 4 -5 0 -10 -5
-10 -11z"/>
<path d="M150 270 c-8 -5 -10 -10 -5 -10 6 0 17 5 25 10 8 5 11 10 5 10 -5 0
-17 -5 -25 -10z"/>
<path d="M396 271 c-4 -6 -2 -11 4 -11 6 0 9 -4 6 -9 -4 -5 4 -7 16 -3 16 4
18 7 8 10 -8 3 -18 9 -21 15 -4 5 -9 5 -13 -2z"/>
<path d="M1549 278 c-5 -18 -6 -38 -1 -34 7 8 12 36 6 36 -2 0 -4 -1 -5 -2z"/>
<path d="M2065 269 c-4 -6 -5 -12 -2 -15 2 -3 7 2 10 11 7 17 1 20 -8 4z"/>
<path d="M2230 270 c0 -5 5 -10 10 -10 6 0 10 5 10 10 0 6 -4 10 -10 10 -5 0
-10 -4 -10 -10z"/>
<path d="M2256 245 l-18 -28 23 6 c13 4 30 7 37 7 6 0 12 5 12 12 0 6 -3 8 -7
5 -3 -4 -11 0 -18 9 -10 14 -13 13 -29 -11z"/>
<path d="M2768 263 c6 -2 18 -2 25 0 6 3 1 5 -13 5 -14 0 -19 -2 -12 -5z"/>
<path d="M768 253 c7 -3 16 -2 19 1 4 3 -2 6 -13 5 -11 0 -14 -3 -6 -6z"/>
<path d="M1395 240 c-13 -14 -14 -20 -5 -20 14 0 5 -14 -11 -16 -5 -1 -11 -2
-14 -3 -3 0 -1 -10 5 -22 9 -16 14 -18 26 -9 7 7 11 16 8 22 -3 5 0 16 8 25 9
12 9 15 1 9 -16 -9 -17 6 -1 22 7 7 10 12 7 12 -3 0 -14 -9 -24 -20z"/>
<path d="M2331 244 c13 -16 29 -19 29 -5 0 5 -9 11 -21 14 -16 4 -18 3 -8 -9z"/>
<path d="M40 240 c0 -5 5 -10 11 -10 5 0 7 5 4 10 -3 6 -8 10 -11 10 -2 0 -4
-4 -4 -10z"/>
<path d="M104 235 c-16 -12 -17 -14 -3 -15 9 0 19 7 23 15 7 19 5 19 -20 0z"/>
<path d="M210 231 c0 -6 4 -13 10 -16 6 -3 7 1 4 9 -7 18 -14 21 -14 7z"/>
<path d="M1698 216 c-54 -32 -60 -42 -11 -17 47 23 57 26 48 11 -10 -17 8 -11
35 11 21 17 22 19 3 10 -27 -14 -36 -14 -28 -1 9 15 -6 11 -47 -14z"/>
<path d="M2388 233 c7 -3 16 -2 19 1 4 3 -2 6 -13 5 -11 0 -14 -3 -6 -6z"/>
<path d="M2785 230 c3 -5 14 -10 23 -10 15 0 15 2 2 10 -20 13 -33 13 -25 0z"/>
<path d="M2852 231 c-11 -7 -10 -9 3 -14 9 -4 13 -3 10 2 -3 5 7 12 22 14 27
4 27 4 3 5 -14 1 -31 -2 -38 -7z"/>
<path d="M725 221 c18 -8 17 -9 -10 -16 -16 -4 -55 -13 -85 -21 -30 -7 -109
-25 -175 -40 -66 -15 -156 -35 -200 -45 -44 -11 -114 -26 -155 -34 -86 -18
-105 -24 -99 -30 3 -2 32 2 64 9 33 7 69 13 80 14 11 0 38 7 60 15 22 8 60 14
85 13 38 -1 45 -4 45 -21 -1 -11 -6 -19 -13 -18 -7 2 -12 -2 -12 -8 0 -5 -4
-7 -10 -4 -5 3 -10 1 -10 -4 0 -14 6 -14 47 1 36 13 44 28 16 28 -14 0 -15 2
-4 9 11 7 10 11 -5 19 -10 6 -17 12 -14 14 3 3 52 14 110 26 58 12 116 25 130
28 18 4 21 3 11 -4 -11 -8 -11 -10 0 -14 8 -3 22 -3 32 0 17 4 17 5 0 18 -16
12 -14 13 17 14 19 0 51 4 69 10 19 5 39 6 45 1 6 -5 27 -8 47 -7 34 1 36 -1
28 -21 -5 -13 -6 -29 -3 -37 3 -8 -15 -30 -47 -55 -54 -43 -53 -45 13 -54 31
-5 36 -3 31 11 -4 13 -2 12 10 -3 15 -19 16 -19 23 -2 8 22 -26 53 -38 34 -4
-6 -9 -9 -12 -7 -2 3 2 14 10 25 13 17 16 18 24 5 7 -10 8 -5 4 18 -4 21 -3
32 5 32 6 0 11 -9 11 -20 0 -27 20 -68 36 -74 16 -6 19 10 4 19 -5 3 -10 22
-10 42 0 20 -7 45 -17 55 -9 10 -16 30 -15 45 0 24 -4 28 -26 29 -15 1 -47 5
-72 8 -30 4 -38 3 -25 -3z m41 -10 c-4 -5 -1 -12 4 -14 6 -3 5 -4 -2 -3 -15 3
-23 26 -8 26 6 0 9 -4 6 -9z"/>
<path d="M1564 208 l-19 -23 23 19 c12 11 22 21 22 23 0 8 -8 2 -26 -19z"/>
<path d="M2131 223 c1 -4 -1 -16 -6 -26 -4 -11 -3 -23 4 -30 6 -6 11 -16 11
-21 0 -6 -5 -5 -12 2 -17 17 -33 15 -18 -3 13 -15 5 -39 -11 -30 -11 7 -12
-25 -1 -42 4 -7 13 -9 21 -4 7 5 10 14 7 20 -4 6 -2 11 4 11 6 0 8 5 5 10 -3
6 -2 10 3 10 14 0 25 51 13 63 -5 5 -7 15 -5 22 3 7 0 16 -6 20 -6 3 -10 3 -9
-2z"/>
<path d="M50 210 c-9 -6 -10 -10 -3 -10 6 0 15 5 18 10 8 12 4 12 -15 0z"/>
<path d="M330 153 c-179 -35 -327 -66 -329 -69 -12 -12 11 -12 64 1 33 7 188
39 345 70 157 31 287 59 289 61 11 11 -70 -3 -369 -63z"/>
<path d="M1839 215 c-1 -3 -2 -8 -3 -12 -3 -16 -18 -33 -25 -29 -4 3 -8 -5 -8
-16 -2 -21 -2 -21 13 1 15 21 41 31 28 10 -4 -8 0 -8 15 0 25 14 28 22 4 15
-15 -5 -15 -3 2 11 20 17 20 17 -4 10 -16 -5 -21 -4 -17 4 4 6 5 11 2 11 -3 0
-7 -2 -7 -5z"/>
<path d="M0 200 c0 -5 5 -10 11 -10 5 0 7 5 4 10 -3 6 -8 10 -11 10 -2 0 -4
-4 -4 -10z"/>
<path d="M95 200 c-3 -5 -1 -10 4 -10 6 0 11 5 11 10 0 6 -2 10 -4 10 -3 0 -8
-4 -11 -10z"/>
<path d="M1765 200 c-3 -6 1 -7 9 -4 18 7 21 14 7 14 -6 0 -13 -4 -16 -10z"/>
<path d="M2313 203 c9 -2 23 -2 30 0 6 3 -1 5 -18 5 -16 0 -22 -2 -12 -5z"/>
<path d="M1619 173 c-13 -16 -12 -17 4 -4 16 13 21 21 13 21 -2 0 -10 -8 -17
-17z"/>
<path d="M1718 174 c-16 -8 -28 -17 -28 -20 0 -2 9 0 19 6 25 13 34 13 26 0
-3 -5 -2 -10 4 -10 5 0 13 5 16 10 3 6 1 10 -5 10 -6 0 -8 5 -5 10 8 13 6 12
-27 -6z"/>
<path d="M1949 173 c-13 -16 -12 -17 4 -4 16 13 21 21 13 21 -2 0 -10 -8 -17
-17z"/>
<path d="M2763 182 c-6 -4 22 -7 62 -7 40 0 68 3 62 7 -15 10 -109 10 -124 0z"/>
<path d="M1665 170 c-3 -6 1 -7 9 -4 18 7 21 14 7 14 -6 0 -13 -4 -16 -10z"/>
<path d="M0 150 c0 -5 5 -10 10 -10 6 0 10 5 10 10 0 6 -4 10 -10 10 -5 0 -10
-4 -10 -10z"/>
<path d="M880 149 c0 -5 5 -7 10 -4 6 3 10 8 10 11 0 2 -4 4 -10 4 -5 0 -10
-5 -10 -11z"/>
<path d="M930 129 c-15 -24 -20 -47 -18 -76 2 -24 -1 -45 -7 -47 -5 -3 -2 -5
7 -5 9 -1 18 4 20 11 4 10 16 10 57 0 68 -16 89 -16 74 -1 -6 6 -38 14 -70 18
-54 6 -58 8 -61 33 -2 15 4 41 13 58 23 44 11 50 -15 9z"/>
<path d="M1018 153 c7 -3 16 -2 19 1 4 3 -2 6 -13 5 -11 0 -14 -3 -6 -6z"/>
<path d="M1765 150 c-3 -6 1 -7 9 -4 18 7 21 14 7 14 -6 0 -13 -4 -16 -10z"/>
<path d="M1832 133 c-15 -16 -21 -22 -12 -15 9 6 20 12 24 12 4 0 4 -6 -1 -12
-4 -7 -8 -17 -8 -23 0 -5 -6 -10 -14 -10 -8 0 -15 -8 -17 -18 -2 -17 -1 -17
15 -3 21 19 38 21 23 4 -15 -19 -15 -30 0 -39 10 -7 10 -9 1 -9 -7 0 -13 -5
-13 -12 0 -9 3 -9 12 0 16 16 19 42 5 42 -7 0 -3 7 7 15 12 9 15 15 7 15 -11
0 -11 3 -1 15 11 13 10 15 -6 9 -18 -5 -18 -5 0 10 13 10 15 16 7 16 -11 0
-11 3 -1 15 21 25 2 17 -28 -12z"/>
<path d="M1663 131 c1 -12 6 -17 16 -13 10 4 11 7 3 10 -7 2 -10 8 -6 13 3 5
1 9 -5 9 -5 0 -9 -9 -8 -19z"/>
<path d="M525 120 c-22 -10 -51 -29 -64 -44 -14 -14 -34 -26 -45 -26 -17 0
-18 2 -6 10 13 9 13 11 0 20 -29 19 -42 12 -24 -15 18 -27 12 -42 -20 -55 -14
-5 0 -8 44 -7 44 2 69 7 77 17 9 12 14 13 24 3 7 -7 33 -12 59 -12 33 1 39 3
20 8 -37 9 -110 50 -110 61 0 5 15 8 33 6 40 -5 52 2 36 20 -9 11 -8 14 7 14
11 0 27 -7 38 -15 17 -13 17 -16 3 -44 -14 -28 -14 -30 1 -22 9 4 24 6 32 3
11 -4 10 1 -4 17 -17 19 -18 21 -2 21 16 0 16 1 2 16 -21 20 -20 23 3 21 11 0
18 -4 16 -8 -3 -3 4 -15 14 -25 18 -19 18 -20 -11 -45 l-29 -26 30 5 c38 5 49
38 30 83 -11 28 -16 31 -49 26 -20 -2 -43 -1 -51 3 -8 4 -32 0 -54 -10z"/>
<path d="M1718 124 c-38 -20 -36 -28 2 -9 17 9 30 18 30 20 0 7 -1 6 -32 -11z"/>
<path d="M2420 136 c0 -2 7 -6 15 -10 8 -3 15 -1 15 4 0 6 -7 10 -15 10 -8 0
-15 -2 -15 -4z"/>
<path d="M2460 130 c0 -5 5 -10 11 -10 5 0 7 5 4 10 -3 6 -8 10 -11 10 -2 0
-4 -4 -4 -10z"/>
<path d="M705 120 c3 -5 11 -10 16 -10 6 0 7 5 4 10 -3 6 -11 10 -16 10 -6 0
-7 -4 -4 -10z"/>
<path d="M1954 88 c-16 -18 -21 -26 -11 -19 26 20 20 -1 -8 -28 -14 -13 -25
-28 -25 -34 0 -6 7 -2 16 9 14 17 15 17 10 1 -4 -11 -2 -16 5 -12 6 4 8 13 5
20 -5 14 10 32 29 35 18 3 18 9 1 16 -9 3 -13 10 -10 15 3 5 9 7 13 5 4 -3 8
1 8 9 0 19 1 20 -33 -17z"/>
<path d="M2648 113 c7 -3 16 -2 19 1 4 3 -2 6 -13 5 -11 0 -14 -3 -6 -6z"/>
<path d="M2713 103 c9 -2 23 -2 30 0 6 3 -1 5 -18 5 -16 0 -22 -2 -12 -5z"/>
<path d="M755 90 c-3 -5 -2 -10 4 -10 5 0 13 5 16 10 3 6 2 10 -4 10 -5 0 -13
-4 -16 -10z"/>
<path d="M966 75 c-11 -30 -6 -40 11 -22 12 12 14 20 6 28 -7 7 -12 6 -17 -6z"/>
<path d="M1389 88 c0 -2 -2 -10 -5 -18 -16 -60 -16 -72 -3 -68 8 3 14 16 14
29 0 13 3 29 8 36 4 6 3 14 -3 18 -5 3 -10 5 -11 3z"/>
<path d="M1683 80 c-13 -5 -23 -11 -23 -14 0 -2 10 -2 23 1 22 5 22 5 2 -11
-15 -13 -9 -12 23 4 23 11 42 23 42 26 0 2 -9 0 -19 -6 -25 -13 -34 -13 -26 0
7 12 7 12 -22 0z"/>
<path d="M241 61 c-8 -14 -7 -22 6 -32 9 -8 14 -9 10 -3 -4 7 0 17 8 24 8 7
12 16 9 21 -9 15 -23 10 -33 -10z"/>
<path d="M560 70 c0 -5 4 -10 9 -10 6 0 13 5 16 10 3 6 -1 10 -9 10 -9 0 -16
-4 -16 -10z"/>
<path d="M716 65 c-19 -15 -19 -15 2 -15 13 0 22 6 22 15 0 18 0 18 -24 0z"/>
<path d="M2940 69 c0 -6 7 -9 15 -5 9 3 15 0 15 -9 0 -8 7 -15 17 -15 14 0 14
2 -2 20 -20 22 -45 27 -45 9z"/>
<path d="M1611 61 c-8 -5 -19 -7 -26 -5 -13 5 -38 -20 -41 -42 -3 -16 25 -4
46 20 7 9 17 16 23 16 6 0 1 -10 -11 -23 -17 -18 -19 -24 -8 -24 8 0 13 4 10
8 -5 9 36 35 49 31 5 -1 6 2 2 7 -3 6 -13 7 -22 4 -11 -4 -14 -3 -9 5 9 14 6
15 -13 3z m-31 -26 c-7 -8 -17 -15 -22 -15 -6 0 -5 7 2 15 7 8 17 15 22 15 6
0 5 -7 -2 -15z"/>
<path d="M1736 55 c-14 -11 -16 -15 -5 -15 8 -1 2 -8 -13 -16 -38 -20 -35 -28
3 -9 17 9 28 19 25 22 -3 4 -1 12 5 20 15 17 9 16 -15 -2z"/>
<path d="M2046 53 c-6 -14 -5 -15 5 -6 7 7 10 15 7 18 -3 3 -9 -2 -12 -12z"/>
<path d="M2066 38 c-19 -31 -13 -37 11 -13 12 12 18 13 29 4 23 -19 22 -6 -2
17 l-22 21 -16 -29z"/>
<path d="M2136 53 c-6 -14 -5 -15 5 -6 7 7 10 15 7 18 -3 3 -9 -2 -12 -12z"/>
<path d="M193 33 c2 -25 7 -33 21 -33 17 0 18 2 4 18 -9 9 -18 24 -21 32 -3 8
-4 0 -4 -17z"/>
<path d="M1765 50 c-3 -6 1 -7 9 -4 18 7 21 14 7 14 -6 0 -13 -4 -16 -10z"/>
<path d="M1075 30 c3 -5 8 -10 11 -10 2 0 4 5 4 10 0 6 -5 10 -11 10 -5 0 -7
-4 -4 -10z"/>
<path d="M1494 18 l-19 -23 23 19 c12 11 22 21 22 23 0 8 -8 2 -26 -19z"/>
<path d="M1803 21 c0 -11 5 -18 9 -15 4 3 5 11 1 19 -7 21 -12 19 -10 -4z"/>
<path d="M1636 8 c3 -5 10 -6 15 -3 13 9 11 12 -6 12 -8 0 -12 -4 -9 -9z"/>
<path d="M83 3 c9 -2 23 -2 30 0 6 3 -1 5 -18 5 -16 0 -22 -2 -12 -5z"/>
</g>
</svg>
