<?xml version="1.0" encoding="utf-8"?>
<!-- Generator: Adobe Illustrator 25.0.0, SVG Export Plug-In . SVG Version: 6.00 Build 0)  -->
<svg version="1.1" id="Layer_1" xmlns="http://www.w3.org/2000/svg" xmlns:xlink="http://www.w3.org/1999/xlink" x="0px" y="0px"
	 viewBox="0 0 200 100" style="enable-background:new 0 0 200 100;" xml:space="preserve">
<style type="text/css">
	.st0{fill:#FFFFFF;}
</style>
<g>
	<path class="st0" d="M306.8,260.2c-137.9,0-275.8,0-413.8,0c0-140.1,0-280.2,0-420.2c137.9,0,275.8,0,413.8,0
		C306.8-19.9,306.8,120.2,306.8,260.2z M9.1-64C9.1-64,9.1-64.1,9.1-64c-0.2,0.2-0.2,0.5-0.4,0.6C5.1-61.3,1.5-59.4-2-57.1
		c-2.2,1.4-4.2,3.1-6.2,4.9c-1.4,1.3-2.7,2.7-4,4.1c-1.2,1.3-2.4,2.6-3.5,3.9c-1.9,2.3-3.8,4.6-5.8,6.9c-1.3,1.5-2.8,2.9-4,4.5
		c-1.3,1.6-2.4,3.4-3.6,5.1c-1.2,1.6-2.5,3.1-3.5,4.8c-1.6,3.1-3,6.3-4.3,9.4c-0.5,1.2-1,2.5-1.3,3.8c-0.4,1.8-0.5,3.6-1,5.4
		c-1.1,3.7-2.6,7.3-3.5,11.1c-0.3,1.5-0.7,2.4-1.8,3.5c-1.6,1.6-2.8,3.8-4.4,6c-0.2-0.7-0.4-1.2-0.4-1.6c0.2-1,0.4-2,0.7-3
		c1-2.9,1.9-5.9,3-8.8C-44-0.5-42.5-4-41-7.4c3.5-7.6,7.1-15.2,10.6-22.9c2.7-6,6.3-11.6,10.3-16.8c2.6-3.4,5.6-6.3,9.6-8
		c1-0.4,1.9-0.9,2.8-1.4c0.2-0.1,0.3-0.7,0.4-1c-0.3-0.1-0.7-0.3-0.9-0.2c-2.5,1.1-5.1,2-7.3,3.5c-4.1,2.7-6.9,6.7-9.8,10.6
		c-4.9,6.5-8,14-11.4,21.4c-1.6,3.4-3.1,6.8-4.7,10.2c-1.4,3-2.8,6-4,9.1C-47,1.3-48.4,5.8-50,10.2c-0.2,0.5-0.5,1-0.9,1.5
		c-0.7-0.8-1.3-1.5-1.8-2.2c-1.6-2.3-3-4.8-5.5-6.5c-1.5-1-2.9-2.2-4.2-3.4C-63.7-1.8-65.2-2-67-1.7C-68.3-1.4-69.5-0.3-71-1
		c-0.1-0.1-0.5,0.2-0.7,0.4c-0.6,0.7-1,1.4-1.7,2c-2.3,2.1-3.4,5-4.8,7.7c-1,1.9-1.2,4-1.2,6.1c0,1.5,0.5,3,0.9,4.5
		c0.9,3.2,1.9,6.5,3,9.7c1.1,3,2.5,6,3.9,8.8c1.4,2.7,3.1,5.3,4.5,8c1.1,2.1,2.2,4.1,3.9,5.8c0.9,0.9,1.6,1.9,2.3,2.9
		c0.3,0.4,0.5,1,0.4,1.5c-0.1,4.3-0.3,8.5-0.4,12.8c0,2-0.1,4,0.3,5.9c0.9,4.8,2.2,9.5,2.9,14.3c0.7,4.7,0.8,9.6,1.4,14.4
		c0.4,3.1,0.9,6.3,1.9,9.3c1.1,3.8,2.8,7.4,4.1,11.1c1.1,3.1,2.1,6.4,3.2,9.5c1.3,3.8,2.7,7.6,4.1,11.4c1.1,2.8,1.9,5.8,3.4,8.4
		c2.7,4.6,5.9,8.9,8.7,13.4c3,4.7,6.8,8.6,10.9,12.4c1,0.9,1.9,1.9,2.9,2.9c-0.1,0.1-0.1,0.2-0.2,0.3c-0.7,0-1.3-0.1-2-0.1
		c-1.8-0.2-3.5-0.6-5.3,0.2c-2.6,1.2-5.5,1.9-7.9,3.7c-3.6,2.6-7.5,4.7-10.5,8.3c-4.2,5-8.4,9.9-11.3,15.7c-0.9,1.9-2,3.7-3.1,5.5
		c-0.5,0.9-0.8,1.8-1.4,2.6c-1,1.3-1.5,2.6-1.1,4.3c0.3,1.2,1.1,1.6,2.1,0.8c0.6-0.4,1.1-0.9,1.7-1.3c2.4-1.7,4.8-3.5,6.7-5.9
		c1-1.2,2-2.5,3.1-3.8c2.1,2.4,3.2,0.3,4.2-0.7c1,0.4,1.8,0.9,2.5,0.8c0.8-0.1,1.5-0.8,2.6-1.3c-0.8,0.9-1.5,1.5-2,2.2
		c-0.7,0.8-0.8,2.7,0,3.3c1,0.8,1.9,1.2,3.3,0c0.3-0.3,0.8-0.7,1.2-0.7c1.7-0.1,3.5-0.2,4.6,1.6c-0.8,0.3-1.7,0.6-2.6,0.8
		c-2.9,0.7-5.8,1.3-8.7,1.9c-0.7,0.2-1.6,0.5-2.2,0.2c-1.7-0.6-3,0.1-4.5,0.6c-0.4,0.1-0.8,0.7-0.8,1.1c-0.3,1.9,0.4,2.5,2.7,2.6
		c-0.2,0.9-0.4,1.9-0.6,2.8c0.5-0.3,0.8-0.6,0.9-1c0.5-1.4,1.3-2.2,2.8-2.4c2.4-0.4,4.7-0.9,7.1-1.5c4.1-1,8.2-2,12.3-3.1
		c3.9-1,7.8-2.2,11.7-3.1c5.1-1.2,10.3-2.4,15.4-3.5c3.8-0.8,7.6-1.6,11.4-2.3c2.3-0.4,4.6-0.5,6.9-1.2c3.2-1,6.6-1.3,9.9-1.8
		c1.5-0.2,3.1-0.6,4.6-0.5c1.8,0.1,3.6,0.6,5.4,0.9c4.3,0.8,8.6,1.7,12.8,2.4c5.4,0.9,10.7,1.8,15.8,3.6c2.6,0.9,5.3,1.8,8,2
		c3.8,0.3,7.6-0.1,11.3-0.1c3.6,0,7.1,0.2,10.7,0.3c3.1,0.1,6.2,0.4,9.2,0c5.4-0.8,10.6-2.1,15.9-3.1c4.6-0.9,9.2-1.7,13.7-3.2
		c1.3-0.4,2.5-0.9,3.8-1.4c1.6-0.6,3.3-1.1,4.9-1.6c0.2-0.1,0.7,0,0.8,0.1c0.7,1.3,1.8,1.1,3.1,0.9c0.1,1.3,0.2,2.6,0.3,3.8
		c0.1,0.8-0.3,1.1-1,1.4c-1.9,0.8-3.8,1.7-5.7,2.6c-1.3,0.6-1.6,1.8-1,3.3c0.5-0.2,1.1-0.4,1.6-0.5c0.8-0.1,1.7,0,2.5-0.2
		c1.3-0.3,2.5-0.7,3.8-1c0.1,0.1,0.2,0.2,0.3,0.4c0.3,0.9,0.9,1.1,1.8,1c0.9-0.1,1.9-0.4,1.9-1.4c0-1.6,1.1-1.9,2.2-2.2
		c4.8-1.2,9.6-2.5,14.5-3.6c2.9-0.7,5.9-1.1,8.9-1.5c2.8-0.4,5.6-0.8,8.3-1.1c2.7-0.3,5.3-0.7,8-1c2-0.2,4.1-0.4,6.1-0.6
		c2.8-0.3,5.7-0.7,8.5-1c3.8-0.4,7.5-0.9,11.3-1.3c0.5-0.1,1.1,0.1,1.6,0.1c0.6,0.1,1.2,0.3,1.7,0.2c0.7-0.1,1.4-0.6,2.1-0.8
		c0.5-0.1,1.1-0.1,1.6,0.1c1.1,0.4,2.1,1.2,3.3,0.4c0.4-0.3,0.7-0.6,1.1-0.8c0.7-0.4,1.3-1,2.1-1.1c2.1-0.4,4.2-0.5,6.4-0.8
		c-1,1.2-2,2.4-3.7,2.6c-0.9,0.1-1.7,0.3-2.6,0.5c-3.6,0.7-7.1,1.3-10.7,1.9c-3.9,0.7-7.9,1.2-11.8,1.9c-2.4,0.4-4.7,0.7-7.1,1
		c-2.8,0.4-5.5,0.6-8.3,1.1c-4.6,0.7-9.2,1.5-13.7,2.3c-4.9,0.9-9.7,1.8-14.6,2.8c-3,0.6-5.9,1.3-8.9,2c-4.3,1-8.7,1.9-12.7,3.8
		c-0.7,0.3-1.2,1.5-0.9,2.2c0.4,0.8,0.8,1.4,1.9,0.9c0.8-0.4,1.6-0.8,2.4-1c4-1,8-1.9,12-2.9c5.3-1.3,10.7-2.5,16-3.8
		c0.3-0.1,0.7-0.4,1-0.4c2.1,0.3,3.9-0.7,5.9-1c1.5-0.2,3-0.5,4.5-0.7c1-0.2,2.3,0.1,3.1-0.4c1.3-0.8,2.7,0.2,4.2-0.6
		c1.3-0.7,3.2-0.3,4.9-0.6c3.1-0.5,6.2-1.3,9.3-1.8c1.7-0.3,3.5-0.3,5.2-0.5c4.3-0.6,8.6-1.4,12.9-2c3.1-0.4,6.2-0.6,9.3-0.8
		c1.4-0.1,2.1-0.6,2.1-2c0-0.5-0.2-1.1-0.3-1.6c0.4-0.4,0.8-0.8,1.3-1.2c0.5-0.4,1-0.6,1.4-1c1.4-1.1,1.9-1.1,3,0.1
		c0.7,0.7,1.4,0.8,2,0c0.5-0.7,0.7-1.6,1.2-2.7c0.4-0.4,1.1-1,1.8-1.6c-0.2-1.9-0.5-3.8-0.7-5.6c-0.3-3.7-1.6-7-3.5-10.1
		c-0.8-1.3-2.2-2.3-3.1-3.6c-1.6-2.3-3.5-4.3-5.9-5.7c-1.9-1.1-3.8-2-5.7-3.1c-1.5-0.9-3.1-1.3-4.8-1.1c-4,0.4-8,0.8-12,1.2
		c-0.8,0.1-1.6,0.1-2.4,0.2c-0.1-0.1-0.1-0.3-0.2-0.4c0.9-0.8,1.8-1.5,2.5-2.3c1.2-1.3,2.3-2.7,3.4-4.1c1-1.4,1.9-3,2.9-4.4
		c1.5-2.2,3.1-4.2,4.5-6.5c1.6-2.8,3-5.7,4.6-8.5c1.1-2.1,2.4-4.1,3.5-6.3c2.2-4.4,3-9.2,4.2-14c1.1-4.6,1.3-9.1,1-13.8
		c-0.2-4.4-0.1-8.9-0.2-13.3c0-2.4,0-4.9-0.2-7.3c-0.3-3.9-1-7.8-1.2-11.7c-0.3-6.9-0.5-13.7,0.7-20.6c0.4-2,0.1-4.1,0.3-6.2
		c0.1-0.8,0.2-1.7,0.6-2.3c1.1-1.8,2.4-3.4,3.6-5.1c1.8-2.6,3.8-5.2,5.4-8c1.5-2.5,2.7-5.2,3.9-7.8c0.7-1.5,1.3-3.1,1.9-4.8
		c1-3,2.1-6,2.9-9.1c0.9-3.9,0-7.9-0.9-11.7c-0.8-3.6-1.9-7.2-3-10.8c-0.3-0.9-0.9-1.7-1.7-2.3c-0.7-0.5-1.8-0.9-2.6-0.7
		c-1.2,0.2-2.4,0.9-3.5,1.6c-3.9,2.3-7.5,4.9-10.5,8.4c-1.6,2-3.5,3.8-5.1,5.7c-0.9,1.1-1.6,2.3-2.5,3.7c-0.3-0.5-0.5-0.9-0.6-1.2
		c-0.5-1.4-0.8-2.9-1.5-4.2c-2.4-4.8-4.8-9.5-7.3-14.3c-2.1-4-4.3-7.9-6.5-11.8c-1.9-3.4-3.7-6.8-6.6-9.5c-2.1-2-4.2-4-6.3-6.1
		c-0.9-0.9-2.1-1.9-2.4-3c-0.7-2.7-0.9-5.6-1.4-8.4c-0.4-2.3-0.6-4.6-1.4-6.8c-1.3-3.6-2.9-7.1-4.6-10.5c-1.6-3.2-3.4-6.3-5.2-9.4
		c-2.3-3.9-4.6-7.9-7.3-11.5c-2.4-3.1-5.4-5.8-8.2-8.6c-1.9-1.9-3.8-4-5.9-5.7c-2.2-1.8-4.6-3.4-7-5c-1.8-1.2-3.5-2.6-5.5-3.5
		c-2.9-1.3-5.9-2.5-9.1-2.9c-0.3,0-0.5-0.2-0.8-0.3c-3.5-1.1-7.1-2.2-10.6-3.2c-1.7-0.5-3.4-0.7-5-1.3c-2.1-0.8-4.3-1.3-6.5-1.7
		c-0.4-0.1-0.7-0.2-1.1-0.3c0.3-0.2,0.5-0.3,0.8-0.3c3.2-0.1,6-1,8.6-3c2.3-1.8,4.6-3.6,6.9-5.3c0.8-0.5,1.2-1.1,1.2-2.1
		c0-0.4,0.2-0.9,0.2-1.3c0.2-1.5,1.2-2.9,0.6-4.6c-0.5-1.3-0.9-2.7-1.5-4c-0.2-0.4-0.5-0.8-0.8-1.1c-2.2-2.2-4.9-3.5-8-3.5
		c-3.5,0-7,0.2-10.4,0.2c-0.2,0-0.4,0-0.5,0.1c-1.5,1.2-2.8,0.3-4.1-0.5c-1.9-1.3-3.7-2.8-6.1-3.2c-1.5-0.3-2.9-1.2-4.6-0.9
		c-1,0.2-2.1,0-3.1-0.2c-2.4-0.3-4.8-1.3-7.3-0.5c-1.2,0.4-2.4,0.5-3.6,0.9c-3.4,1-6.8,2-10.2,3.1c-1.6,0.5-3.2,1.1-4.7,1.9
		c-1.9,1.1-3.7,2.4-5.6,3.7c-3.3,2.3-6.3,4.9-8.2,8.5c-1.4,2.7-2.8,5.5-4.3,8.1c-1.5,2.6-1.1,5,0.4,7.3c1.6,2.5,4.3,3.6,6.7,5.1
		c2.3,1.4,4.7,1.6,7.2,1.5c2.5-0.1,5.1-0.3,7.6-0.2c4.1,0.2,8.1,0.7,12.2,1.1c1.5,0.1,2.9,0.3,4,1.4c2.8,2.8,5.4,5.6,5.2,10
		c0,0.9,0.3,1.9-0.1,2.6c-1.6,2.8-3.6,5.2-7.2,5.6c-1.7,0.2-3.3,0.4-4.9,1c-2.3,0.8-4.6,1.4-7,1.4c-1.3,0-2.5,0.2-3.8,0.3
		c-4.1,0.4-8.2,1.1-12.3,1.3c-5.4,0.3-10.5,1.6-15.7,3.1c-4.8,1.4-9.6,2.7-14.4,3.8c-4,0.9-7.8,2.1-11.1,4.4c-1.5,1.1-3,2-4.5,3.1
		c-2.7,1.8-5.5,3.6-8.2,5.5c-0.7,0.5-1.1,1.3-1.8,2.2c0.5,0.1,0.6,0.1,0.8,0.1C8.6-63.9,8.8-64,9.1-64z M146.5,208.9
		c-1.5,0-1.6,0.3-1.2,1.3c0.1,0.2-0.1,0.6,0,0.9c0.1,0.4,0.3,0.8,0.6,1.1c0.2,0.2,0.8,0.3,0.9,0.2c0.4-0.5,1-1.2,0.9-1.7
		C147.5,209.8,146.8,209.3,146.5,208.9z"/>
	<path d="M9.1-64c-0.3,0.1-0.5,0.2-0.8,0.2c-0.1,0-0.3,0-0.8-0.1c0.7-0.8,1.1-1.7,1.8-2.2c2.7-1.9,5.4-3.7,8.2-5.5
		c1.5-1,3-2,4.5-3.1c3.4-2.4,7.2-3.5,11.1-4.4c4.8-1.1,9.7-2.5,14.4-3.8c5.1-1.5,10.3-2.8,15.7-3.1c4.1-0.2,8.2-0.9,12.3-1.3
		c1.3-0.1,2.5-0.4,3.8-0.3c2.4,0,4.7-0.5,7-1.4c1.6-0.6,3.3-0.8,4.9-1c3.6-0.4,5.6-2.8,7.2-5.6c0.4-0.7,0.1-1.7,0.1-2.6
		c0.2-4.4-2.4-7.2-5.2-10c-1.1-1.1-2.5-1.3-4-1.4c-4.1-0.3-8.1-0.8-12.2-1.1c-2.5-0.1-5.1,0.1-7.6,0.2c-2.5,0.1-4.9-0.1-7.2-1.5
		c-2.4-1.5-5.1-2.6-6.7-5.1c-1.5-2.3-1.9-4.8-0.4-7.3c1.5-2.7,2.9-5.4,4.3-8.1c1.9-3.7,4.9-6.3,8.2-8.5c1.8-1.3,3.6-2.6,5.6-3.7
		c1.5-0.8,3.1-1.4,4.7-1.9c3.4-1.1,6.8-2.1,10.2-3.1c1.2-0.4,2.4-0.5,3.6-0.9c2.5-0.8,4.9,0.2,7.3,0.5c1,0.1,2.1,0.3,3.1,0.2
		c1.7-0.3,3.1,0.7,4.6,0.9c2.4,0.4,4.2,1.9,6.1,3.2c1.3,0.9,2.5,1.7,4.1,0.5c0.1-0.1,0.3-0.1,0.5-0.1c3.5-0.1,7-0.3,10.4-0.2
		c3.1,0,5.8,1.3,8,3.5c0.3,0.3,0.7,0.7,0.8,1.1c0.5,1.3,1,2.7,1.5,4c0.6,1.6-0.4,3-0.6,4.6c-0.1,0.4-0.2,0.9-0.2,1.3
		c0,0.9-0.4,1.5-1.2,2.1c-2.4,1.7-4.6,3.5-6.9,5.3c-2.5,1.9-5.4,2.9-8.6,3c-0.3,0-0.5,0.1-0.8,0.3c0.4,0.1,0.7,0.2,1.1,0.3
		c2.2,0.3,4.4,0.8,6.5,1.7c1.6,0.6,3.4,0.8,5,1.3c3.6,1,7.1,2.1,10.6,3.2c0.3,0.1,0.5,0.2,0.8,0.3c3.2,0.4,6.2,1.6,9.1,2.9
		c1.9,0.9,3.7,2.2,5.5,3.5c2.4,1.6,4.8,3.2,7,5c2.1,1.7,3.9,3.8,5.9,5.7c2.8,2.8,5.8,5.5,8.2,8.6c2.7,3.6,5,7.6,7.3,11.5
		c1.8,3.1,3.6,6.2,5.2,9.4c1.7,3.4,3.3,6.9,4.6,10.5c0.8,2.1,1,4.5,1.4,6.8c0.5,2.8,0.7,5.6,1.4,8.4c0.3,1.1,1.5,2.1,2.4,3
		c2.1,2.1,4.2,4.1,6.3,6.1c2.9,2.7,4.7,6.1,6.6,9.5c2.2,3.9,4.4,7.9,6.5,11.8c2.5,4.7,4.9,9.5,7.3,14.3c0.7,1.3,1,2.8,1.5,4.2
		c0.1,0.3,0.3,0.7,0.6,1.2c0.9-1.4,1.6-2.7,2.5-3.7c1.6-2,3.5-3.8,5.1-5.7c2.9-3.5,6.5-6.2,10.5-8.4c1.1-0.6,2.2-1.3,3.5-1.6
		c0.8-0.2,1.9,0.2,2.6,0.7c0.7,0.5,1.4,1.4,1.7,2.3c1.1,3.6,2.2,7.2,3,10.8c0.9,3.9,1.8,7.8,0.9,11.7c-0.7,3.1-1.8,6.1-2.9,9.1
		c-0.5,1.6-1.2,3.2-1.9,4.8c-1.2,2.6-2.4,5.3-3.9,7.8c-1.6,2.8-3.6,5.3-5.4,8c-1.2,1.7-2.5,3.4-3.6,5.1c-0.4,0.6-0.6,1.5-0.6,2.3
		c-0.1,2.1,0.1,4.2-0.3,6.2c-1.2,6.8-0.9,13.7-0.7,20.6c0.2,3.9,0.8,7.8,1.2,11.7c0.2,2.4,0.2,4.9,0.2,7.3c0.1,4.4,0,8.9,0.2,13.3
		c0.3,4.7,0.1,9.2-1,13.8c-1.2,4.7-2,9.6-4.2,14c-1,2.1-2.3,4.2-3.5,6.3c-1.5,2.8-2.9,5.8-4.6,8.5c-1.3,2.2-3,4.3-4.5,6.5
		c-1,1.5-1.9,3-2.9,4.4c-1,1.4-2.2,2.8-3.4,4.1c-0.8,0.9-1.7,1.6-2.5,2.3c0.1,0.1,0.1,0.3,0.2,0.4c0.8-0.1,1.6-0.1,2.4-0.2
		c4-0.4,8-0.8,12-1.2c1.7-0.2,3.3,0.2,4.8,1.1c1.8,1.1,3.8,2,5.7,3.1c2.4,1.4,4.3,3.4,5.9,5.7c0.9,1.3,2.3,2.2,3.1,3.6
		c1.9,3.1,3.2,6.4,3.5,10.1c0.2,1.9,0.4,3.8,0.7,5.6c-0.7,0.6-1.4,1.2-1.8,1.6c-0.5,1.1-0.7,2-1.2,2.7c-0.5,0.8-1.3,0.8-2,0
		c-1.1-1.2-1.7-1.2-3-0.1c-0.5,0.4-1,0.6-1.4,1c-0.4,0.4-0.8,0.8-1.3,1.2c0.1,0.5,0.3,1.1,0.3,1.6c0.1,1.4-0.7,1.9-2.1,2
		c-3.1,0.2-6.2,0.4-9.3,0.8c-4.3,0.6-8.6,1.4-12.9,2c-1.7,0.3-3.5,0.2-5.2,0.5c-3.1,0.5-6.2,1.3-9.3,1.8c-1.6,0.3-3.5-0.1-4.9,0.6
		c-1.4,0.8-2.8-0.2-4.2,0.6c-0.8,0.5-2,0.3-3.1,0.4c-1.5,0.2-3,0.5-4.5,0.7c-2,0.3-3.8,1.3-5.9,1c-0.3,0-0.6,0.3-1,0.4
		c-5.3,1.3-10.7,2.5-16,3.8c-4,0.9-8,1.9-12,2.9c-0.8,0.2-1.7,0.6-2.4,1c-1.1,0.6-1.5-0.1-1.9-0.9c-0.3-0.7,0.2-1.8,0.9-2.2
		c4-2,8.4-2.8,12.7-3.8c3-0.7,5.9-1.4,8.9-2c4.9-1,9.7-1.9,14.6-2.8c4.6-0.8,9.1-1.6,13.7-2.3c2.7-0.4,5.5-0.7,8.3-1.1
		c2.4-0.3,4.7-0.7,7.1-1c3.9-0.6,7.9-1.2,11.8-1.9c3.6-0.6,7.1-1.3,10.7-1.9c0.9-0.2,1.7-0.4,2.6-0.5c1.7-0.2,2.7-1.4,3.7-2.6
		c-2.1,0.3-4.3,0.4-6.4,0.8c-0.7,0.1-1.4,0.7-2.1,1.1c-0.4,0.2-0.7,0.6-1.1,0.8c-1.2,0.8-2.2,0-3.3-0.4c-0.5-0.2-1.1-0.2-1.6-0.1
		c-0.7,0.2-1.4,0.6-2.1,0.8c-0.5,0.1-1.1-0.2-1.7-0.2c-0.5-0.1-1.1-0.2-1.6-0.1c-3.8,0.4-7.5,0.8-11.3,1.3c-2.8,0.3-5.7,0.7-8.5,1
		c-2,0.2-4.1,0.4-6.1,0.6c-2.7,0.3-5.3,0.6-8,1c-2.8,0.4-5.6,0.7-8.3,1.1c-3,0.5-6,0.9-8.9,1.5c-4.9,1.1-9.7,2.4-14.5,3.6
		c-1.1,0.3-2.2,0.6-2.2,2.2c0,0.9-1,1.2-1.9,1.4c-0.8,0.1-1.5-0.2-1.8-1c0-0.1-0.2-0.3-0.3-0.4c-1.3,0.4-2.5,0.8-3.8,1
		c-0.8,0.2-1.7,0.1-2.5,0.2c-0.6,0.1-1.1,0.3-1.6,0.5c-0.6-1.4-0.2-2.6,1-3.3c1.9-0.9,3.8-1.7,5.7-2.6c0.6-0.3,1.1-0.6,1-1.4
		c-0.2-1.2-0.2-2.5-0.3-3.8c-1.3,0.2-2.4,0.4-3.1-0.9c-0.1-0.1-0.6-0.2-0.8-0.1c-1.7,0.5-3.3,1.1-4.9,1.6c-1.3,0.4-2.5,0.9-3.8,1.4
		c-4.5,1.5-9.1,2.3-13.7,3.2c-5.3,1-10.6,2.3-15.9,3.1c-3,0.4-6.1,0.1-9.2,0c-3.6-0.1-7.1-0.3-10.7-0.3c-3.8,0-7.6,0.4-11.3,0.1
		c-2.7-0.2-5.4-1-8-2c-5.1-1.8-10.5-2.7-15.8-3.6c-4.3-0.7-8.6-1.6-12.8-2.4c-1.8-0.3-3.6-0.8-5.4-0.9c-1.5-0.1-3.1,0.2-4.6,0.5
		c-3.3,0.5-6.7,0.8-9.9,1.8c-2.3,0.7-4.6,0.9-6.9,1.2c-3.8,0.6-7.6,1.5-11.4,2.3c-5.2,1.1-10.3,2.3-15.4,3.5
		c-3.9,1-7.8,2.1-11.7,3.1c-4.1,1.1-8.2,2.1-12.3,3.1c-2.3,0.6-4.7,1.1-7.1,1.5c-1.5,0.2-2.3,1.1-2.8,2.4c-0.1,0.4-0.4,0.8-0.9,1
		c0.2-0.9,0.4-1.8,0.6-2.8c-2.3-0.1-2.9-0.7-2.7-2.6c0.1-0.4,0.4-1,0.8-1.1c1.4-0.5,2.8-1.2,4.5-0.6c0.6,0.2,1.5-0.1,2.2-0.2
		c2.9-0.6,5.8-1.2,8.7-1.9c0.9-0.2,1.7-0.5,2.6-0.8c-1-1.8-2.8-1.6-4.6-1.6c-0.4,0-0.9,0.4-1.2,0.7c-1.3,1.2-2.3,0.8-3.3,0
		c-0.7-0.6-0.7-2.5,0-3.3c0.6-0.7,1.2-1.3,2-2.2c-1.1,0.6-1.8,1.3-2.6,1.3c-0.7,0.1-1.5-0.5-2.5-0.8c-1,1-2.1,3.1-4.2,0.7
		c-1.1,1.4-2.1,2.6-3.1,3.8c-1.9,2.4-4.2,4.2-6.7,5.9c-0.6,0.4-1.1,0.9-1.7,1.3c-1,0.8-1.8,0.4-2.1-0.8c-0.5-1.7,0.1-3,1.1-4.3
		c0.6-0.8,0.9-1.7,1.4-2.6c1-1.8,2.1-3.6,3.1-5.5c2.9-5.9,7.1-10.8,11.3-15.7c3-3.5,6.9-5.6,10.5-8.3c2.4-1.8,5.3-2.5,7.9-3.7
		c1.8-0.8,3.5-0.4,5.3-0.2c0.7,0.1,1.3,0.1,2,0.1c0.1-0.1,0.1-0.2,0.2-0.3c-1-1-1.9-1.9-2.9-2.9c-4-3.8-7.9-7.7-10.9-12.4
		c-2.9-4.5-6-8.8-8.7-13.4c-1.5-2.6-2.4-5.6-3.4-8.4c-1.4-3.8-2.8-7.6-4.1-11.4c-1.1-3.2-2-6.4-3.2-9.5c-1.3-3.7-3-7.3-4.1-11.1
		c-0.9-3-1.5-6.2-1.9-9.3c-0.6-4.8-0.7-9.6-1.4-14.4c-0.7-4.8-2-9.5-2.9-14.3c-0.4-1.9-0.3-4-0.3-5.9c0.1-4.3,0.3-8.5,0.4-12.8
		c0-0.5-0.2-1.1-0.4-1.5c-0.7-1-1.4-2-2.3-2.9c-1.7-1.7-2.8-3.7-3.9-5.8c-1.4-2.7-3.2-5.3-4.5-8c-1.5-2.9-2.8-5.8-3.9-8.8
		c-1.2-3.2-2.1-6.4-3-9.7c-0.4-1.5-0.9-3-0.9-4.5c0-2.1,0.2-4.2,1.2-6.1c1.4-2.7,2.5-5.6,4.8-7.7c0.6-0.6,1.1-1.4,1.7-2
		c0.2-0.2,0.5-0.5,0.7-0.4c1.5,0.8,2.7-0.4,4.1-0.6c1.8-0.3,3.3-0.1,4.7,1.2c1.3,1.2,2.7,2.4,4.2,3.4c2.4,1.7,3.8,4.2,5.5,6.5
		c0.5,0.7,1.1,1.4,1.8,2.2c0.3-0.5,0.7-1,0.9-1.5c1.6-4.4,3-8.8,4.7-13.2c1.2-3.1,2.6-6.1,4-9.1c1.5-3.4,3.1-6.8,4.7-10.2
		c3.4-7.4,6.5-14.8,11.4-21.4c2.9-3.9,5.6-7.9,9.8-10.6c2.3-1.5,4.9-2.4,7.3-3.5c0.2-0.1,0.6,0.2,0.9,0.2c-0.1,0.3-0.1,0.9-0.4,1
		c-0.9,0.5-1.8,1-2.8,1.4c-4,1.7-7,4.6-9.6,8c-4,5.2-7.6,10.7-10.3,16.8c-3.5,7.7-7.1,15.2-10.6,22.9C-42.5-4-44-0.5-45.4,3
		c-1.1,2.9-2,5.9-3,8.8c-0.3,1-0.6,2-0.7,3c-0.1,0.4,0.2,0.9,0.4,1.6c1.6-2.2,2.7-4.3,4.4-6c1.1-1.1,1.5-2.1,1.8-3.5
		c0.9-3.8,2.4-7.4,3.5-11.1c0.5-1.7,0.6-3.6,1-5.4c0.3-1.3,0.7-2.6,1.3-3.8c1.4-3.2,2.7-6.4,4.3-9.4c0.9-1.7,2.3-3.2,3.5-4.8
		c1.2-1.7,2.3-3.5,3.6-5.1c1.2-1.6,2.7-3,4-4.5c1.9-2.3,3.8-4.6,5.8-6.9c1.1-1.3,2.3-2.6,3.5-3.9c1.3-1.4,2.5-2.9,4-4.1
		c2-1.7,4-3.5,6.2-4.9c3.5-2.2,7.1-4.2,10.6-6.3C8.8-63.6,8.9-63.9,9.1-64c0.3-0.1,0.7-0.2,1.1-0.4c1.7-0.7,3.4-1.5,5.2-2.2
		c2-0.8,4-1.4,6.1-2.1c0.2-0.1,0.6,0,0.9,0c-1.5,1.3-3,2.2-4.9,2.4c-0.3,0-0.5,0.1-0.8,0.3c-2.9,1.4-5.9,2.7-8.7,4.2
		c-3.6,2-7.4,3.8-10.6,6.3c-3.4,2.6-6.3,5.7-9.2,8.9c-2.7,3.1-5,6.6-7.8,9.6c-2.7,2.9-5,6.3-7.4,9.5c-1.6,2.2-3.3,4.4-4.6,6.8
		c-1.5,2.7-2.6,5.6-3.8,8.5c-0.4,1-0.6,2.1-0.9,3.2c-0.4,1.6-0.5,3.2-1,4.7c-0.8,2.6-1.8,5.1-2.7,7.7c-0.2,0.6-0.4,1.3-0.4,2
		c-0.1,1.4,0,2.8,0,4.5c0.3,0.2,0.9,0.6,1.4,1.1c2.7,2.9,3.7,6.3,3.5,10.1c-0.1,2.2-0.7,4.3-1.1,6.4c-0.2,1.1-0.6,2.2-0.5,3.2
		c0.1,1.2,0.6,2.3,1,3.4c0.1,0.3,0.3,0.5,0.5,0.7c0.7,0.8,1.8,1.4,2.1,2.4c0.8,2.1,1.4,4.2,2,6.4c0.2,0.9,0.4,1.7,1.5,1.8
		c0.3,0,0.5,0.5,0.7,0.8c1.5,2.4,2.8,4.9,4.5,7.2c1.5,2.1,3.2,4.1,5,5.9c1.9,1.9,3.9,4.1,6.6,4.8c2.5,0.7,4.7,1.9,6.8,3.4
		c0.7,0.5,1.7,0.6,2.6,0.9c0.1-0.1,0.1-0.3,0.2-0.4c-0.3-0.2-0.5-0.4-0.8-0.5c-4.3-1.4-7.5-4.6-11.2-7c-3.3-2.2-5.6-5.4-7.5-8.9
		c-1.2-2.2-2.3-4.6-2.6-7c-0.7-5.3,0.6-10.5,2.1-15.7c0.9-2.9,2.3-5.6,4.1-8.1c1.7-2.3,3.3-4.7,5-7c0.9-1.1,1.9-2.3,3.1-3
		c2.1-1.3,4.4-2.3,6.6-3.3C-2.1,6.4,0.8,6.8,3.6,7c1.9,0.1,4,0,5.4,1.8c0,0,0.1,0,0.3,0c0.1-0.2,0.1-0.5,0.2-0.8
		c0.2-2,0.3-3.9,0.4-5.9c0.4-5.4,1.9-10.5,4-15.5c1.9-4.3,3.7-8.6,5.6-12.8c0.5-1,1.1-1.8,0-2.8c-0.2-0.2-0.3-0.8-0.3-1.1
		c0.1-2.2,0.1-4.5,0.5-6.7c1-5.8,3.7-11,6.7-16C30-58.7,34.1-64,39.7-68.2c1.6-1.2,3.2-2.4,4.9-3.4c1.9-1.1,3.9-2.1,5.9-3.1
		c1.2-0.6,2.3-1.4,3.5-1.8c3.2-1.1,6-3,9.4-3.9c3.1-0.9,6-2.6,9.1-4c1-0.4,2-0.8,3-1.2c0-0.1-0.1-0.3-0.1-0.4
		c-1.7,0.2-3.4,0.3-5,0.5c-5,0.6-10.1,1.1-15.1,1.8c-2.1,0.3-4.2,0.9-6.3,1.5c-3.7,1.1-7.4,2.5-11.2,3.4c-5.9,1.4-11.8,2.5-16.8,6.2
		C17-69.6,13-66.9,9.1-64z M157.3,125.3c-1.3-1.6-2.8-3.1-3.8-4.8c-2.2-3.8-4.2-7.8-5.3-12.1c-0.7-2.9-1.8-5.6-2.5-8.5
		c-0.9-3.5-1.4-7.1-0.4-10.6c0.7-2.3,1.6-4.5,2.7-6.6c2.1-4.2,4.9-8,8.4-11.2c2.6-2.4,5.2-4.8,7.6-7.4c1.7-1.9,3-4.2,4.4-6.4
		c0.4-0.6,0.4-1.3,0.7-2c0.8-1.7,1.8-3.4,2.4-5.1c0.2-0.6,0-1.8-0.4-2.3c-0.8-0.8-0.9-1.7-0.8-2.7c0-0.4,0.2-0.9,0.2-1.3
		c0-2.6,1-4.7,2.6-6.7c0.8-0.9,0.6-1.7-0.1-2.6c-0.6-0.7-0.8-1.6-1.1-2.5c-0.2-0.7-0.1-1.6-0.5-2.1c-1.6-2.2-3.2-4.5-5-6.6
		c-0.8-0.9-1.6-2-3.1-2c-0.7,0-1.3-0.4-1.4-1.3c0-0.3-0.5-0.6-0.8-0.8c-1.8-0.8-3.5-1.7-5.4-2.3c-2.7-0.9-5.5-1.9-8.3-2.2
		c-5.2-0.5-10.4-0.7-15.7-0.7c-1.6,0-3.2,0.8-4.8,1.3c-0.3,0.1-0.5,0.4-0.7,0.6c-0.7,1-1.2,2.1-2,3c-2.1,2.5-4.4,4.8-7.7,5.7
		c-3.2,0.9-6.6,1.3-9.9,1.9c-0.3,0.1-0.7,0.1-1.1,0c-3.4-0.7-7-0.2-10.4-1.5c-1-0.4-2.1-0.2-3.2-0.4c-2.4-0.4-4.8-0.9-7.1-1.5
		c-2.5-0.7-4.8-1.9-6.7-3.7c-2.9-2.6-4.8-5.8-5.9-9.5c-0.5-1.8-0.8-1.9-2.6-1.4c-0.4,0.1-1,0.3-1.3,0.1c-2.4-1.5-4.9-1-7.2-0.3
		c-4.4,1.1-8.7,2.6-12.9,4.2c-3.5,1.3-6.8,3-10.1,4.6c-3.2,1.6-6.2,3.7-8.3,6.7c-2,2.7-3.9,5.4-4.6,8.8c-0.4,1.9-1.2,3.7-1.5,5.7
		c-0.5,4.2,0.1,8.4,0.9,12.5c0.2,0.8,0.4,1.6,0.6,2.5c0.4-0.3,0.6-0.6,0.9-0.7c0.4-0.1,1-0.4,1.3-0.2c0.6,0.4,1,1,1.4,1.6
		c0.2,0.4,0.1,0.9,0.2,1.3c0.2,1,0.8,1.9-0.2,2.8c-1.2,1-1.4,2.3-1.2,3.7c0.1,1.2,0.3,2.4,0.6,3.5c0.6,2,0.9,4.2,1.9,6
		c3.7,6.6,8.2,12.7,13.1,18.5c5.2,6.1,11,11.4,17.7,15.9c4.1,2.7,8.3,5.2,12.2,8.2c3.8,2.8,7.9,4.8,12.2,6.5c4.1,1.7,8.3,3,12.5,4.3
		c4.8,1.5,9.7,2.8,14.8,3.3c2.8,0.3,5.6,0.6,8.4,0.9c2.6,0.3,5.1,0.9,7.7,1c5,0.2,9.8-0.2,14.7-1.6c3.1-0.9,6.1-1.8,8.8-3.4
		c0.4-0.2,1.1,0.1,1.6,0.2c0.4,0.1,0.9,0.3,1.2,0.2C156,125.9,156.6,125.5,157.3,125.3z M231.3,66.7c-1.5-0.6-2.8-1.4-4.2-1.6
		c-5.3-0.7-10.2,0.9-14.3,4c-3.7,2.7-7.1,5.9-10.3,9.3c-9.1,9.6-18,19.5-27.1,29.2c-4,4.3-5.9,9.4-6.9,15c-0.1,0.6-0.4,1.1-0.5,1.7
		c-0.2,0.8-0.6,1.7-0.6,2.5c0.1,2.4,0.5,4.8,0.7,7.3c0.5,4.9,1.6,9.8,3.5,14.4c1.8,4.3,3.1,8.8,5.8,12.6c3.1,4.3,5.5,9.2,9.9,12.5
		c1.8,1.3,3.6,2.5,5.3,3.9c0.8,0.7,1.4,0.8,2.3,0.4c3.6-1.3,7.3-2.5,10.9-3.9c1.3-0.5,2.7-1,3.7-1.9c1.6-1.4,3-3,4.5-4.6
		c2.1-2.1,4.3-4,6.3-6.2c3.5-3.9,6.5-8.3,8.9-13c1.8-3.5,3.7-7,5.5-10.5c0.8-1.6,1.7-3.3,2.2-5c0.9-2.9,1.6-5.8,2.3-8.7
		c0.9-3.5,1.5-7.1,1.3-10.8c-0.2-5-0.3-10.1-0.4-15.1c0-1.7,0.2-3.4,0.1-5c-0.5-6.5-1.1-13-1.5-19.6c-0.4-5.7-0.1-11.3,0.8-17
		c0.1-0.9,0-1.9,0-2.9c-0.1,0-0.3-0.1-0.4-0.1c-0.5,0.6-1.1,1.2-1.5,1.9c-0.7,1-1.7,1.2-2.5,0.4c-0.9-0.9-1-2.7-0.1-3.6
		c1.1-1.3,2.2-2.7,3.4-4c0.7-0.8,0.6-1.5,0.1-2.7c-0.8,0.5-1.8,0.8-2,1.4c-0.8,2.3-1.8,4.5-3.6,6.2c-1.1,1-1.4,2.3-1.2,3.7
		c0.1,0.8,0.6,1.5,0.7,2.3c0.2,1.2,0.5,2.5,0.3,3.7C232.5,64.2,231.8,65.4,231.3,66.7z M-50.1,62.5c-0.7,2.4-1.1,4.5-0.9,6.6
		c0.1,1.5,0.4,3.1,0.4,4.6c0,2.2-0.4,4.4-0.5,6.7c0,1.4,0.1,2.9,0.3,4.3c0.4,2.5,0.9,5,1.5,7.5c0.6,3,1.3,5.9,2,8.8
		c0.7,2.9,1.6,5.7,2.3,8.5c0.9,3.8,1.8,7.5,4,10.8c1.5,2.2,3,4.6,3.5,7.3c0.6,3.1,2.3,5.7,4,8.2c1.5,2.3,3,4.6,4.2,7.1
		c1.1,2.1,2.2,4.2,4,5.7c2.1,1.8,3.8,4,5.4,6.3c1,1.6,2.3,3,3.5,4.5c1.6,1.8,3.2,3.5,4.8,5.3c1.2,1.4,2.3,2.9,3.6,4.2
		c1.8,1.8,3.9,3.5,5.7,5.3c2.8,2.7,5.1,5.8,8.4,8c1.3,0.8,2.2,2,3.9,2.2c0.9,0.1,1.8,0.3,2.7,0.5c0.7,0.1,1.2,0,1.4-0.7
		c0.3-0.9,0.7-1.9,1.1-2.8c1.1-2.3,2.2-4.6,3.2-7c1.1-2.6,2.2-5.3,3-8c1.3-3.9,2.3-7.9,3.4-11.9c0.3-0.9,0.6-1.8,0.7-2.8
		c0.2-2.8,0.2-5.7,0.5-8.5c0.5-5.4-0.3-10.8-0.9-16.1c-0.4-2.8-1.2-5.5-1.8-8.3c-0.3-1.5-0.4-3.1-1.2-4.3c-0.9-1.6-1.2-3.3-1.7-4.9
		c-0.2-0.8-0.4-1.6-0.5-2.5c-0.7-3.6-2.5-6.4-5.8-8.3c-0.3-0.2-0.6-0.5-0.9-0.8c-1.9-1.7-3.7-3.5-5.8-5c-2.9-2.3-6-4.3-8.9-6.5
		c-5.2-3.9-11.1-6.6-17-9.1c-6.1-2.7-12.7-4.4-18.6-7.7c-1.1-0.6-1.6-0.3-2.3,0.6c-1.8,2.3-3,2.5-5.6,1.3c-0.2-0.1-0.4-0.2-0.7-0.3
		c-1.8-0.8-2.3-2.5-1.4-4.1c0.2-0.3,0.4-0.6,0.5-1c0.1-0.4,0-0.9-0.2-1.1C-47.7,64.2-48.8,63.4-50.1,62.5z M57.6,201.6
		c1.3-0.2,2.5,0.8,2.2,2.1c-0.2,0.7-0.3,1.6-1.5,1.7c-1.7,0.2-3.6-0.1-5.2,1c-0.5,0.3-1.3,0-2,0c-0.3,0-0.7-0.1-1.3-0.2
		c0.4,0.3,0.5,0.4,0.6,0.5c4.7,1.8,9.7,2.5,14.7,3c1.9,0.2,3.7,0.2,5.6,0.3c4.5,0.3,9.1,0.8,13.6,0.8c5.1,0,10.2-0.6,15.3-0.8
		c4.4-0.2,8.9-0.2,13.3-0.3c3.2-0.1,6.3,0,9.4-0.3c3.1-0.3,6.1-1,9.2-1.5c5.9-0.9,11.7-1.9,17.4-4.2c-0.1-0.7-0.1-1.6-0.3-2.3
		c-0.5-1.4-1-2.6-1-4.1c-0.1-2.8-0.9-5.6-1.3-8.4c-0.4-2.5-0.6-5.1-2-7.3c-1.8-2.8-3.6-5.5-5.6-8.2c-2.7-3.7-6.5-6.1-10.6-7.7
		c-5.3-2-10.9-3.4-16.3-5.1c-1.1-0.3-2.3-0.7-3.5-0.9c-5.1-0.6-10.2,0.1-15.3,0.4c-1,0.1-2,0.2-3,0.4c-2.8,0.5-5.6,1.3-8.5,1.5
		c-3.4,0.3-6.7,1.2-9.6,2.9c-4.2,2.6-8.3,5.2-12.4,7.9c-2.5,1.7-5.2,3.1-7,5.7c-0.9,1.2-1.6,2.5-2.8,3.6c-2.5,2.2-3,5.6-4.2,8.5
		c0,0.1,0,0.3,0,0.5c1.6,0.1,3.1,0.2,4.6,0.3c3.3,0.1,6.6,0.2,9.9,0.3c1.4,0,2.8-0.1,4.2,0c1,0,2,0.8,2.1,1.7c0.1,1,0,2-1.1,2.3
		c-1,0.3-2,0.3-3.1,0.2c-3.6-0.2-7.2-0.3-10.8-0.7c-1.8-0.2-2.9,0.8-4.1,1.9c1.6,2.6-0.9,3.6-1.9,5c1.8-0.5,3.7-1.1,5.7-1.3
		c2-0.3,4-0.3,5.9-0.4C57.2,200.9,57.4,201.2,57.6,201.6z M133.2,11.8c0.7,0.1,1.1,0.3,1.6,0.3c3.5,0.1,6.9,0.1,10.4,0.4
		c2.8,0.3,5.6,1,8.4,1.7c2.6,0.6,5.2,1.2,7.5,2.7c1.1,0.7,1.7,0.5,2.2-0.7c1.2-2.8,0.9-5.8,0.9-8.7c0-1.2-0.5-2.4-0.5-3.6
		c0-1.4,0.3-2.7,0.4-4.1c0.2-1.6,0.4-3.1,0.6-4.7c0.2-1.7,0.4-3.5,0.4-5.2c0.1-2.1,0.3-4.2,0.1-6.3c-0.4-3.7-2.2-6.9-3.7-10.2
		c-0.6-1.3-1.2-2.5-2-3.6c-1.8-2.4-3.7-4.8-5.6-7.2c-1-1.2-1.9-2.5-3-3.7c-2.9-3.2-7.3-3.2-10.7-5.2c-0.1-0.1-0.2,0-0.4-0.1
		c-2.6-0.6-5.4-0.1-7.9-1.6c-0.1-0.1-0.3,0-0.5-0.1c-1.6-0.2-3.3-0.5-4.9-0.7c-1.5-0.2-3-0.5-4.4-0.6c-0.7-0.1-1.3,0.1-2,0.1
		c-3.1,0.2-6.2,0.3-9.3,0.5c-1,0.1-2.1,0.1-3.1,0.2c-1.4,0.1-2.7,0.3-4.1,0.5c-0.4,0-0.8,0.2-1.2,0.2c-2,0.2-4.1,0-5.9,0.6
		c-4.3,1.5-8.9,1.6-13.2,2.7c-0.6,0.2-1.3,0.3-1.9,0.2c-1.8-0.1-3.4,0.3-5.1,1.1c-1.8,0.9-3.8,1.5-5.6,2.3c-0.5,0.2-1.3,1-1.2,1.2
		c0.5,1.2-0.4,1.3-1.1,1.7c-0.5,0.3-1,0.7-1.5,0.9c-0.6,0.2-1.2,0.5-1.8,0.4c-0.3,0-0.5-0.7-0.7-1.1c-0.9,0.5-1.8,1.3-2.8,1.5
		c-1.1,0.2-1.5,0.5-1.2,1.7c-0.7,0.2-1.4,0.4-2.1,0.6c-0.5,0.1-1.2,0.1-1.6,0.4c-2.2,1.3-4.2,2.9-6.4,4.2c-3.3,2-6.4,4.3-8.9,7.3
		c-1.1,1.4-2.5,2.5-3.5,3.9c-3.7,5.4-6.5,11.4-9.3,17.3C27.2,1.9,26.3,5,25.9,8c-0.7,4.5-0.8,9.1-1,13.7c0,1.2,0.7,2.5,1.2,3.7
		c0.1,0.1,0.7,0.3,0.9,0.1c1-1.2,2.2-2.4,2.9-3.7c0.7-1.4,1.4-2.5,2.9-3c0.5-0.2,0.9-0.7,1.4-1c1.2-0.8,2.4-1.5,3.7-2.2
		c0.4-0.2,0.9-0.3,1.1-0.6c0.9-1.4,2.4-1.5,3.7-2c1.8-0.7,3.9-0.9,5.3-1.9c1.6-1.1,3.3-1.5,5-2c1.7-0.5,3.3-1.5,5-1.9
		c2.8-0.7,5.5-1.4,8.5-0.7c0.8,0.2,1.7,0.4,2.6,0.4c0.8,0,1.7-0.4,2.6-0.6c0-0.2,0.1-0.6,0.1-0.9C71-0.5,74.3-4.6,78.1-8.3
		c1.2-1.1,2.6-1.7,4.2-2.2c4.3-1.3,8.5-2.5,13-2.7c0.3,0,0.8-0.5,0.9-0.8c0.4-1.8,0.5-3.6,0.9-5.3c0.6-2.5,1.2-4.9,2.9-6.9
		c1.1-1.2,2.2-2.4,3.3-3.6c2.4-2.5,4.6-5.1,7.8-6.6c1.5-0.7,2.9-1.7,4.5-2.1c2-0.6,4-0.8,6.1-1.1c1.3-0.2,2.8-0.3,4,0
		c4.5,1.2,8.8,3.3,12.5,6.1c2.2,1.6,4,3.7,6,5.7c2.4,2.3,4.1,4.9,4.8,8.2c0.3,1.4,0.5,2.9,0.7,4.4c0.8,5.5-0.5,10.6-3.2,15.4
		c-1.1,1.9-2.8,3.3-4.3,4.8c-0.5,0.6-1.2,1.1-1.8,1.5c-1.6,1.1-3.3,2.1-4.8,3.3C134.6,10.2,134,11,133.2,11.8z M138.9-68.4
		c0-0.1,0.1-0.2,0.1-0.3c-1.1-0.3-2.3-0.7-3.4-0.8c-2.7-0.5-5.4-0.7-8-1.3c-1.8-0.4-3.5-0.4-5.2-0.2c-1.8,0.2-3.6,0.4-5.4,0.4
		c-1.7,0-3.5-0.3-5.2-0.4c-1.8-0.1-3.7-0.1-5.5-0.1c-1,0-2,0.4-2.9,0.5c-2.5,0.3-5,0.4-7.5,0.8c-1.9,0.3-3.8,1.3-5.7,1.3
		c-2.7,0-5.3,0.6-7.8,1.6c-2.6,1-5.4,1.8-8,3c-5.4,2.4-10.3,5.7-15.7,8.3c-5.4,2.5-10.4,5.9-15.4,9.2c-2.9,1.9-5.4,4.5-7.9,6.9
		c-1.7,1.6-3.2,3.3-4.8,5c-2.1,2.2-4.3,4.3-5.7,7.2c-1.2,2.4-2.7,4.6-3.8,7.1c-1.5,3.3-2.8,6.8-4,10.2c-1,2.8-2,5.6-2.6,8.4
		c-0.6,3.1-0.8,6.3-1.1,9.5c-0.3,2.5-0.7,5-0.6,7.5c0.2,4.3,0.9,8.5,2.5,12.5c1.7,4.1,3.2,8.2,4.7,12.3c0.6,1.6,1.2,3.1,1.8,4.7
		c0.1,0,0.2-0.1,0.3-0.1c0-0.5-0.2-1.1-0.1-1.6c0.2-2.8-0.5-5.6,0.8-8.3c1.1-2.3,1.9-4.8,2.8-7.2c0.1-0.3-0.1-1-0.5-1.3
		c-2-1.8-2.7-4.1-2.6-6.6c0.1-3.1,0.5-6.2,0.5-9.3c0-4,0.5-7.9,2.3-11.5c2.3-4.7,4.6-9.4,7.1-14c1.4-2.6,3-5.1,4.9-7.3
		c1.8-2.2,3.8-4.4,6.2-6.2c3.6-2.7,7.4-4.9,11.2-7.3c0.4-0.2,0.8-0.5,1-0.8c0.2-0.3,0.3-0.7,0.2-1c-0.4-1-0.9-2-1.3-2.9
		c-0.5-1-1-2-1.5-3.1c-0.5-1.2-0.8-2.4-1.2-3.6c-3.3,1-3.5,0.7-4.1-1.1c0.4-0.4,0.8-0.8,1.3-1.2c3.5-2.2,7.4-3.4,11.3-4.6
		c3.4-1,6.9-1.9,10.4-2.6c3.7-0.8,7.5-1.4,11.2-2c2.1-0.3,4.2-0.4,6.3-0.7c2.6-0.4,5.2-0.8,7.9-1.2c1.6-0.2,2.8,0.5,3.6,1.9
		c0.4,0.9,0.2,1.3-0.6,1.7c-2.3,1-4.6,2-6.9,3.1c-3.4,1.5-6.7,3-10,4.6c-0.8,0.4-1.5,0.9-2.3,1.4c0,0.1,0,0.3,0.1,0.4
		c0.7,0,1.4,0.1,2.1,0c1.2-0.1,2.4-0.3,3.6-0.5c3.2-0.4,6.4-0.3,9.5-1.5c1.2-0.5,2.5-0.5,3.8-0.7c1.6-0.2,3.2-0.3,4.8-0.5
		c1.2-0.2,2.3-0.6,3.5-0.7c1.6-0.2,3.2-0.1,4.7-0.2c1.9-0.1,3.8-0.7,5.7-0.1c0.2,0.1,0.6,0,0.8,0c2.1-0.1,4.2-0.3,6.3-0.1
		c1.7,0.1,3.3,0.6,5,0.9c1,0.2,2,0.5,3,0.7c1.2,0.3,2.5,0.7,3.7,0.8c2.2,0.2,4.3,0.3,6.1,1.7c0.4,0.3,1.1,0.5,1.7,0.5
		c3.9,0.3,6.5,2.6,8.7,5.5c0.9,1.2,1.8,2.5,2.7,3.7c2,2.7,4.1,5.3,5.9,8c0.8,1.1,1,2.6,1.8,3.6c2.2,3.1,2.9,6.8,3.9,10.4
		c0.1,0.2,0.1,0.5,0,0.7c-0.1,2.8-0.1,5.6-0.3,8.4c-0.2,3.5-0.8,7-0.7,10.5c0.1,5-0.4,9.9-1.1,14.8c0,0.3,0.2,0.9,0.5,1.1
		c2.9,2.5,5.3,5.4,7.2,8.7c0.1,0.2,0.4,0.4,0.7,0.8c0.8-2.2,1.5-4.2,2.3-6.1c1.7-3.9,3.4-7.8,4.3-11.9c0.5-2.1,1.4-4.2,1.6-6.4
		c0.6-4.6,0.9-9.3,0.8-14c-0.1-6-0.9-11.8-2.6-17.4c-1.2-3.7-2.7-7.3-4.1-11c-1.2-3.4-2.4-6.7-4.6-9.7c-2.5-3.4-5.3-6.5-8.6-9.3
		c-0.1,1.5,0.1,3,0.2,4.4c0,0.6,0.2,1.3-0.1,1.8c-0.1,0.2-1,0.2-1.5,0.1c-0.3,0-0.5-0.4-0.8-0.6c-1-1-2-2-3.1-2.9
		c-2-1.5-4.2-2-6.7-2.2c-2.9-0.2-5.8-0.5-8.7-0.8c-3.4-0.3-6.8-0.7-10.2-0.9c-1.3-0.1-2.6,0-3.8,0.2c-2.8,0.5-5.7,0.3-8.4,1.6
		c-0.3,0.1-0.6,0.1-0.9,0.1c-0.7,0.1-1.5,0-2.2,0.2c-1.4,0.3-1.9,0.2-2.1-0.9c-0.3-1.5,0-2.2,1.4-2.4c3.3-0.5,6.2-1.7,9-3.4
		c2-1.2,4-2.3,6.1-3.1C133.5-66.5,136.2-67.4,138.9-68.4z M200.2-37.6c-0.1,0-0.2,0.1-0.4,0.1c-0.2,16.5-3.8,32.1-13.3,46.1
		c1.5-0.1,2.6-0.3,3.8-0.3c4.1,0.1,8,0.8,11.6,2.8c3.2,1.7,5.7,4.1,7.1,7.5c1.1,2.5,1.2,5.3,1.3,8c0.3,5.8-1.3,11.1-4.9,15.5
		c-2.6,3.2-5.2,6.3-8.4,9c-2.9,2.4-6.1,4-9.6,5.1c-1.2,0.4-2.5,0.8-3.8,1.1c-1.1,0.3-2.2,0.6-3.3,0.6c-1.5,0-3-0.3-4.5-0.3
		c-1,0-2.1,0.3-3.1,0.4c0,0.2,0,0.3,0,0.5c2.4,0.9,4.6,2,7.3,1.7c2.4-0.3,4.7-0.5,7.1-1c5.6-1.3,11-3.1,16-6.1
		c2.6-1.5,5.3-2.8,7.2-5.3c0.2-0.3,0.6-0.5,0.9-0.8c2.7-2.1,5.4-4.2,8.1-6.4c0.6-0.5,0.7-1.1,0-1.6c-1.4-0.9-2.9-1.7-4.3-2.6
		c-0.2-0.1-0.4-0.4-0.5-0.6c-0.4-1.8-0.8-3.6-1.1-5.4c-0.2-1.1-0.2-2.3-0.5-3.4c-0.8-2.8-0.2-5.3,1.8-7.3c1.8-1.9,4.6-2.7,6,0.7
		c0.1,0.3,0.3,0.6,0.5,0.9c3.1-3,5.6-6.3,7.8-9.8c0.2-0.2,0.2-0.7,0.1-1c-1-2.9-1.9-5.8-3.2-8.5c-2.1-4.5-4.5-8.8-6.9-13.2
		c-2.2-4-4.4-8-6.6-11.9c-1.7-3.1-3.4-6.2-6.1-8.7C204.3-33.5,202.2-35.6,200.2-37.6z M106.5,23.4c1.4,0,2.7,0,4.1,0
		c4.5,0.2,8.1-1.7,11.2-4.8c2.3-2.4,4-5.1,3.6-8.6c-0.4-3.7-0.8-7.3-2.7-10.6c-1.3-2.3-2.9-4.4-5.1-5.7c-3.2-1.9-6.6-3.4-10.4-3.4
		c-1.5,0-2.9-0.1-4.4-0.2c-6.2-0.5-12.4-0.4-18.4,1.6c-2.2,0.7-4.4,1.7-6,3.6c-0.8,1-1.5,2.1-2.4,3c-3.1,3-3.4,9.2-1.3,12.8
		c1.7,2.9,3.3,5.9,6.6,7.3c3.1,1.4,6.2,2.7,9.6,3.1c1.3,0.2,2.7,0.4,4,0.8C98.7,23.6,102.6,23.9,106.5,23.4z M127.6,11.3
		c0.6-0.3,1.3-0.6,1.8-1c1.7-1.2,3.4-2.5,5-3.8c1.7-1.3,3.4-2.6,5-4c2.8-2.3,4.5-5.3,5.6-8.7c1-2.9,1.4-6,1.1-9.1
		c-0.3-4.1-1-8.1-4-11.3c-3.5-3.9-7.6-7-12.4-9.1c-3.1-1.4-6.1-2.3-9.5-1.3c-1.7,0.5-3.6,0.4-5.1,1.1c-2.2,1-4.2,2.4-6.1,3.9
		c-1.6,1.3-3,2.8-4.4,4.4c-1.2,1.3-2.3,2.7-3.1,4.2c-1.4,2.5-1.7,5.5-2.1,8.3c-0.1,0.7-0.3,1.4-0.1,2c0.1,0.5,0.8,0.8,1.3,1.1
		c0.2,0.1,0.6-0.3,0.9-0.5c0.4-0.2,0.8-0.7,1.2-0.7c1.4,0,2.8,0.2,4.2,0.2c2.7-0.1,5.2,0.6,7.6,1.7c3.2,1.5,6.1,3.4,8.2,6.2
		c1.7,2.3,3.1,4.8,3.6,7.7C126.9,5.5,127.2,8.3,127.6,11.3z M4.7,183.8c0-0.1,0.1-0.2,0.1-0.3c-1.2-1.1-2.5-2.1-3.6-3.2
		c-2.9-2.8-5.8-5.6-8.7-8.5c-1.3-1.3-2.6-2.8-3.9-4.2c-1.7-2-3.2-4.2-5.1-6c-1.7-1.7-3.5-3.3-4.8-5.4c-1.3-2.2-2.7-4.3-4.7-6
		c-2-1.7-3.5-3.9-4.7-6.3c-1.2-2.4-2.3-4.8-3.9-6.8c-2.1-2.8-3.7-5.7-4.7-9.1c-0.5-1.8-1.4-3.6-2.3-5.2c-2-3.4-3.9-6.8-4.5-10.7
		c-0.4-2.3-0.8-4.6-1.5-6.8c-1.4-4.2-2.8-8.4-3-12.9c-0.1-2-0.4-4.1-0.9-6c-0.7-2.6-1-5.1-0.7-7.8c0.2-2.1,0.6-4.2,0.3-6.2
		c-0.4-3.2-0.3-6.3,0.2-9.4c0.1-0.3-0.2-0.9-0.5-1.1c-1.7-1.3-3.4-2.5-5.2-3.7c-0.4-0.3-0.8-0.4-1.3-0.8c-0.1,2.7-0.3,5.2-0.3,7.6
		c0.1,4,0.2,8.1,0.7,12.1c0.5,4.2,2.2,8.2,2.5,12.5c0.2,4.4,0.9,8.8,1.3,13.3c0.4,4.4,1.3,8.7,2.9,12.8c0.9,2.2,2,4.4,2.8,6.7
		c1.2,3.4,2.2,6.9,3.4,10.3c1.8,5.1,3.5,10.3,5.5,15.3c1.1,2.8,2.5,5.5,4.1,8.1c2,3.3,4.3,6.4,6.7,9.5c2.1,2.8,4.2,5.6,6.5,8.2
		c2.1,2.4,4.4,4.5,6.7,6.6c1.2,1,2.2,2.2,4.2,2.2c3.1-0.1,6.1,0.5,9.2,0.7C-0.1,183.5,2.3,183.7,4.7,183.8z M13.9,43.8
		c-0.2-3-0.2-5.8-0.5-8.6c-0.2-2.8-1-5.4-2.6-7.8c-1.5-2.2-3.6-3.7-6.2-4.1C1.2,22.8-2.4,22.6-6,22.4c-1.2-0.1-2.4-0.1-3.5,0.2
		c-1.9,0.7-3.7,1.7-5.5,2.7c-0.7,0.4-1.3,1-1.7,1.7c-1.3,2.6-1.3,5.3-0.6,8c0.7,3,1.3,6,1.9,9c0.3,1.5,0.6,2.9,2.1,3.8
		c0.6,0.3,1.1,0.8,1.6,1.3c2.8,3.2,6.8,3.8,10.7,5.2c0-1.1,0.1-2,0-2.9c-0.1-1.6,0.5-2.9,1.7-3.9c0.6-0.5,1.2-0.9,1.8-1.4
		c1.4-1,2.9-1.9,4.2-3.1c1-1,2-1,3.1-0.7C11.2,42.9,12.6,43.3,13.9,43.8z M110.8-122.2c0.2-0.2,0.3-0.4,0.5-0.7
		c-0.4-0.2-0.9-0.3-1.2-0.6c-1.2-1.1-2.4-2.1-3.5-3.3c-1.4-1.5-1.9-3.5-1.6-5.4c0.1-1.1,0.7-2.1,1.3-3c1.1-1.7,2.4-3.3,3.6-5
		c-0.7-0.7-1.6-0.9-2.7-0.8c-1,0.1-2,0-2.9-0.1c-2.4-0.4-4.9-1.1-7.3-1.2c-3.2-0.1-6.4,0.2-9.4,1.5c-3.2,1.3-6.5,2.2-9.1,4.6
		c-1.4,1.3-2.8,2.8-4.2,4.1c-1.7,1.6-1.6,2.5,0.3,4c0.3,0.2,0.5,0.4,0.8,0.5c2.9,1.3,5.6,2.8,8.9,2.5c0.3,0,0.7,0.1,1.1,0.1
		c2.4,0.3,4.7,0.7,7.1,0.9c1.7,0.2,3.6-0.1,5.2,0.3c3.6,0.9,7.3,1.1,11,1.4C109.4-122.3,110.1-122.3,110.8-122.2z M120.5-139.1
		c-0.4-0.8-0.7-1.3-0.9-1.9c-0.4-1.1-1.3-1.5-2.4-1.3c-0.6,0.1-1.2,0.3-1.6,0.7c-0.6,0.5-1.1,1.1-1.7,1.7c-1.7,1.8-3.6,3.4-5.1,5.3
		c-1.3,1.6-1.7,3.7-0.3,5.4c1.3,1.6,2.9,3.4,4.7,4c4.7,1.6,9.5,1.4,13.9-1.4c1.2-0.8,2.5-1.6,3.8-2.3c2.6-1.6,4.1-3.8,4.3-6.8
		c0.2-2.5-1.5-5.2-3.9-5.9c-2.7-0.8-5.5-1.3-8.4-0.9c-0.4,0.1-0.9,0.4-1.1,0.8C121.4-141.1,121.1-140.2,120.5-139.1z M179.7,23.6
		c0.1,0.1,0.3,0.2,0.4,0.3c0.4-0.5,0.8-1,1.3-1.5c1.4-1.8,2.8-3.5,4.3-5.3c0.5-0.6,1.2-1.1,1.9-1.6c2.3-1.7,5-2.1,7.7-2.7
		c1-0.2,1.8-0.4,2.8,0.3c1.1,0.7,1.6,1.6,2,2.7c1.5,4.1,1.6,8-0.8,11.8c-1.9,3-3.9,5.9-5.8,8.8c-0.4,0.6-0.7,1-0.3,1.7
		c1,1.5,0.6,3-0.3,4.3c-1.5,2.3-3,4.6-4.6,6.8c-1,1.4-2.2,2.6-3.3,3.9c0,0.1,0.1,0.2,0.1,0.3c0.9-0.3,1.9-0.6,2.8-1.1
		c3-1.3,6.1-2.6,8.4-5.2c1.5-1.7,3.1-3.5,4.7-5.1c1.9-1.9,3.4-4.1,4.5-6.5c1.9-4.1,2.1-8.5,1.8-12.9c-0.3-3.6-2-6.6-5.1-8.4
		c-1.7-1-3.7-1.3-5.5-2.1c-4.5-1.8-8.7-0.8-12.8,1.1c-0.3,0.1-0.6,0.6-0.7,1c-0.6,1.6-1.2,3.2-1.7,4.8
		C180.8,20.7,180.3,22.2,179.7,23.6z M-21.2,30.9c-0.1,0-0.2,0-0.3,0c-0.2,0.5-0.4,1-0.6,1.5c-0.3,1.4-0.7,2.8-0.9,4.2
		c-0.2,2.4-0.8,4.9-0.3,7.2c1.1,5.9,4.4,10.6,9.3,14.1c0.9,0.7,1.8,1.3,2.7,2c3.9,3.4,8.4,5.5,13.4,6.7c5,1.3,9.6,0.2,13.7-2.6
		c2.8-1.9,5.1-4.2,7.2-6.9c0.8-1,1-1.9,0.6-3.1c-0.3-1-0.4-2-0.6-3c-0.1-0.4-0.3-0.8-0.6-1.5c-0.4,0.8-0.6,1.3-0.8,1.7
		c-1,2.1-1.9,4.2-3,6.2c-1.6,2.9-3.9,5.1-7.4,5.5c-1.7,0.2-3.5-0.1-5.2-0.2c-2.8-0.2-5-1.5-6.3-4.1C-0.5,58.3-0.7,58-1,57.9
		c-1.1-0.5-2.2-1.1-3.4-1.5c-3.1-1-6.1-2.2-8.5-4.6c-0.8-0.8-1.7-1.4-2.7-2c-1.1-0.7-1.9-1.6-2.2-2.8c-0.8-3.2-1.5-6.5-2.2-9.8
		C-20.5,35.2-20.8,33-21.2,30.9z M10,23c-0.1-1-0.1-1.6-0.2-2.2c0-0.4-0.1-0.8-0.2-1.2c-0.6-2.3-0.8-4.7-0.4-7.1
		c0.1-0.5-0.1-1.3-0.4-1.4c-0.9-0.5-2-0.9-3-1C2.3,9.6-1.3,9-4.7,10.7c-1.8,0.9-3.6,1.8-5.3,2.7c-0.4,0.2-0.8,0.4-1,0.8
		c-1.8,2.3-3.5,4.6-5.3,6.9c-0.2,0.3-0.3,0.7-0.5,1.3c2.2-1,4-1.8,5.8-2.5c0.9-0.4,1.9-0.8,2.8-0.8c4.2,0.3,8.3,0.7,12.5,1.2
		c0.7,0.1,1.5,0.3,2.1,0.6C7.5,21.4,8.6,22.1,10,23z M198.3,20.2c-0.3-1.2-0.6-2.4-0.8-3.6c-0.2-0.8-0.7-0.9-1.4-0.8
		c-1.1,0.2-2.2,0.5-3.2,0.8c-2.4,0.8-4.5,1.9-5.9,4.2c-0.7,1.1-1.8,2-2.6,3.1c-1.9,2.8-3.7,5.6-5.6,8.5c-0.2,0.2-0.2,0.8,0,1
		c0.1,0.2,0.6,0.1,0.9,0.1c0.3-0.1,0.8-0.2,1-0.4c0.8-0.9,1.9-0.8,2.8-0.5c1.8,0.6,3.6,1.4,5.4,2.2c0.8,0.4,1.3,0.4,1.8-0.4
		c1.9-3,3.9-5.9,5.9-8.8C197.7,24,198.2,22.2,198.3,20.2z M71.8,211.9c0,0.2-0.1,0.4-0.1,0.6c2,0.5,4,1.2,6,1.4
		c3.5,0.2,6.9,0.1,10.4,0.1c3.9,0,7.7,0.1,11.6,0.2c1.7,0.1,3.4,0.7,5.1,0.5c5.1-0.7,10.2-1.6,15.3-2.4c0.8-0.1,1.6-0.4,2.4-0.6
		c-5.7-0.2-11.4-0.3-17-0.2c-3.6,0.1-7.2,0.1-10.8,0.6c-6.1,0.8-12.1,0.6-18.1,0.1C75,212.1,73.4,212,71.8,211.9z M-35.9,40
		c-0.1,0-0.2,0.1-0.3,0.1c0,0.3-0.1,0.6,0,0.9c0.5,3.7,0,7.3-0.8,10.9c-0.7,3.5-1.4,7.2-3.6,10.2c-0.7,0.9,0.2,1.4,0.7,1.8
		c0.6,0.5,0.9-0.1,1.2-0.5c0.5-0.9,0.8-1.8,1.3-2.6c3.3-6.3,4.2-12.9,2.1-19.8C-35.4,40.7-35.7,40.3-35.9,40z M231.3,27.2
		c-0.1-0.1-0.2-0.2-0.2-0.4c-3.9,2.1-7.9,4.2-11.8,6.3c2.1,1.7,4,3.2,5.9,4.7c3.5-2.5,7.3-4.8,10.5-7.8c-0.3-0.1-0.4-0.1-0.5,0
		c-2.5,1.7-5,3.5-7.5,5.2c-0.8,0.6-1.7,1-2.6,1.4c-0.7,0.3-1-0.1-0.8-0.7c0.1-0.4,0.3-0.8,0.6-1.1c1-0.8,2.1-1.5,3.2-2.3
		c0.8-0.6,1.6-1.2,2.4-1.7c1.4-1,2.9-1.9,4.3-2.9c-0.1-0.1-0.2-0.3-0.2-0.4c-0.4,0.1-0.9,0.2-1.2,0.4c-2.1,1.3-4.2,2.6-6.3,3.9
		c-1.3,0.8-2.7,1.6-4.2,2.3c-0.2,0.1-0.6-0.2-1-0.3c0.1-0.3,0.2-0.8,0.4-1c1.1-0.8,2.3-1.6,3.5-2.3
		C227.6,29.5,229.5,28.3,231.3,27.2z M234.5,18.3c4.4-2.9,9.4-4.5,12.7-8.8c-4.4,2.4-8.8,4.8-13.2,7.1
		C234.1,17.3,234.2,17.6,234.5,18.3z M-44.9,209c0.2,0.1,0.3,0.3,0.5,0.4c4.9-6.6,9.9-13.1,14.8-19.7c-0.1-0.1-0.2-0.2-0.3-0.2
		c-0.9,0.6-1.8,1.2-2.7,1.9c-0.1,0.1-0.3,0.3-0.3,0.3c0.5,1.3-0.6,1.9-1.2,2.7c-2.7,3.6-5.4,7.2-8.1,10.8
		C-43.1,206.4-44,207.7-44.9,209z M181.8,54.1c-1.4-0.4-2.7-0.7-3.9-1.1c-1-0.3-1.9-0.7-2.9-1.1c-0.7-0.2-1.2-0.2-1.3,0.7
		c-0.1,0.3-0.3,0.7-0.4,1c-0.3,0.9,0,1.2,0.9,1.1c0.9-0.1,1.9,0,2.8,0C178.6,54.5,180.2,55.1,181.8,54.1z M-12.7,207.4
		c-0.8,0.7-1.5,1.3-2.2,2.1c-1.5,1.6-2.8,1.5-4.3-0.6c-0.9,0.9-1.7,1.8-2.8,3c3.7-0.6,7.1-1.1,10.4-1.6
		C-12,209.2-12.3,208.4-12.7,207.4z M-64.2,43.4c-0.8,1.9,2.1,7.1,4.1,8c0.3-1.1,0.5-2.1-0.4-3.2C-61.8,46.7-62.9,45.1-64.2,43.4z
		 M2.9,187.6c-3.1-0.4-6-0.7-8.9-1.1c0.3,0.5,0.7,0.8,1.1,1c1.1,0.5,2.1,0.8,3.2,1.3C1.4,190.1,0.4,190.2,2.9,187.6z M254.9-1.8
		c-0.1-0.1-0.2-0.3-0.2-0.4c-4.2,1.9-8.8,3.3-11.9,7.1c0.1,0.1,0.1,0.2,0.2,0.3C246.9,2.9,250.9,0.6,254.9-1.8z M230.2,61.2
		c-0.5-1.4-0.9-2.7-1.3-4c-2.1,0.5-2.9,1.5-2.7,3.5c0,0.3,0.5,0.6,0.8,0.6C228,61.3,228.9,61.2,230.2,61.2z M-51.2,21.4
		c-1.4,4.2-1.3,5.6,0.7,7.5c0.2-1.7,0.4-3.3,0.6-5C-49.6,22.8-50.1,21.9-51.2,21.4z M36.4,193.6c-1.9-1.1-3.2-0.7-4.3,1
		c-0.1,0.2-0.3,0.4-0.5,0.6c-0.5,0.6-1.1,1.2-1.9,2c0.9,0.1,1.6,0.4,1.9,0.2C33.3,196.3,34.8,194.9,36.4,193.6z M243,9.8
		c0,0.1,0.1,0.1,0.1,0.2c0.7-0.4,1.5-0.7,2.2-1.1c2.6-1.5,5.5-2.4,7.4-4.9c0.5-0.7,1.4-0.9,2.4-0.6c1.2,0.4,1.5,0.2,1.2-1.1
		c-0.1-0.3-0.2-0.6-0.3-1C251.6,4.2,247.3,7,243,9.8z M-17.3,193.3c0.1,0.1,0.2,0.2,0.2,0.2c2.1-2,4.2-4,6.3-6.1
		c-0.8-1.1-1.9-1.1-2.9-0.9C-13.3,189.8-16.2,191.1-17.3,193.3z M20,201.8c-0.1-0.1-0.1-0.2-0.2-0.2c-2.2,1.4-4,3.2-5.9,5.1
		c1,0,2.2,0.1,2.7-0.5C17.9,204.9,18.9,203.3,20,201.8z M251.5-6c-0.1-0.1-0.2-0.3-0.3-0.4c-3.2,1.8-6.4,3.7-8.7,6.8
		C245.5-1.8,248.5-3.9,251.5-6z M-39.8,16c-0.3,1.4-0.4,3-0.8,4.5c-0.4,1.4,0.1,2.6,0.7,4.1C-39.1,21.4-38.7,18.6-39.8,16z
		 M52.2,132.5c0.1-0.1,0.1-0.2,0.2-0.3c-3.2-2.5-6.5-5-9.7-7.6c-0.1,0.1-0.2,0.2-0.3,0.4C45.6,127.6,48.5,130.5,52.2,132.5z
		 M-42.9,58.5c1.1-2.3,1.8-4.3,0.6-6.1c-0.5,1.2-1.1,2.6-1.7,4c-0.1,0-0.2-0.1-0.3-0.1C-43.9,56.9-43.5,57.6-42.9,58.5z M227.6,22.2
		c1.4-0.8,2.9-1.6,4.3-2.4c-0.2-0.6-0.4-1.1-0.6-1.5C229.2,18.6,228.4,20.3,227.6,22.2z M26.7,191.6c-2.1-0.7-3.8-0.8-4.8,1.6
		c0.6,0.2,1.4,0.6,1.9,0.4C24.7,193.2,25.6,192.4,26.7,191.6z M218.9,22.6c-1.3,1.2-3.2,5.1-2.9,5.5c0.8-0.7,1.8-1.4,2.5-2.3
		C218.9,25,219.7,23.9,218.9,22.6z M61.3-40.3c-0.3-0.8-0.7-1.6-1.1-2.5c-0.5,0.6-0.9,1.4-1.5,1.6c-1.2,0.5-0.5,1.1-0.3,1.7
		c0.3,0.9,0.8,0.5,1.3,0.2C60.3-39.7,60.8-40,61.3-40.3z M184.1,36.3c0.9,1.1,1.7,2,2.6,3.1c0.6-0.8,1-1.4,1.5-2
		C186,35.9,185.5,35.8,184.1,36.3z M-25.7,206.7c0-0.1-0.1-0.1-0.1-0.2c-1.9,2-3.7,4-5.6,6.1c1.2,0.4,1.8-0.1,2.2-0.7
		C-28,210.1-26.8,208.4-25.7,206.7z M257.2,8.4c-0.6,1.5-1.2,2.8-1.7,4c0.7,0.3,1.2,0.5,1.8,0.7C257.7,11.6,258.2,10.1,257.2,8.4z
		 M247.7,32c1.2-1.9,2.4-3.7,3.5-5.5c-0.1-0.1-0.2-0.1-0.3-0.2c-1.3,1.5-2.6,3-4,4.5C247.2,31.2,247.4,31.5,247.7,32z M21.4,195.6
		c0-0.1,0-0.3,0-0.4c-0.6-0.1-1.5-0.4-1.8-0.1c-0.9,0.8-1.7,1.9-2.5,2.8c0.1,0.1,0.1,0.2,0.2,0.3C19.1,198.1,20,196.4,21.4,195.6z
		 M-27.1,217.1c3-0.8,5.8-1.5,8.7-2.3c-2,0.1-4,0.5-6,0.7C-25.6,215.6-26.4,216-27.1,217.1z M15.8,55.5c-1.7,1.2-3.3,2.5-4.5,4.2
		C13.5,59,14.9,57.5,15.8,55.5z M213.1,191.9c-0.2-0.1-0.4-0.1-0.5-0.2c-1.5,1.4-3,2.8-4.5,4.1c1.7-0.8,3.3-1.7,4.7-2.7
		C213,193,213,192.4,213.1,191.9z M-60.8,5.2c0.5,0.6,1,1.7,1.6,1.8c1.1,0.2,1.4,0.8,1.8,1.6c0.3,0.6,0.7,1.1,1.1,1.7
		c0.1-0.1,0.2-0.2,0.3-0.3C-57.1,7.8-58.3,5.9-60.8,5.2z M-43.8,68.1c0.4,0.2,0.7,0.4,0.8,0.3c0.7-0.5,1.3-1,1.9-1.6
		c0.1-0.1-0.2-0.7-0.5-1c-0.1-0.2-0.7-0.2-0.8-0.1C-42.8,66.4-43.2,67.2-43.8,68.1z M-64.5,1.3c-0.9,0.5-2.1,0.7-2.2,1.2
		c-0.2,1.7,1.6,0.9,2.2,1.6C-64.5,3.2-64.5,2.5-64.5,1.3z M10.6,188.5c0-0.1-0.1-0.3-0.1-0.4c-0.6,0-1.3-0.1-1.6,0.2
		c-0.9,1-1.7,2.1-2.7,3.4C7.8,190.5,9.2,189.5,10.6,188.5z M66.2-45c-0.7,1.1-1.4,2.1-2,3c0.1,0.1,0.2,0.2,0.3,0.2
		c0.5-0.3,1-0.7,1.5-1C67.4-43.4,67.5-43.5,66.2-45z M227,51.2c0,1.1,0,2.1,0,3.2c0.1,0.1,0.3,0.1,0.4,0.2c0.3-0.6,0.8-1.1,0.8-1.7
		C228.2,52.3,228.3,51.4,227,51.2z M-46.3,29.2c0.3-3.4,0.3-3.4-0.5-4.7c-0.2,0.9-0.7,1.7-0.6,2.3C-47.3,27.6-46.7,28.4-46.3,29.2z
		 M-69,18c1.2-1,1.2-2-0.3-3.7C-69.1,15.5-70.4,16.8-69,18z M198.5,182.1c1.8-0.2,2.4-1.9,3.6-2.6
		C199.8,179.6,198.8,180.3,198.5,182.1z M17.6,42.5c-0.6,0.7-1.2,1.4-1.8,2.1c0.9,0.2,1.7,0.4,2.9,0.6C18.3,44.1,18,43.3,17.6,42.5z
		 M-45.7,38.4c0.1,0,0.2,0.1,0.4,0.1c0.5-2.5,1-5,1.5-7.6c-0.2,0-0.3-0.1-0.5-0.1C-44.7,33.3-45.2,35.8-45.7,38.4z M18.3,50.4
		c0.1,0,0.2,0,0.4,0c0.1-0.5,0.4-1.3,0.2-1.4c-0.8-0.5-1.8-0.8-2.7-1.2c0,0.1,0,0.2-0.1,0.2C16.8,48.8,17.5,49.6,18.3,50.4z
		 M149.4-60.2c0,0.1,0.1,0.2,0.1,0.3c0.9,0.1,1.8,0.1,2.8,0.2c-0.2-0.8-0.4-1.4-0.7-2.2C150.8-61.3,150.1-60.7,149.4-60.2z
		 M-56.6,53.9c0.1-0.1,0.2-0.2,0.3-0.4c-0.5-0.7-0.9-1.4-1.4-2.1c-0.1,0.1-0.3,0.1-0.4,0.2c0,0.7-0.1,1.5,0.1,2.2
		C-58.1,53.9-57.2,53.9-56.6,53.9z M-53.9,57.3c0.1-0.1,0.2-0.2,0.2-0.3c-0.3-1.1-1.8-2.1-3.2-1.9C-55.8,55.9-54.9,56.6-53.9,57.3z
		 M233.7,10.5c1.2-1,2.4-1.9,3.5-2.7C235.7,8.2,233.9,8.1,233.7,10.5z M2.2,53.4c0.5-1.6,0.9-2.8,1.3-4.2
		C1.9,50.3,1.6,51.4,2.2,53.4z M255.9,17.9c0.4-1.3,0.9-2.6,1.3-3.9c-0.7,0.7-1.1,1.6-1.6,2.3C255,17.1,255.1,17.5,255.9,17.9z
		 M-71.3,11.6c0.1,0,0.2,0.1,0.3,0.1c0.5-1.9,1-3.8,1.5-5.6c-0.1,0-0.3-0.1-0.4-0.1C-70.4,7.8-70.9,9.7-71.3,11.6z M-67.5,13
		c0.1-0.1,0.2-0.2,0.3-0.2c-0.4-0.8-0.8-1.6-1.4-2.6c-0.1,0.6-0.2,0.9-0.3,1.3c0,0.4-0.1,0.7-0.1,1C-68.3,12.6-67.9,12.8-67.5,13z
		 M29,199.4c-1.1-0.5-2.1,0.3-2.9,2.1C27.1,200.9,28,200.2,29,199.4z M-51.6,37.1c0.2-0.1,0.4-0.1,0.6-0.2c-0.6-1.2-1.2-2.4-1.9-3.7
		c-0.1,0.1-0.3,0.1-0.4,0.2C-52.8,34.7-52.2,35.9-51.6,37.1z M179.8,43.3c0.1,0.1,0.1,0.2,0.2,0.2c1-0.6,1.9-1.3,2.9-1.9
		C181.4,41.4,180.6,42.3,179.8,43.3z M230.8,49.6c0.2,0.1,0.3,0.2,0.5,0.3c0.6-1,1.1-2.1,1.7-3.1c-0.2-0.1-0.3-0.2-0.5-0.3
		C231.9,47.6,231.4,48.6,230.8,49.6z M172.5,206.2c-0.9,0.6-1.7,1.1-2.5,1.6c0,0.1,0.1,0.1,0.1,0.2c0.9-0.2,1.8-0.4,2.8-0.6
		C172.7,206.9,172.6,206.6,172.5,206.2z M-54.5,42.9c0.5,0.9,1,1.8,1.5,2.9C-52.7,44.5-53,43.8-54.5,42.9z M-46,61.1
		c-0.1,0.2-0.2,0.4-0.3,0.6c0.5,0.4,1,0.7,1.5,1.1c0.1-0.3,0.4-0.7,0.4-0.7C-45,61.6-45.5,61.4-46,61.1z M-66.7,41.4
		c0.1-0.1,0.3-0.1,0.4-0.2c-0.6-1.2-1.1-2.4-1.7-3.6c-0.1,0-0.2,0.1-0.3,0.1C-67.8,38.9-67.3,40.2-66.7,41.4z M-62,36.3
		c0.2,0,0.4-0.1,0.6-0.1c-0.2-0.8-0.4-1.7-0.6-2.5c-0.2,0-0.4,0.1-0.6,0.1C-62.4,34.6-62.2,35.4-62,36.3z M224.8,25.5
		c0.1,0.2,0.2,0.3,0.3,0.5c0.8-0.4,1.6-0.8,2.4-1.2c-0.1-0.2-0.2-0.3-0.3-0.5C226.4,24.7,225.6,25.1,224.8,25.5z M-63.6,33.1
		c0.7-1.4,0.1-2.1-0.5-2.8c-0.1,0-0.3,0.1-0.4,0.1C-64.2,31.2-63.9,32-63.6,33.1z M144.8-61.9c-0.8,0.5-1.5,0.8-2.4,1.3
		C143.8-60.1,144.5-60.4,144.8-61.9z M-40.3,34.4c-0.2,1.1-0.4,2.1-0.7,3.2C-40,36.7-40.2,35.5-40.3,34.4z M-40.1,47.5
		c0.1,0,0.2,0,0.3,0c0.1-1.2,0.2-2.5,0.3-3.7c-0.1,0-0.2,0-0.3,0C-39.9,45-40,46.2-40.1,47.5z"/>
	<path d="M146.5,208.9c0.3,0.4,1.1,1,1.3,1.6c0.1,0.5-0.5,1.2-0.9,1.7c-0.1,0.1-0.7,0-0.9-0.2c-0.3-0.3-0.5-0.7-0.6-1.1
		c-0.1-0.3,0.1-0.6,0-0.9C144.8,209.2,145,208.9,146.5,208.9z"/>
	<path class="st0" d="M157.3,125.3c-0.7,0.3-1.3,0.6-2,0.7c-0.4,0.1-0.8-0.2-1.2-0.2c-0.5-0.1-1.2-0.4-1.6-0.2
		c-2.8,1.6-5.8,2.5-8.8,3.4c-4.8,1.4-9.7,1.8-14.7,1.6c-2.6-0.1-5.1-0.7-7.7-1c-2.8-0.3-5.6-0.6-8.4-0.9c-5.1-0.5-10-1.8-14.8-3.3
		c-4.2-1.3-8.4-2.7-12.5-4.3c-4.3-1.7-8.5-3.7-12.2-6.5c-3.9-3-8.2-5.4-12.2-8.2c-6.6-4.5-12.5-9.8-17.7-15.9
		C38.5,84.7,34,78.6,30.3,72c-1-1.8-1.4-4-1.9-6c-0.3-1.1-0.5-2.3-0.6-3.5c-0.2-1.4,0.1-2.7,1.2-3.7c1-0.8,0.4-1.8,0.2-2.8
		c-0.1-0.4,0-1-0.2-1.3c-0.4-0.6-0.8-1.2-1.4-1.6c-0.2-0.2-0.9,0.1-1.3,0.2c-0.3,0.1-0.5,0.4-0.9,0.7c-0.2-1-0.5-1.7-0.6-2.5
		c-0.8-4.1-1.4-8.3-0.9-12.5c0.2-1.9,1.1-3.8,1.5-5.7c0.7-3.4,2.6-6.1,4.6-8.8c2.2-3,5.1-5.1,8.3-6.7c3.3-1.6,6.6-3.3,10.1-4.6
		c4.2-1.6,8.6-3.1,12.9-4.2c2.3-0.6,4.9-1.1,7.2,0.3c0.3,0.2,0.9,0,1.3-0.1c1.8-0.5,2-0.4,2.6,1.4c1.1,3.7,3.1,6.9,5.9,9.5
		c1.9,1.8,4.2,3,6.7,3.7c2.3,0.6,4.7,1,7.1,1.5c1.1,0.2,2.2,0,3.2,0.4c3.4,1.3,6.9,0.8,10.4,1.5c0.3,0.1,0.7,0,1.1,0
		c3.3-0.6,6.7-1,9.9-1.9c3.2-0.9,5.5-3.2,7.7-5.7c0.8-0.9,1.3-2,2-3c0.2-0.3,0.4-0.6,0.7-0.6c1.6-0.5,3.2-1.3,4.8-1.3
		c5.2,0,10.5,0.2,15.7,0.7c2.8,0.3,5.6,1.3,8.3,2.2c1.9,0.6,3.6,1.5,5.4,2.3c0.3,0.1,0.7,0.5,0.8,0.8c0.1,0.9,0.7,1.3,1.4,1.3
		c1.5,0,2.3,1.1,3.1,2c1.8,2.1,3.4,4.3,5,6.6c0.4,0.5,0.3,1.4,0.5,2.1c0.3,0.9,0.5,1.8,1.1,2.5c0.7,0.9,0.9,1.7,0.1,2.6
		c-1.6,1.9-2.6,4.1-2.6,6.7c0,0.4-0.1,0.9-0.2,1.3c-0.1,1,0,1.9,0.8,2.7c0.5,0.5,0.7,1.6,0.4,2.3c-0.6,1.8-1.6,3.4-2.4,5.1
		c-0.3,0.6-0.3,1.4-0.7,2c-1.4,2.2-2.7,4.5-4.4,6.4c-2.3,2.6-4.9,5.1-7.6,7.4c-3.6,3.2-6.3,7-8.4,11.2c-1.1,2.1-2,4.3-2.7,6.6
		c-1,3.5-0.5,7.1,0.4,10.6c0.7,2.9,1.8,5.6,2.5,8.5c1.1,4.4,3,8.3,5.3,12.1C154.5,122.2,156,123.7,157.3,125.3z"/>
	<path class="st0" d="M231.3,66.7c0.5-1.3,1.2-2.5,1.4-3.8c0.2-1.2-0.1-2.5-0.3-3.7c-0.1-0.8-0.6-1.5-0.7-2.3
		c-0.2-1.4,0-2.6,1.2-3.7c1.8-1.7,2.8-3.8,3.6-6.2c0.2-0.6,1.2-0.9,2-1.4c0.5,1.1,0.6,1.9-0.1,2.7c-1.2,1.3-2.3,2.7-3.4,4
		c-0.8,1-0.7,2.7,0.1,3.6c0.8,0.8,1.8,0.6,2.5-0.4c0.5-0.7,1-1.3,1.5-1.9c0.1,0,0.3,0.1,0.4,0.1c0,1,0.1,1.9,0,2.9
		c-0.9,5.6-1.2,11.3-0.8,17c0.5,6.5,1.1,13,1.5,19.6c0.1,1.7-0.2,3.4-0.1,5c0.1,5,0.1,10.1,0.4,15.1c0.2,3.7-0.4,7.2-1.3,10.8
		c-0.7,2.9-1.4,5.8-2.3,8.7c-0.5,1.7-1.4,3.4-2.2,5c-1.8,3.5-3.8,7-5.5,10.5c-2.4,4.7-5.3,9.1-8.9,13c-2,2.2-4.2,4.1-6.3,6.2
		c-1.5,1.5-2.8,3.2-4.5,4.6c-1,0.9-2.4,1.4-3.7,1.9c-3.6,1.3-7.2,2.6-10.9,3.9c-0.9,0.3-1.5,0.2-2.3-0.4c-1.7-1.4-3.6-2.6-5.3-3.9
		c-4.4-3.3-6.8-8.1-9.9-12.5c-2.7-3.9-4.1-8.3-5.8-12.6c-1.9-4.6-3-9.4-3.5-14.4c-0.3-2.4-0.6-4.8-0.7-7.3c0-0.8,0.4-1.7,0.6-2.5
		c0.2-0.6,0.4-1.1,0.5-1.7c1-5.6,2.9-10.7,6.9-15c9.1-9.7,18-19.5,27.1-29.2c3.2-3.4,6.6-6.6,10.3-9.3c4.2-3,9-4.7,14.3-4
		C228.5,65.3,229.8,66.1,231.3,66.7z"/>
	<path class="st0" d="M-50.1,62.5c1.3,0.9,2.5,1.6,3.6,2.5c0.2,0.2,0.2,0.8,0.2,1.1c0,0.3-0.3,0.6-0.5,1c-1,1.6-0.4,3.3,1.4,4.1
		c0.2,0.1,0.4,0.2,0.7,0.3c2.6,1.2,3.8,0.9,5.6-1.3c0.7-0.8,1.2-1.2,2.3-0.6c5.9,3.4,12.4,5,18.6,7.7c5.9,2.6,11.8,5.2,17,9.1
		c2.9,2.2,6,4.3,8.9,6.5c2,1.6,3.8,3.4,5.8,5c0.3,0.3,0.6,0.6,0.9,0.8c3.3,1.8,5,4.7,5.8,8.3c0.2,0.8,0.3,1.6,0.5,2.5
		c0.4,1.7,0.8,3.4,1.7,4.9c0.7,1.3,0.8,2.9,1.2,4.3c0.6,2.8,1.4,5.5,1.8,8.3c0.7,5.3,1.5,10.7,0.9,16.1c-0.3,2.8-0.3,5.7-0.5,8.5
		c-0.1,0.9-0.4,1.9-0.7,2.8c-1.1,4-2.2,8-3.4,11.9c-0.9,2.7-1.9,5.4-3,8c-1,2.4-2.2,4.6-3.2,7c-0.4,0.9-0.8,1.8-1.1,2.8
		c-0.3,0.7-0.8,0.8-1.4,0.7c-0.9-0.2-1.8-0.4-2.7-0.5c-1.7-0.1-2.6-1.4-3.9-2.2c-3.3-2.1-5.6-5.3-8.4-8c-1.9-1.8-3.9-3.4-5.7-5.3
		c-1.3-1.3-2.4-2.8-3.6-4.2c-1.6-1.8-3.2-3.5-4.8-5.3c-1.2-1.4-2.5-2.9-3.5-4.5c-1.6-2.3-3.2-4.5-5.4-6.3c-1.8-1.6-3-3.6-4-5.7
		c-1.2-2.5-2.6-4.8-4.2-7.1c-1.7-2.6-3.4-5.1-4-8.2c-0.6-2.7-2-5-3.5-7.3c-2.2-3.3-3.1-7-4-10.8c-0.7-2.9-1.6-5.7-2.3-8.5
		c-0.7-2.9-1.4-5.9-2-8.8c-0.5-2.5-1.1-5-1.5-7.5c-0.2-1.4-0.3-2.9-0.3-4.3c0.1-2.2,0.4-4.4,0.5-6.7c0-1.5-0.2-3.1-0.4-4.6
		C-51.3,67-50.8,64.9-50.1,62.5z"/>
	<path class="st0" d="M9.1-64c3.9-2.8,7.9-5.6,11.8-8.5c5-3.7,10.9-4.9,16.8-6.2c3.8-0.9,7.5-2.3,11.2-3.4c2.1-0.6,4.1-1.3,6.3-1.5
		c5-0.7,10.1-1.2,15.1-1.8c1.7-0.2,3.4-0.3,5-0.5c0,0.1,0.1,0.3,0.1,0.4c-1,0.4-2,0.7-3,1.2c-3,1.3-5.9,3.1-9.1,4
		c-3.3,0.9-6.2,2.8-9.4,3.9c-1.2,0.4-2.3,1.2-3.5,1.8c-2,1-4,2-5.9,3.1c-1.7,1-3.3,2.2-4.9,3.4C34.1-64,30-58.7,26.5-52.8
		c-3,5-5.7,10.2-6.7,16c-0.4,2.2-0.4,4.4-0.5,6.7c0,0.4,0,0.9,0.3,1.1c1.1,1,0.5,1.8,0,2.8c-1.9,4.2-3.7,8.6-5.6,12.8
		c-2.2,4.9-3.6,10.1-4,15.5c-0.1,2-0.3,3.9-0.4,5.9c0,0.3-0.1,0.5-0.2,0.8c-0.1,0-0.3,0.1-0.3,0C7.7,7,5.6,7.1,3.6,7
		C0.8,6.8-2.1,6.4-4.9,7.6c-2.2,1-4.5,2-6.6,3.3c-1.2,0.7-2.2,1.9-3.1,3c-1.8,2.3-3.3,4.7-5,7c-1.9,2.5-3.3,5.1-4.1,8.1
		c-1.5,5.1-2.9,10.3-2.1,15.7c0.3,2.4,1.4,4.8,2.6,7c1.9,3.4,4.2,6.6,7.5,8.9c3.7,2.5,6.9,5.6,11.2,7c0.3,0.1,0.6,0.4,0.8,0.5
		c-0.1,0.1-0.1,0.3-0.2,0.4c-0.9-0.3-1.9-0.4-2.6-0.9c-2.1-1.5-4.3-2.7-6.8-3.4c-2.7-0.8-4.7-2.9-6.6-4.8c-1.8-1.8-3.5-3.8-5-5.9
		c-1.6-2.3-3-4.8-4.5-7.2c-0.2-0.3-0.5-0.8-0.7-0.8c-1.1-0.1-1.3-0.9-1.5-1.8c-0.6-2.2-1.1-4.3-2-6.4c-0.4-0.9-1.4-1.6-2.1-2.4
		c-0.2-0.2-0.4-0.4-0.5-0.7c-0.4-1.1-0.9-2.2-1-3.4c-0.1-1.1,0.3-2.1,0.5-3.2c0.4-2.1,1-4.3,1.1-6.4c0.2-3.8-0.8-7.3-3.5-10.1
		c-0.5-0.5-1.1-0.9-1.4-1.1c0-1.7,0-3.1,0-4.5c0-0.7,0.2-1.3,0.4-2c0.9-2.6,1.9-5.1,2.7-7.7c0.5-1.5,0.7-3.1,1-4.7
		c0.2-1.1,0.4-2.2,0.9-3.2c1.2-2.9,2.3-5.8,3.8-8.5c1.3-2.4,3-4.6,4.6-6.8c2.4-3.2,4.7-6.6,7.4-9.5c2.8-3.1,5.1-6.6,7.8-9.6
		c2.8-3.2,5.8-6.3,9.2-8.9c3.2-2.5,7-4.4,10.6-6.3c2.8-1.5,5.8-2.8,8.7-4.2c0.2-0.1,0.5-0.2,0.8-0.3c1.9-0.2,3.4-1,4.9-2.4
		c-0.4,0-0.7-0.1-0.9,0c-2,0.7-4.1,1.3-6.1,2.1c-1.7,0.7-3.4,1.4-5.2,2.2C9.8-64.3,9.4-64.2,9.1-64C9.1-64.1,9.1-64,9.1-64z"/>
	<path class="st0" d="M57.6,201.6c-0.2-0.3-0.4-0.7-0.6-1.2c-1.9,0.1-3.9,0.1-5.9,0.4c-1.9,0.3-3.8,0.9-5.7,1.3
		c0.9-1.4,3.5-2.4,1.9-5c1.2-1.1,2.3-2.1,4.1-1.9c3.6,0.3,7.2,0.5,10.8,0.7c1,0,2.1,0,3.1-0.2c1.1-0.3,1.2-1.4,1.1-2.3
		c-0.1-0.9-1-1.7-2.1-1.7c-1.4,0-2.8,0.1-4.2,0c-3.3-0.1-6.6-0.2-9.9-0.3c-1.5-0.1-3-0.2-4.6-0.3c0-0.2-0.1-0.3,0-0.5
		c1.2-3,1.7-6.3,4.2-8.5c1.2-1.1,1.9-2.4,2.8-3.6c1.8-2.6,4.5-4,7-5.7c4.1-2.7,8.2-5.4,12.4-7.9c2.9-1.8,6.2-2.6,9.6-2.9
		c2.8-0.3,5.7-1,8.5-1.5c1-0.2,2-0.3,3-0.4c5.1-0.3,10.2-1,15.3-0.4c1.2,0.1,2.3,0.5,3.5,0.9c5.5,1.7,11,3.1,16.3,5.1
		c4.2,1.5,7.9,4,10.6,7.7c1.9,2.7,3.8,5.4,5.6,8.2c1.4,2.2,1.6,4.8,2,7.3c0.4,2.8,1.2,5.6,1.3,8.4c0.1,1.5,0.6,2.8,1,4.1
		c0.3,0.8,0.2,1.6,0.3,2.3c-5.7,2.2-11.6,3.3-17.4,4.2c-3.1,0.5-6.1,1.2-9.2,1.5c-3.1,0.3-6.3,0.2-9.4,0.3
		c-4.4,0.1-8.9,0.1-13.3,0.3c-5.1,0.2-10.2,0.8-15.3,0.8c-4.5,0-9.1-0.5-13.6-0.8c-1.9-0.1-3.8-0.1-5.6-0.3c-5-0.5-10-1.2-14.7-3
		c-0.1-0.1-0.2-0.2-0.6-0.5c0.7,0.1,1,0.2,1.3,0.2c0.7,0,1.5,0.3,2,0c1.6-1.1,3.5-0.8,5.2-1c1.2-0.1,1.3-1,1.5-1.7
		C60.1,202.4,58.9,201.3,57.6,201.6z M142.7,188.5c-0.1-0.2-0.2-0.4-0.2-0.6c-0.5-0.5-1-1-1.5-1.5c-0.3,0.4-1,1.1-0.9,1.2
		c0.4,0.5,1,1,1.6,1.3C141.9,189,142.4,188.7,142.7,188.5z"/>
	<path class="st0" d="M133.2,11.8c0.8-0.8,1.5-1.6,2.3-2.1c1.6-1.1,3.2-2.2,4.8-3.3c0.7-0.5,1.3-0.9,1.8-1.5
		c1.5-1.5,3.2-2.8,4.3-4.8c2.7-4.8,4-9.9,3.2-15.4c-0.2-1.5-0.4-2.9-0.7-4.4c-0.7-3.3-2.4-5.9-4.8-8.2c-2-1.9-3.8-4-6-5.7
		c-3.7-2.8-8-4.9-12.5-6.1c-1.3-0.3-2.7-0.2-4,0c-2,0.2-4.1,0.5-6.1,1.1c-1.6,0.5-3,1.4-4.5,2.1c-3.2,1.5-5.4,4.1-7.8,6.6
		c-1.1,1.2-2.3,2.4-3.3,3.6c-1.7,2-2.4,4.4-2.9,6.9c-0.4,1.7-0.6,3.5-0.9,5.3c-0.1,0.3-0.6,0.8-0.9,0.8c-4.5,0.2-8.7,1.5-13,2.7
		c-1.6,0.5-3,1.1-4.2,2.2C74.3-4.6,71-0.5,71.6,5.3c0,0.3-0.1,0.7-0.1,0.9c-0.9,0.2-1.8,0.6-2.6,0.6c-0.8,0-1.7-0.2-2.6-0.4
		c-2.9-0.7-5.7,0-8.5,0.7c-1.7,0.4-3.3,1.4-5,1.9c-1.7,0.5-3.4,0.8-5,2c-1.5,1-3.6,1.3-5.3,1.9c-1.3,0.5-2.8,0.6-3.7,2
		c-0.2,0.3-0.8,0.4-1.1,0.6c-1.2,0.7-2.4,1.5-3.7,2.2c-0.5,0.3-0.9,0.8-1.4,1c-1.5,0.5-2.2,1.6-2.9,3c-0.7,1.4-1.9,2.5-2.9,3.7
		c-0.1,0.1-0.8,0-0.9-0.1c-0.5-1.2-1.3-2.5-1.2-3.7c0.2-4.6,0.3-9.2,1-13.7c0.4-3,1.3-6.1,2.6-8.9c2.8-5.9,5.6-11.9,9.3-17.3
		c1-1.4,2.4-2.6,3.5-3.9c2.5-3,5.5-5.3,8.9-7.3c2.2-1.3,4.2-2.8,6.4-4.2c0.5-0.3,1.1-0.2,1.6-0.4c0.7-0.2,1.4-0.4,2.1-0.6
		c-0.3-1.2,0.1-1.5,1.2-1.7c1-0.2,1.9-1,2.8-1.5c0.2,0.4,0.5,1.1,0.7,1.1c0.6,0,1.2-0.2,1.8-0.4c0.5-0.2,1-0.6,1.5-0.9
		c0.7-0.4,1.5-0.5,1.1-1.7c-0.1-0.2,0.7-1,1.2-1.2c1.8-0.8,3.8-1.5,5.6-2.3c1.6-0.8,3.3-1.2,5.1-1.1c0.6,0,1.3-0.1,1.9-0.2
		c4.4-1.1,8.9-1.2,13.2-2.7c1.8-0.6,3.9-0.4,5.9-0.6c0.4,0,0.8-0.2,1.2-0.2c1.4-0.2,2.7-0.3,4.1-0.5c1-0.1,2.1-0.2,3.1-0.2
		c3.1-0.2,6.2-0.4,9.3-0.5c0.7,0,1.4-0.2,2-0.1c1.5,0.1,3,0.4,4.4,0.6c1.7,0.2,3.3,0.5,4.9,0.7c0.2,0,0.3,0,0.5,0.1
		c2.4,1.5,5.3,1,7.9,1.6c0.1,0,0.3,0,0.4,0.1c3.4,2,7.8,2.1,10.7,5.2c1.1,1.2,2,2.5,3,3.7c1.9,2.4,3.8,4.7,5.6,7.2
		c0.8,1.1,1.4,2.4,2,3.6c1.5,3.3,3.3,6.5,3.7,10.2c0.2,2.1,0,4.2-0.1,6.3c-0.1,1.7-0.3,3.5-0.4,5.2c-0.2,1.6-0.4,3.1-0.6,4.7
		c-0.2,1.4-0.4,2.7-0.4,4.1c0,1.2,0.6,2.4,0.5,3.6c-0.1,2.9,0.2,5.9-0.9,8.7c-0.5,1.2-1,1.5-2.2,0.7c-2.3-1.5-4.9-2.1-7.5-2.7
		c-2.8-0.7-5.6-1.4-8.4-1.7c-3.4-0.4-6.9-0.3-10.4-0.4C134.3,12,133.8,11.9,133.2,11.8z M81.7-38.3c-2.3-0.6-4.6,0.6-7,1.4
		c-3.2,1.1-5.8,3.2-8.2,5.5c-2.5,2.3-4.1,5.3-5.1,8.5c-1.8,5.6-1.9,11.1,1.6,16.2c1.6,2.4,3.2,4.8,4.8,7.1c0.2,0.3,0.7,0.6,1,0.8
		c0.6,0.4,1.2,0.6,1.8-0.1c0.5-0.7,0.4-1.3-0.1-1.9c-1.4-1.8-2.7-3.6-4.1-5.4C64-9.4,63-12.9,63.3-17c0.4-4,1.6-7.6,4.3-10.5
		c5.5-5.9,12.3-8.5,20.4-7c1.9,0.3,3.4,1,4.5,2.7c1.2,1.8,2.2,3.6,2.8,5.6c0.1,0.4,0.6,0.8,1,1.1c0.1,0.1,0.7-0.1,0.7-0.3
		c0.2-1.1,0.8-2.4,0.4-3.3c-0.8-2-2.1-3.7-3.3-5.6c-0.8-1.2-1.6-2.2-3.1-2.7C88.1-38,85.1-38.4,81.7-38.3z M84.4-13.8
		c3.4,0,6.1-2.8,6.1-6.1c0-3.3-2.7-6-6.1-6.1c-3.4,0-6.1,2.7-6.1,6.1C78.3-16.6,81-13.8,84.4-13.8z"/>
	<path class="st0" d="M138.9-68.4c-2.7,1-5.4,1.9-8,3c-2.1,0.9-4.2,2-6.1,3.1c-2.8,1.7-5.8,2.9-9,3.4c-1.5,0.2-1.8,0.8-1.4,2.4
		c0.2,1,0.7,1.2,2.1,0.9c0.7-0.2,1.5-0.1,2.2-0.2c0.3,0,0.7,0,0.9-0.1c2.7-1.2,5.6-1.1,8.4-1.6c1.3-0.2,2.5-0.3,3.8-0.2
		c3.4,0.2,6.8,0.6,10.2,0.9c2.9,0.3,5.8,0.6,8.7,0.8c2.4,0.2,4.7,0.7,6.7,2.2c1.1,0.8,2.1,1.9,3.1,2.9c0.2,0.2,0.5,0.5,0.8,0.6
		c0.5,0.1,1.4,0.1,1.5-0.1c0.2-0.5,0.1-1.2,0.1-1.8c-0.1-1.5-0.2-3-0.2-4.4c3.3,2.8,6.2,5.9,8.6,9.3c2.1,3,3.4,6.3,4.6,9.7
		c1.3,3.7,2.9,7.3,4.1,11c1.7,5.7,2.5,11.5,2.6,17.4c0.1,4.7-0.2,9.3-0.8,14c-0.3,2.2-1.2,4.2-1.6,6.4c-1,4.1-2.6,8-4.3,11.9
		c-0.8,1.9-1.5,3.9-2.3,6.1c-0.3-0.3-0.5-0.5-0.7-0.8c-1.9-3.3-4.3-6.2-7.2-8.7c-0.3-0.2-0.5-0.8-0.5-1.1c0.7-4.9,1.2-9.8,1.1-14.8
		c-0.1-3.5,0.5-7,0.7-10.5c0.2-2.8,0.2-5.6,0.3-8.4c0-0.2,0-0.5,0-0.7c-0.9-3.6-1.6-7.3-3.9-10.4c-0.8-1.1-1-2.5-1.8-3.6
		c-1.9-2.7-4-5.3-5.9-8c-0.9-1.2-1.7-2.5-2.7-3.7c-2.2-2.9-4.8-5.2-8.7-5.5c-0.6,0-1.2-0.2-1.7-0.5c-1.8-1.4-4-1.5-6.1-1.7
		c-1.2-0.1-2.5-0.5-3.7-0.8c-1-0.2-2-0.5-3-0.7c-1.7-0.3-3.3-0.8-5-0.9c-2.1-0.1-4.2,0.1-6.3,0.1c-0.3,0-0.6,0.1-0.8,0
		c-1.9-0.6-3.8,0-5.7,0.1c-1.6,0.1-3.2,0.1-4.7,0.2c-1.2,0.1-2.3,0.5-3.5,0.7c-1.6,0.2-3.2,0.3-4.8,0.5c-1.3,0.2-2.7,0.2-3.8,0.7
		c-3.1,1.2-6.3,1.1-9.5,1.5c-1.2,0.2-2.4,0.4-3.6,0.5c-0.7,0.1-1.4,0-2.1,0c0-0.1,0-0.3-0.1-0.4c0.8-0.5,1.5-1,2.3-1.4
		c3.3-1.6,6.7-3.1,10-4.6c2.3-1,4.6-2.1,6.9-3.1c0.9-0.4,1-0.8,0.6-1.7c-0.7-1.5-1.9-2.2-3.6-1.9c-2.6,0.4-5.2,0.9-7.9,1.2
		c-2.1,0.3-4.2,0.4-6.3,0.7c-3.8,0.6-7.5,1.2-11.2,2c-3.5,0.7-7,1.6-10.4,2.6c-3.9,1.2-7.8,2.4-11.3,4.6c-0.5,0.3-0.9,0.8-1.3,1.2
		c0.7,1.8,0.8,2.1,4.1,1.1c0.4,1.2,0.7,2.4,1.2,3.6c0.4,1.1,1,2.1,1.5,3.1c0.5,1,0.9,1.9,1.3,2.9c0.1,0.3,0,0.8-0.2,1
		c-0.3,0.3-0.7,0.6-1,0.8c-3.7,2.4-7.6,4.6-11.2,7.3c-2.3,1.7-4.3,3.9-6.2,6.2c-1.8,2.3-3.5,4.8-4.9,7.3c-2.5,4.6-4.8,9.3-7.1,14
		C23.5,2.5,23,6.4,23,10.4c0,3.1-0.4,6.2-0.5,9.3c-0.1,2.6,0.6,4.9,2.6,6.6c0.3,0.3,0.6,0.9,0.5,1.3c-0.8,2.4-1.7,4.9-2.8,7.2
		c-1.3,2.7-0.6,5.6-0.8,8.3c0,0.5,0.1,1.1,0.1,1.6c-0.1,0-0.2,0.1-0.3,0.1c-0.6-1.6-1.2-3.1-1.8-4.7c-1.6-4.1-3-8.2-4.7-12.3
		c-1.7-4-2.4-8.2-2.5-12.5c-0.1-2.5,0.4-5,0.6-7.5c0.3-3.2,0.5-6.4,1.1-9.5c0.6-2.9,1.6-5.7,2.6-8.4c1.2-3.4,2.5-6.9,4-10.2
		c1.1-2.4,2.6-4.7,3.8-7.1c1.4-2.8,3.6-5,5.7-7.2c1.6-1.7,3.1-3.4,4.8-5c2.6-2.4,5.1-4.9,7.9-6.9c5-3.3,10-6.7,15.4-9.2
		c5.4-2.5,10.3-5.8,15.7-8.3c2.6-1.2,5.3-1.9,8-3c2.5-1,5-1.6,7.8-1.6c1.9,0,3.8-1,5.7-1.3c2.5-0.4,5-0.5,7.5-0.8
		c1-0.1,2-0.4,2.9-0.5c1.8-0.1,3.7,0,5.5,0.1c1.7,0.1,3.5,0.4,5.2,0.4c1.8,0,3.6-0.1,5.4-0.4c1.8-0.2,3.5-0.2,5.2,0.2
		c2.6,0.6,5.3,0.8,8,1.3c1.2,0.2,2.3,0.6,3.4,0.8C138.9-68.6,138.9-68.5,138.9-68.4z"/>
	<path class="st0" d="M200.2-37.6c2.1,2,4.1,4.1,6.2,6.1c2.7,2.4,4.4,5.6,6.1,8.7c2.2,4,4.4,7.9,6.6,11.9c2.3,4.4,4.7,8.7,6.9,13.2
		c1.3,2.7,2.2,5.7,3.2,8.5c0.1,0.3,0.1,0.7-0.1,1c-2.3,3.5-4.7,6.8-7.8,9.8c-0.2-0.3-0.4-0.6-0.5-0.9c-1.5-3.4-4.2-2.6-6-0.7
		c-1.9,2.1-2.6,4.5-1.8,7.3c0.3,1.1,0.3,2.3,0.5,3.4c0.3,1.8,0.7,3.6,1.1,5.4c0.1,0.2,0.3,0.5,0.5,0.6c1.4,0.9,2.9,1.7,4.3,2.6
		c0.7,0.5,0.6,1.1,0,1.6c-2.7,2.1-5.4,4.2-8.1,6.4c-0.3,0.2-0.7,0.5-0.9,0.8c-1.9,2.5-4.6,3.7-7.2,5.3c-5,3-10.4,4.8-16,6.1
		c-2.4,0.5-4.7,0.8-7.1,1c-2.7,0.3-4.9-0.9-7.3-1.7c0-0.2,0-0.3,0-0.5c1-0.2,2.1-0.4,3.1-0.4c1.5,0,3,0.3,4.5,0.3
		c1.1,0,2.2-0.3,3.3-0.6c1.3-0.3,2.5-0.7,3.8-1.1c3.5-1.2,6.7-2.7,9.6-5.1c3.2-2.7,5.8-5.9,8.4-9c3.6-4.4,5.2-9.8,4.9-15.5
		c-0.1-2.7-0.3-5.4-1.3-8c-1.4-3.4-3.8-5.8-7.1-7.5c-3.7-1.9-7.6-2.7-11.6-2.8c-1.1,0-2.3,0.2-3.8,0.3c9.5-14,13.1-29.5,13.3-46.1
		C199.9-37.5,200-37.5,200.2-37.6z"/>
	<path class="st0" d="M106.5,23.4c-3.9,0.5-7.8,0.2-11.6-1c-1.3-0.4-2.6-0.6-4-0.8c-3.4-0.5-6.5-1.8-9.6-3.1
		c-3.3-1.5-4.9-4.4-6.6-7.3C72.6,7.5,73,1.2,76-1.7c0.9-0.9,1.5-2,2.4-3c1.6-1.9,3.7-2.8,6-3.6c6-2,12.1-2.2,18.4-1.6
		c1.5,0.1,2.9,0.2,4.4,0.2c3.8,0,7.3,1.5,10.4,3.4c2.2,1.4,3.8,3.5,5.1,5.7c1.9,3.3,2.3,6.9,2.7,10.6c0.4,3.5-1.2,6.2-3.6,8.6
		c-3.1,3.1-6.7,5-11.2,4.8C109.3,23.3,107.9,23.4,106.5,23.4z"/>
	<path class="st0" d="M127.6,11.3c-0.4-3-0.7-5.8-1.2-8.7c-0.5-2.9-1.9-5.4-3.6-7.7c-2.1-2.8-5-4.7-8.2-6.2
		c-2.4-1.1-4.9-1.8-7.6-1.7c-1.4,0.1-2.8-0.2-4.2-0.2c-0.4,0-0.8,0.4-1.2,0.7c-0.3,0.2-0.8,0.6-0.9,0.5c-0.5-0.2-1.2-0.6-1.3-1.1
		c-0.2-0.6,0-1.3,0.1-2c0.4-2.9,0.6-5.8,2.1-8.3c0.8-1.5,2-2.9,3.1-4.2c1.4-1.5,2.8-3.1,4.4-4.4c1.9-1.5,3.9-2.9,6.1-3.9
		c1.5-0.7,3.4-0.6,5.1-1.1c3.4-1,6.3,0,9.5,1.3c4.9,2.1,8.9,5.3,12.4,9.1c2.9,3.2,3.7,7.2,4,11.3c0.2,3.1-0.2,6.1-1.1,9.1
		c-1.1,3.4-2.9,6.4-5.6,8.7c-1.7,1.4-3.3,2.7-5,4c-1.7,1.3-3.3,2.6-5,3.8C128.9,10.7,128.2,10.9,127.6,11.3z M109.8-13.8
		c3.4,0,6.1-2.7,6.2-6.1c0-3-2.9-6.3-5.6-6.3c-3.4-0.1-6.5,2.8-6.5,6.2C103.7-16.7,106.4-13.9,109.8-13.8z"/>
	<path class="st0" d="M4.7,183.8c-2.4-0.2-4.8-0.3-7.3-0.5c-3.1-0.3-6.1-0.8-9.2-0.7c-2,0-3-1.1-4.2-2.2c-2.3-2.1-4.7-4.3-6.7-6.6
		c-2.3-2.6-4.5-5.4-6.5-8.2c-2.3-3.1-4.6-6.2-6.7-9.5c-1.6-2.6-3-5.3-4.1-8.1c-2-5-3.7-10.2-5.5-15.3c-1.2-3.4-2.2-6.9-3.4-10.3
		c-0.8-2.3-1.9-4.5-2.8-6.7c-1.7-4.1-2.5-8.4-2.9-12.8c-0.4-4.4-1.1-8.8-1.3-13.3c-0.2-4.3-2-8.3-2.5-12.5c-0.5-4-0.6-8-0.7-12.1
		c-0.1-2.4,0.2-4.9,0.3-7.6c0.6,0.3,1,0.5,1.3,0.8c1.7,1.2,3.5,2.4,5.2,3.7c0.3,0.2,0.6,0.8,0.5,1.1c-0.5,3.1-0.6,6.2-0.2,9.4
		c0.2,2-0.1,4.1-0.3,6.2c-0.3,2.7,0,5.2,0.7,7.8c0.6,1.9,0.8,4,0.9,6c0.2,4.5,1.6,8.7,3,12.9c0.7,2.2,1.1,4.5,1.5,6.8
		c0.7,4,2.6,7.3,4.5,10.7c0.9,1.6,1.8,3.4,2.3,5.2c1,3.3,2.5,6.3,4.7,9.1c1.6,2.1,2.8,4.5,3.9,6.8c1.2,2.4,2.7,4.5,4.7,6.3
		c2,1.7,3.4,3.8,4.7,6c1.3,2.1,3.1,3.7,4.8,5.4c1.9,1.8,3.4,4,5.1,6c1.2,1.4,2.5,2.9,3.9,4.2c2.9,2.9,5.8,5.7,8.7,8.5
		c1.2,1.1,2.4,2.2,3.6,3.2C4.8,183.6,4.8,183.7,4.7,183.8z"/>
	<path class="st0" d="M13.9,43.8c-1.4-0.5-2.7-0.9-4.1-1.4c-1.2-0.4-2.1-0.3-3.1,0.7c-1.2,1.2-2.8,2.1-4.2,3.1
		c-0.6,0.4-1.2,0.9-1.8,1.4c-1.2,1-1.8,2.3-1.7,3.9c0.1,0.9,0,1.8,0,2.9c-3.9-1.4-7.9-2-10.7-5.2c-0.4-0.5-1-1-1.6-1.3
		c-1.5-0.9-1.8-2.3-2.1-3.8c-0.6-3-1.2-6-1.9-9c-0.7-2.8-0.7-5.5,0.6-8c0.4-0.7,1-1.4,1.7-1.7c1.8-1,3.6-2,5.5-2.7
		c1.1-0.4,2.3-0.3,3.5-0.2c3.6,0.2,7.2,0.4,10.7,0.9c2.6,0.4,4.7,1.9,6.2,4.1c1.6,2.3,2.3,5,2.6,7.8C13.7,38,13.8,40.8,13.9,43.8z"
		/>
	<path class="st0" d="M110.8-122.2c-0.7,0-1.4-0.1-2.1-0.1c-3.7-0.3-7.4-0.5-11-1.4c-1.7-0.4-3.5-0.1-5.2-0.3
		c-2.4-0.2-4.7-0.6-7.1-0.9c-0.4,0-0.7-0.2-1.1-0.1c-3.3,0.3-6.1-1.3-8.9-2.5c-0.3-0.1-0.5-0.4-0.8-0.5c-1.9-1.5-2-2.3-0.3-4
		c1.4-1.4,2.7-2.8,4.2-4.1c2.6-2.4,5.9-3.3,9.1-4.6c3-1.2,6.2-1.6,9.4-1.5c2.4,0.1,4.9,0.8,7.3,1.2c1,0.2,2,0.2,2.9,0.1
		c1.1-0.1,2,0.1,2.7,0.8c-1.2,1.7-2.5,3.3-3.6,5c-0.6,0.9-1.1,2-1.3,3c-0.3,2,0.3,3.9,1.6,5.4c1.1,1.2,2.3,2.2,3.5,3.3
		c0.3,0.3,0.8,0.4,1.2,0.6C111.1-122.7,110.9-122.5,110.8-122.2z"/>
	<path class="st0" d="M120.5-139.1c0.5-1.1,0.9-2,1.4-2.7c0.2-0.4,0.7-0.7,1.1-0.8c2.9-0.4,5.7,0.1,8.4,0.9c2.4,0.7,4,3.5,3.9,5.9
		c-0.2,3.1-1.8,5.3-4.3,6.8c-1.3,0.8-2.5,1.5-3.8,2.3c-4.4,2.8-9.1,3.1-13.9,1.4c-1.8-0.6-3.4-2.4-4.7-4c-1.4-1.7-1-3.8,0.3-5.4
		c1.5-1.9,3.4-3.6,5.1-5.3c0.5-0.6,1-1.2,1.7-1.7c0.4-0.3,1-0.5,1.6-0.7c1.1-0.2,1.9,0.2,2.4,1.3C119.8-140.5,120.1-140,120.5-139.1
		z"/>
	<path class="st0" d="M179.7,23.6c0.6-1.5,1.1-2.9,1.7-4.4c0.6-1.6,1.1-3.2,1.7-4.8c0.1-0.4,0.4-0.8,0.7-1c4.1-1.9,8.3-2.9,12.8-1.1
		c1.8,0.7,3.9,1.1,5.5,2.1c3.1,1.8,4.9,4.8,5.1,8.4c0.3,4.4,0.1,8.8-1.8,12.9c-1.1,2.4-2.6,4.6-4.5,6.5c-1.6,1.6-3.2,3.4-4.7,5.1
		c-2.3,2.5-5.3,3.8-8.4,5.2c-0.9,0.4-1.9,0.7-2.8,1.1c0-0.1-0.1-0.2-0.1-0.3c1.1-1.3,2.3-2.5,3.3-3.9c1.6-2.2,3.1-4.5,4.6-6.8
		c0.9-1.4,1.3-2.8,0.3-4.3c-0.4-0.7-0.1-1.2,0.3-1.7c2-2.9,3.9-5.8,5.8-8.8c2.4-3.8,2.3-7.8,0.8-11.8c-0.4-1.1-1-2-2-2.7
		c-1-0.6-1.9-0.5-2.8-0.3c-2.7,0.5-5.4,1-7.7,2.7c-0.7,0.5-1.4,1-1.9,1.6c-1.5,1.7-2.9,3.5-4.3,5.3c-0.4,0.5-0.8,1-1.3,1.5
		C180,23.8,179.8,23.7,179.7,23.6z"/>
	<path class="st0" d="M-21.2,30.9c0.4,2.1,0.7,4.3,1.2,6.4c0.7,3.3,1.4,6.5,2.2,9.8c0.3,1.2,1.1,2.1,2.2,2.8c0.9,0.6,1.9,1.2,2.7,2
		c2.4,2.4,5.4,3.6,8.5,4.6c1.2,0.4,2.3,0.9,3.4,1.5c0.3,0.1,0.6,0.4,0.7,0.7C1,61.2,3.2,62.5,6,62.7c1.7,0.1,3.5,0.4,5.2,0.2
		c3.5-0.3,5.7-2.6,7.4-5.5c1.1-2,2-4.1,3-6.2c0.2-0.5,0.4-0.9,0.8-1.7c0.3,0.7,0.5,1.1,0.6,1.5c0.2,1,0.2,2.1,0.6,3
		c0.4,1.2,0.2,2.1-0.6,3.1c-2.1,2.7-4.4,5.1-7.2,6.9c-4.2,2.8-8.7,3.9-13.7,2.6c-5-1.3-9.5-3.3-13.4-6.7c-0.8-0.7-1.8-1.4-2.7-2
		c-4.9-3.5-8.2-8.2-9.3-14.1c-0.4-2.3,0.1-4.8,0.3-7.2c0.1-1.4,0.6-2.8,0.9-4.2c0.1-0.5,0.4-1,0.6-1.5
		C-21.4,30.8-21.3,30.9-21.2,30.9z"/>
	<path class="st0" d="M10,23c-1.4-0.8-2.5-1.5-3.6-2.1c-0.7-0.3-1.4-0.5-2.1-0.6C0.1,19.9-4,19.4-8.2,19.1c-0.9-0.1-1.9,0.4-2.8,0.8
		c-1.8,0.7-3.6,1.6-5.8,2.5c0.3-0.7,0.3-1.1,0.5-1.3c1.7-2.3,3.5-4.6,5.3-6.9c0.3-0.3,0.7-0.6,1-0.8c1.8-0.9,3.6-1.8,5.3-2.7
		C-1.3,9,2.3,9.6,5.8,10c1,0.1,2.1,0.5,3,1c0.3,0.2,0.5,1,0.4,1.4c-0.3,2.4-0.2,4.8,0.4,7.1c0.1,0.4,0.2,0.8,0.2,1.2
		C9.9,21.3,9.9,22,10,23z"/>
	<path class="st0" d="M198.3,20.2c-0.1,2-0.7,3.7-1.8,5.4c-2,2.9-3.9,5.9-5.9,8.8c-0.5,0.8-1,0.8-1.8,0.4c-1.7-0.8-3.5-1.6-5.4-2.2
		c-0.9-0.3-2-0.4-2.8,0.5c-0.2,0.2-0.6,0.3-1,0.4c-0.3,0.1-0.8,0.1-0.9-0.1c-0.2-0.2-0.1-0.7,0-1c1.8-2.8,3.7-5.7,5.6-8.5
		c0.8-1.1,1.9-2,2.6-3.1c1.4-2.3,3.5-3.4,5.9-4.2c1.1-0.3,2.2-0.6,3.2-0.8c0.7-0.2,1.2,0,1.4,0.8C197.8,17.9,198.1,19.1,198.3,20.2z
		"/>
	<path class="st0" d="M71.8,211.9c1.6,0.1,3.2,0.1,4.8,0.3c6,0.5,12.1,0.7,18.1-0.1c3.5-0.5,7.2-0.6,10.8-0.6c5.7-0.1,11.3,0,17,0.2
		c-0.8,0.2-1.6,0.5-2.4,0.6c-5.1,0.8-10.2,1.8-15.3,2.4c-1.7,0.2-3.4-0.4-5.1-0.5c-3.9-0.1-7.7-0.1-11.6-0.2
		c-3.5,0-6.9,0.1-10.4-0.1c-2-0.1-4-0.9-6-1.4C71.7,212.3,71.8,212.1,71.8,211.9z"/>
	<path class="st0" d="M-35.9,40c0.2,0.4,0.5,0.7,0.6,1.1c2.1,6.9,1.2,13.5-2.1,19.8c-0.4,0.9-0.8,1.8-1.3,2.6
		c-0.2,0.4-0.5,1.1-1.2,0.5c-0.6-0.5-1.4-0.9-0.7-1.8c2.2-3.1,2.8-6.7,3.6-10.2c0.8-3.6,1.3-7.2,0.8-10.9c0-0.3,0-0.6,0-0.9
		C-36.1,40-36,40-35.9,40z"/>
	<path class="st0" d="M231.3,27.2c-1.8,1.1-3.7,2.3-5.5,3.4c-1.2,0.7-2.3,1.5-3.5,2.3c-0.2,0.2-0.3,0.6-0.4,1c0.3,0.1,0.7,0.4,1,0.3
		c1.4-0.7,2.8-1.4,4.2-2.3c2.1-1.3,4.2-2.6,6.3-3.9c0.4-0.2,0.8-0.3,1.2-0.4c0.1,0.1,0.2,0.3,0.2,0.4c-1.4,1-2.9,1.9-4.3,2.9
		c-0.8,0.6-1.6,1.2-2.4,1.7c-1.1,0.8-2.1,1.5-3.2,2.3c-0.3,0.2-0.5,0.7-0.6,1.1c-0.2,0.7,0.1,1.1,0.8,0.7c0.9-0.4,1.8-0.9,2.6-1.4
		c2.5-1.7,5-3.5,7.5-5.2c0.1-0.1,0.3-0.1,0.5,0c-3.2,3-7,5.4-10.5,7.8c-1.9-1.5-3.8-3-5.9-4.7c3.9-2.1,7.8-4.2,11.8-6.3
		C231.1,26.9,231.2,27.1,231.3,27.2z"/>
	<path class="st0" d="M234.5,18.3c-0.2-0.7-0.3-1-0.5-1.7c4.4-2.4,8.8-4.7,13.2-7.1C243.9,13.8,238.8,15.4,234.5,18.3z"/>
	<path class="st0" d="M-44.9,209c0.9-1.3,1.8-2.6,2.8-3.8c2.7-3.6,5.4-7.2,8.1-10.8c0.6-0.8,1.6-1.4,1.2-2.7c0-0.1,0.2-0.3,0.3-0.3
		c0.9-0.6,1.8-1.2,2.7-1.9c0.1,0.1,0.2,0.2,0.3,0.2c-4.9,6.6-9.9,13.1-14.8,19.7C-44.6,209.2-44.8,209.1-44.9,209z"/>
	<path class="st0" d="M181.8,54.1c-1.6,1-3.2,0.5-4.8,0.5c-0.9,0-1.9,0-2.8,0c-0.9,0.1-1.2-0.3-0.9-1.1c0.1-0.3,0.4-0.6,0.4-1
		c0.2-0.9,0.6-0.9,1.3-0.7c1,0.4,1.9,0.8,2.9,1.1C179.2,53.3,180.4,53.6,181.8,54.1z"/>
	<path class="st0" d="M-12.7,207.4c0.4,1,0.7,1.8,1.1,2.8c-3.3,0.5-6.7,1-10.4,1.6c1.1-1.1,1.9-2,2.8-3c1.5,2.1,2.7,2.2,4.3,0.6
		C-14.2,208.7-13.5,208.1-12.7,207.4z"/>
	<path class="st0" d="M-64.2,43.4c1.3,1.7,2.4,3.3,3.7,4.8c0.9,1.1,0.7,2.1,0.4,3.2C-62.2,50.4-65,45.3-64.2,43.4z"/>
	<path class="st0" d="M2.9,187.6c-2.5,2.5-1.5,2.4-4.6,1.2c-1.1-0.4-2.2-0.8-3.2-1.3c-0.4-0.2-0.8-0.5-1.1-1
		C-3.1,186.9-0.2,187.3,2.9,187.6z"/>
	<path class="st0" d="M254.9-1.8c-4,2.3-8,4.7-12,7c-0.1-0.1-0.1-0.2-0.2-0.3c3.1-3.8,7.7-5.2,11.9-7.1C254.8-2,254.8-1.9,254.9-1.8
		z"/>
	<path class="st0" d="M230.2,61.2c-1.3,0.1-2.3,0.2-3.2,0.1c-0.3,0-0.8-0.4-0.8-0.6c-0.3-2.1,0.5-3.1,2.7-3.5
		C229.3,58.5,229.8,59.8,230.2,61.2z"/>
	<path class="st0" d="M-51.2,21.4c1.1,0.5,1.5,1.4,1.4,2.5c-0.3,1.7-0.4,3.3-0.6,5C-52.5,27-52.6,25.7-51.2,21.4z"/>
	<path class="st0" d="M36.4,193.6c-1.6,1.3-3.2,2.7-4.8,3.9c-0.3,0.2-1-0.1-1.9-0.2c0.8-0.9,1.4-1.4,1.9-2c0.2-0.2,0.4-0.4,0.5-0.6
		C33.2,192.9,34.6,192.5,36.4,193.6z"/>
	<path class="st0" d="M243,9.8c4.3-2.8,8.6-5.7,13-8.6c0.1,0.4,0.3,0.7,0.3,1c0.3,1.3,0,1.6-1.2,1.1c-1-0.4-1.9-0.1-2.4,0.6
		c-1.9,2.6-4.8,3.5-7.4,4.9c-0.7,0.4-1.4,0.8-2.2,1.1C243.1,10,243.1,9.9,243,9.8z"/>
	<path class="st0" d="M-17.3,193.3c1.1-2.2,4-3.5,3.6-6.7c1-0.2,2.1-0.2,2.9,0.9c-2.1,2-4.2,4-6.3,6.1
		C-17.1,193.5-17.2,193.4-17.3,193.3z"/>
	<path class="st0" d="M20,201.8c-1.1,1.5-2.1,3.1-3.4,4.4c-0.5,0.5-1.8,0.4-2.7,0.5c1.9-1.9,3.7-3.7,5.9-5.1
		C19.8,201.7,19.9,201.8,20,201.8z"/>
	<path class="st0" d="M251.5-6c-3,2.1-6,4.2-9,6.4c2.3-3.1,5.5-5,8.7-6.8C251.3-6.3,251.4-6.1,251.5-6z"/>
	<path class="st0" d="M-39.8,16c1,2.6,0.7,5.4-0.1,8.6c-0.6-1.5-1.1-2.6-0.7-4.1C-40.2,18.9-40,17.4-39.8,16z"/>
	<path class="st0" d="M52.2,132.5c-3.7-1.9-6.6-4.9-9.8-7.5c0.1-0.1,0.2-0.2,0.3-0.4c3.2,2.5,6.5,5,9.7,7.6
		C52.3,132.3,52.3,132.4,52.2,132.5z"/>
	<path class="st0" d="M-42.9,58.5c-0.6-0.9-1-1.6-1.4-2.2c0.1,0,0.2,0.1,0.3,0.1c0.6-1.4,1.2-2.8,1.7-4
		C-41.1,54.2-41.8,56.2-42.9,58.5z"/>
	<path class="st0" d="M227.6,22.2c0.7-1.9,1.5-3.6,3.8-3.9c0.1,0.4,0.3,0.9,0.6,1.5C230.5,20.6,229.1,21.4,227.6,22.2z"/>
	<path class="st0" d="M26.7,191.6c-1.1,0.8-1.9,1.6-2.9,2c-0.5,0.2-1.3-0.3-1.9-0.4C22.8,190.8,24.5,190.9,26.7,191.6z"/>
	<path class="st0" d="M218.9,22.6c0.9,1.3,0.1,2.4-0.5,3.2c-0.6,0.9-1.6,1.6-2.5,2.3C215.7,27.7,217.6,23.8,218.9,22.6z"/>
	<path class="st0" d="M61.3-40.3c-0.5,0.3-1.1,0.6-1.6,1c-0.5,0.3-1,0.7-1.3-0.2c-0.2-0.6-0.9-1.2,0.3-1.7c0.6-0.2,0.9-1,1.5-1.6
		C60.7-41.9,61-41.1,61.3-40.3z"/>
	<path class="st0" d="M184.1,36.3c1.4-0.6,1.9-0.4,4,1.1c-0.4,0.6-0.9,1.2-1.5,2C185.8,38.3,185,37.4,184.1,36.3z"/>
	<path class="st0" d="M-25.7,206.7c-1.2,1.7-2.3,3.4-3.5,5.2c-0.5,0.7-1.1,1.2-2.2,0.7c1.9-2.1,3.8-4.1,5.6-6.1
		C-25.8,206.5-25.7,206.6-25.7,206.7z"/>
	<path class="st0" d="M257.2,8.4c1,1.8,0.5,3.3,0.1,4.7c-0.6-0.2-1.1-0.5-1.8-0.7C256,11.1,256.6,9.8,257.2,8.4z"/>
	<path class="st0" d="M247.7,32c-0.3-0.5-0.5-0.8-0.8-1.2c1.3-1.5,2.6-3,4-4.5c0.1,0.1,0.2,0.1,0.3,0.2
		C250.1,28.3,248.9,30,247.7,32z"/>
	<path class="st0" d="M21.4,195.6c-1.4,0.8-2.3,2.5-4.1,2.7c-0.1-0.1-0.1-0.2-0.2-0.3c0.8-1,1.5-2,2.5-2.8c0.3-0.3,1.2,0.1,1.8,0.1
		C21.4,195.3,21.4,195.5,21.4,195.6z"/>
	<path class="st0" d="M-27.1,217.1c0.7-1.2,1.6-1.5,2.7-1.6c2-0.2,4-0.6,6-0.7C-21.3,215.6-24.1,216.3-27.1,217.1z"/>
	<path class="st0" d="M15.8,55.5c-0.9,2-2.4,3.5-4.5,4.2C12.5,58,14.1,56.7,15.8,55.5z"/>
	<path class="st0" d="M213.1,191.9c-0.1,0.4,0,1.1-0.3,1.3c-1.5,1-3.1,1.9-4.7,2.7c1.5-1.4,3-2.8,4.5-4.1
		C212.7,191.8,212.9,191.9,213.1,191.9z"/>
	<path class="st0" d="M-60.8,5.2c2.6,0.7,3.8,2.7,4.7,4.8c-0.1,0.1-0.2,0.2-0.3,0.3c-0.4-0.6-0.8-1.1-1.1-1.7
		c-0.4-0.8-0.7-1.4-1.8-1.6C-59.9,6.9-60.3,5.8-60.8,5.2z"/>
	<path class="st0" d="M-43.8,68.1c0.5-0.9,0.9-1.7,1.4-2.4c0.1-0.1,0.7,0,0.8,0.1c0.2,0.3,0.6,0.9,0.5,1c-0.5,0.6-1.2,1.1-1.9,1.6
		C-43.1,68.5-43.4,68.3-43.8,68.1z"/>
	<path class="st0" d="M-64.5,1.3c0,1.1,0,1.9,0,2.8c-0.6-0.8-2.4,0-2.2-1.6C-66.6,2-65.4,1.8-64.5,1.3z"/>
	<path class="st0" d="M10.6,188.5c-1.4,1-2.8,2-4.4,3.1c1-1.3,1.7-2.4,2.7-3.4c0.3-0.3,1.1-0.1,1.6-0.2
		C10.5,188.2,10.5,188.4,10.6,188.5z"/>
	<path class="st0" d="M66.2-45c1.3,1.5,1.3,1.6-0.2,2.3c-0.5,0.3-1,0.6-1.5,1c-0.1-0.1-0.2-0.2-0.3-0.2C64.8-42.9,65.4-43.9,66.2-45
		z"/>
	<path class="st0" d="M227,51.2c1.3,0.1,1.3,1.1,1.2,1.7c0,0.6-0.5,1.1-0.8,1.7c-0.1-0.1-0.3-0.1-0.4-0.2
		C227,53.4,227,52.4,227,51.2z"/>
	<path class="st0" d="M-46.3,29.2c-0.3-0.7-0.9-1.5-1.1-2.4c-0.1-0.7,0.3-1.4,0.6-2.3C-46,25.8-46,25.8-46.3,29.2z"/>
	<path class="st0" d="M-69,18c-1.3-1.1-0.1-2.4-0.3-3.7C-67.9,16-67.8,17-69,18z"/>
	<path class="st0" d="M198.5,182.1c0.2-1.8,1.2-2.5,3.6-2.6C200.9,180.3,200.3,181.9,198.5,182.1z"/>
	<path class="st0" d="M17.6,42.5c0.4,0.9,0.7,1.6,1.1,2.7c-1.2-0.3-2-0.4-2.9-0.6C16.4,43.8,17,43.2,17.6,42.5z"/>
	<path class="st0" d="M-45.7,38.4c0.5-2.5,0.9-5.1,1.4-7.6c0.2,0,0.3,0.1,0.5,0.1c-0.5,2.5-1,5-1.5,7.6
		C-45.4,38.4-45.5,38.4-45.7,38.4z"/>
	<path class="st0" d="M18.3,50.4c-0.7-0.8-1.5-1.6-2.2-2.4c0-0.1,0-0.2,0.1-0.2c0.9,0.4,1.9,0.7,2.7,1.2c0.2,0.1-0.1,0.9-0.2,1.4
		C18.5,50.4,18.4,50.4,18.3,50.4z"/>
	<path class="st0" d="M149.4-60.2c0.7-0.5,1.4-1.1,2.2-1.6c0.2,0.8,0.4,1.4,0.7,2.2c-1-0.1-1.9-0.2-2.8-0.2
		C149.5-60,149.4-60.1,149.4-60.2z"/>
	<path class="st0" d="M-56.6,53.9c-0.5,0-1.4,0-1.5-0.1c-0.2-0.7-0.1-1.4-0.1-2.2c0.1-0.1,0.3-0.1,0.4-0.2c0.5,0.7,0.9,1.4,1.4,2.1
		C-56.5,53.7-56.6,53.8-56.6,53.9z"/>
	<path class="st0" d="M-53.9,57.3c-1-0.7-1.9-1.4-2.9-2.2c1.3-0.3,2.8,0.8,3.2,1.9C-53.7,57.1-53.8,57.2-53.9,57.3z"/>
	<path class="st0" d="M233.7,10.5c0.2-2.4,2-2.3,3.5-2.7C236.1,8.6,234.9,9.5,233.7,10.5z"/>
	<path class="st0" d="M2.2,53.4c-0.7-2.1-0.3-3.1,1.3-4.2C3.1,50.6,2.7,51.9,2.2,53.4z"/>
	<path class="st0" d="M255.9,17.9c-0.8-0.4-0.9-0.8-0.4-1.6c0.6-0.7,0.9-1.6,1.6-2.3C256.8,15.3,256.3,16.6,255.9,17.9z"/>
	<path class="st0" d="M-71.3,11.6c0.5-1.9,0.9-3.8,1.4-5.7c0.1,0,0.3,0.1,0.4,0.1c-0.5,1.9-1,3.8-1.5,5.6
		C-71.1,11.6-71.2,11.6-71.3,11.6z"/>
	<path class="st0" d="M-67.5,13c-0.4-0.2-0.9-0.3-1.4-0.5c0-0.3,0-0.7,0.1-1c0-0.4,0.1-0.7,0.3-1.3c0.5,1,0.9,1.8,1.4,2.6
		C-67.3,12.8-67.4,12.9-67.5,13z"/>
	<path class="st0" d="M29,199.4c-1.1,0.8-2,1.5-2.9,2.1C26.9,199.7,28,198.9,29,199.4z"/>
	<path class="st0" d="M-51.6,37.1c-0.6-1.2-1.2-2.4-1.8-3.7c0.1-0.1,0.3-0.1,0.4-0.2c0.6,1.2,1.2,2.4,1.9,3.7
		C-51.3,37-51.5,37.1-51.6,37.1z"/>
	<path class="st0" d="M179.8,43.3c0.7-1,1.5-1.9,3.1-1.7c-1,0.6-1.9,1.3-2.9,1.9C180,43.5,179.9,43.4,179.8,43.3z"/>
	<path class="st0" d="M230.8,49.6c0.6-1,1.1-2.1,1.7-3.1c0.2,0.1,0.3,0.2,0.5,0.3c-0.6,1-1.1,2.1-1.7,3.1
		C231.1,49.9,231,49.8,230.8,49.6z"/>
	<path class="st0" d="M172.5,206.2c0.2,0.5,0.3,0.8,0.4,1.2c-0.9,0.2-1.8,0.4-2.8,0.6c0-0.1-0.1-0.1-0.1-0.2
		C170.8,207.2,171.6,206.7,172.5,206.2z"/>
	<path class="st0" d="M-54.5,42.9c1.5,0.9,1.8,1.6,1.5,2.9C-53.6,44.7-54.1,43.8-54.5,42.9z"/>
	<path class="st0" d="M-46,61.1c0.5,0.3,1.1,0.6,1.6,0.9c0,0-0.2,0.5-0.4,0.7c-0.5-0.4-1-0.7-1.5-1.1C-46.2,61.4-46.1,61.3-46,61.1z
		"/>
	<path class="st0" d="M-66.7,41.4c-0.5-1.2-1-2.5-1.6-3.7c0.1,0,0.2-0.1,0.3-0.1c0.6,1.2,1.1,2.4,1.7,3.6
		C-66.4,41.3-66.6,41.3-66.7,41.4z"/>
	<path class="st0" d="M-62,36.3c-0.2-0.9-0.4-1.7-0.5-2.6c0.2,0,0.4-0.1,0.6-0.1c0.2,0.8,0.4,1.7,0.6,2.5
		C-61.6,36.2-61.8,36.2-62,36.3z"/>
	<path class="st0" d="M224.8,25.5c0.8-0.4,1.6-0.8,2.4-1.2c0.1,0.2,0.2,0.3,0.3,0.5c-0.8,0.4-1.6,0.8-2.4,1.2
		C225,25.8,224.9,25.7,224.8,25.5z"/>
	<path class="st0" d="M-63.6,33.1c-0.3-1.1-0.6-1.9-0.9-2.7c0.1,0,0.3-0.1,0.4-0.1C-63.5,31-62.9,31.7-63.6,33.1z"/>
	<path class="st0" d="M144.8-61.9c-0.2,1.5-1,1.8-2.4,1.3C143.2-61.1,143.9-61.5,144.8-61.9z"/>
	<path class="st0" d="M-40.3,34.4c0.1,1.1,0.3,2.3-0.7,3.2C-40.7,36.5-40.5,35.4-40.3,34.4z"/>
	<path class="st0" d="M-40.1,47.5c0.1-1.2,0.2-2.5,0.3-3.7c0.1,0,0.2,0,0.3,0c-0.1,1.2-0.2,2.5-0.3,3.7
		C-39.9,47.5-40,47.5-40.1,47.5z"/>
	<path d="M142.7,188.5c-0.4,0.1-0.8,0.5-1.1,0.4c-0.6-0.3-1.2-0.8-1.6-1.3c-0.1-0.1,0.6-0.8,0.9-1.2c0.5,0.5,1,1,1.5,1.5
		C142.6,188.1,142.6,188.3,142.7,188.5z"/>
	<path d="M81.7-38.3c3.4,0,6.4,0.3,9.3,1.3c1.4,0.5,2.3,1.6,3.1,2.7c1.2,1.8,2.5,3.6,3.3,5.6c0.4,0.9-0.2,2.2-0.4,3.3
		c0,0.1-0.6,0.4-0.7,0.3c-0.4-0.3-0.8-0.7-1-1.1c-0.6-2.1-1.5-3.9-2.8-5.6c-1.2-1.7-2.7-2.3-4.5-2.7c-8.1-1.5-14.9,1.1-20.4,7
		c-2.8,2.9-3.9,6.5-4.3,10.5C63-12.9,64-9.4,66.4-6.2c1.4,1.8,2.7,3.6,4.1,5.4c0.5,0.7,0.6,1.3,0.1,1.9c-0.6,0.7-1.2,0.5-1.8,0.1
		c-0.3-0.3-0.8-0.5-1-0.8c-1.6-2.4-3.2-4.7-4.8-7.1c-3.5-5.1-3.4-10.6-1.6-16.2c1.1-3.2,2.6-6.2,5.1-8.5c2.4-2.3,5-4.4,8.2-5.5
		C77.1-37.7,79.4-38.9,81.7-38.3z"/>
	<path d="M84.4-13.8c-3.4,0-6.1-2.7-6.1-6.1c0-3.4,2.8-6.1,6.1-6.1c3.3,0,6,2.7,6.1,6.1C90.5-16.6,87.8-13.8,84.4-13.8z"/>
	<path d="M109.8-13.8c-3.4,0-6.1-2.8-6-6.2c0.1-3.4,3.1-6.3,6.5-6.2c2.8,0.1,5.7,3.3,5.6,6.3C115.9-16.5,113.2-13.8,109.8-13.8z"/>
</g>
</svg>
