<?xml version="1.0" standalone="no"?>
<!DOCTYPE svg PUBLIC "-//W3C//DTD SVG 20010904//EN"
 "http://www.w3.org/TR/2001/REC-SVG-20010904/DTD/svg10.dtd">
<svg version="1.0" xmlns="http://www.w3.org/2000/svg"
 width="3400.000000pt" height="3194.000000pt" viewBox="0 0 3400.000000 3194.000000"
 preserveAspectRatio="xMidYMid meet">
<metadata>
Created by potrace 1.16, written by Peter Selinger 2001-2019
</metadata>
<g transform="translate(0.000000,3194.000000) scale(0.100000,-0.100000)"
fill="#000000" stroke="none">
<path d="M0 15970 l0 -15970 17000 0 17000 0 0 15970 0 15970 -17000 0 -17000
0 0 -15970z m19086 10365 c6 -2 31 -38 56 -82 24 -43 334 -582 688 -1198 354
-616 755 -1313 890 -1550 136 -236 290 -504 342 -595 l96 -165 -582 -5 -581
-5 586 -3 587 -2 418 -727 c615 -1072 908 -1581 1218 -2123 153 -267 312 -543
353 -613 41 -71 73 -130 71 -132 -1 -2 -1258 1 -2793 5 -1534 5 -4335 11
-6224 15 -1889 3 -3436 7 -3438 9 -2 1 27 54 63 117 37 63 442 762 902 1554
459 792 897 1546 972 1675 l137 235 959 5 959 5 -947 3 c-522 1 -948 5 -948 9
0 6 32 63 169 298 42 72 83 142 90 157 8 15 22 36 31 45 9 10 17 23 18 28 0 6
21 44 45 85 24 41 147 253 272 470 126 217 265 458 310 535 46 77 142 244 215
370 73 127 162 278 197 338 34 59 63 110 63 113 0 3 14 25 30 49 17 24 30 46
30 48 0 5 116 205 153 264 15 24 27 44 27 47 0 5 356 618 367 631 4 6 18 31
30 56 l23 46 2067 -4 c1138 -3 2073 -6 2079 -8z m-11851 -8780 c709 -82 1368
-345 1862 -744 254 -205 476 -488 632 -805 88 -179 133 -301 181 -490 65 -258
75 -350 75 -696 0 -270 -3 -321 -23 -449 -124 -773 -498 -1437 -1212 -2151
-345 -345 -684 -619 -1095 -881 -336 -215 -532 -317 -1006 -524 l-316 -138 -7
-101 c-3 -56 -11 -164 -16 -241 -21 -300 -40 -725 -46 -1040 -6 -266 -10 -334
-22 -353 -21 -32 -11 -161 21 -277 48 -178 78 -280 86 -294 4 -8 20 -24 35
-35 23 -18 42 -21 119 -21 80 0 99 4 149 28 141 69 318 206 543 417 77 73 163
147 190 165 28 18 77 60 110 94 33 33 63 61 68 61 15 0 -66 -142 -162 -285
-52 -77 -141 -209 -197 -292 -56 -84 -128 -199 -160 -255 -102 -185 -137 -232
-204 -277 -76 -50 -143 -71 -231 -71 -288 0 -571 176 -736 458 -188 321 -302
1043 -303 1925 l0 227 -33 0 c-18 0 -95 -9 -172 -20 -318 -45 -632 -12 -828
86 -83 42 -182 136 -215 204 -70 147 -67 338 8 507 32 72 122 202 195 281 160
172 464 355 914 548 118 51 217 98 221 106 9 17 27 354 41 778 21 620 5 952
-81 1664 -53 436 -77 678 -91 922 -10 177 -9 205 5 231 42 82 283 117 499 72
355 -73 580 -216 717 -454 73 -128 151 -344 191 -527 9 -42 18 -59 37 -69 l24
-14 -6 -150 c-13 -299 -40 -556 -91 -875 -49 -304 -83 -458 -241 -1103 -42
-170 -74 -310 -72 -312 2 -2 40 2 85 10 153 27 430 37 831 32 512 -7 613 -24
781 -131 39 -25 71 -48 71 -51 0 -3 -10 0 -22 7 -31 18 -725 18 -933 0 -290
-24 -837 -102 -858 -121 -15 -15 -36 -115 -61 -291 -21 -148 -38 -296 -102
-882 l-6 -57 99 38 c494 193 941 440 1358 750 565 421 1086 977 1509 1610 212
316 315 583 372 963 21 142 30 582 15 718 -56 484 -286 890 -636 1123 -267
176 -560 271 -1032 331 -525 67 -947 72 -1398 15 -510 -65 -1128 -232 -1625
-439 -322 -134 -648 -248 -983 -345 -387 -111 -691 -159 -1007 -159 -155 0
-188 3 -288 27 -280 65 -505 229 -606 439 -54 114 -74 194 -87 348 -7 91 -17
140 -39 201 -39 105 -39 142 0 181 27 27 29 32 17 47 -34 38 -38 59 -26 122 6
33 15 58 18 57 3 -2 34 -18 69 -36 216 -112 539 -166 864 -143 345 24 613 79
1158 237 1378 397 1603 459 1855 508 160 31 387 64 520 76 142 12 565 4 730
-15z m18378 -2975 c62 -29 139 -107 172 -173 64 -129 4 -394 -113 -497 -100
-89 -199 -120 -378 -120 -118 0 -122 1 -162 29 -29 22 -51 52 -79 107 -36 73
-38 83 -38 168 1 69 6 106 23 151 52 139 208 308 327 353 51 19 192 9 248 -18z
m-14731 -580 c48 -14 97 -55 114 -97 43 -103 -5 -245 -213 -623 -514 -934
-520 -945 -548 -959 -38 -18 -59 -4 -63 41 -3 40 9 66 173 353 140 246 318
594 341 668 17 56 17 58 -2 85 -27 36 -142 112 -171 112 -12 0 -56 -18 -97
-39 -41 -22 -92 -43 -113 -47 -31 -6 -57 -26 -141 -111 -103 -106 -148 -176
-182 -288 -7 -22 -30 -74 -51 -115 -41 -82 -60 -168 -47 -215 5 -17 6 -82 2
-145 -5 -107 -4 -120 19 -181 14 -36 35 -85 47 -109 27 -53 114 -146 192 -207
76 -58 125 -68 448 -88 303 -18 372 -31 494 -93 122 -63 202 -141 253 -248
l38 -79 3 -251 c3 -223 1 -264 -18 -365 -24 -124 -23 -139 16 -729 32 -494 48
-560 136 -560 70 0 197 93 318 232 299 344 887 1274 1199 1895 57 114 84 140
128 126 15 -5 29 -17 31 -26 2 -9 -104 -270 -236 -579 -233 -546 -245 -572
-407 -858 -92 -162 -180 -311 -195 -330 -15 -19 -61 -105 -102 -190 -122 -249
-213 -355 -372 -431 -175 -83 -460 -169 -563 -169 -201 0 -527 238 -604 440
-30 79 -36 139 -49 453 -29 752 -39 905 -81 1157 -31 189 -80 320 -142 378
-13 12 -116 60 -230 106 -234 96 -291 130 -378 224 -117 127 -175 237 -199
380 -28 171 31 420 161 672 252 492 638 816 974 819 44 1 97 -4 117 -9z
m17326 -171 c32 -6 59 -20 77 -39 27 -28 28 -32 22 -102 -16 -208 -193 -553
-786 -1528 -122 -201 -231 -373 -243 -382 -28 -24 -73 -23 -99 3 -33 33 -20
77 63 229 114 206 578 1096 578 1108 0 15 -73 25 -122 17 -162 -27 -325 -205
-474 -520 -152 -322 -236 -664 -221 -902 6 -96 27 -147 78 -181 32 -22 34 -22
46 -5 41 60 69 67 81 21 l8 -33 85 1 c46 0 206 4 354 9 265 8 271 8 312 -14
29 -14 61 -21 101 -21 141 0 303 -47 404 -117 l38 -25 97 85 c54 47 194 170
312 274 l214 188 32 90 c150 423 571 945 918 1139 124 69 305 114 354 88 14
-8 35 -7 74 3 123 33 208 11 274 -71 21 -27 87 -98 145 -159 87 -90 112 -124
140 -185 18 -41 46 -95 61 -120 43 -71 68 -160 75 -267 5 -85 2 -120 -25 -263
-61 -318 -73 -348 -172 -431 -157 -131 -406 -224 -801 -299 -294 -55 -264 -46
-287 -93 -30 -63 -50 -173 -62 -346 -12 -167 -7 -398 11 -496 40 -220 161
-405 307 -472 49 -23 65 -25 132 -20 147 10 297 87 436 224 50 48 155 169 235
267 80 98 182 223 227 277 62 76 85 112 98 155 10 35 30 71 54 97 53 58 113
155 216 348 105 195 284 491 341 563 23 30 48 51 60 51 17 0 19 -7 17 -73 l-2
-73 -167 -317 c-308 -585 -553 -1040 -657 -1221 -21 -35 -68 -98 -105 -141
-37 -43 -84 -99 -105 -126 -75 -96 -352 -295 -494 -355 -68 -28 -92 -33 -189
-37 -122 -5 -177 7 -308 67 -292 134 -624 530 -786 939 -107 272 -154 616
-120 902 4 41 7 77 5 79 -2 2 -25 -20 -51 -48 -25 -28 -54 -53 -63 -56 -10 -3
-36 -40 -59 -83 -28 -52 -53 -84 -77 -99 -19 -13 -46 -41 -61 -62 l-26 -39 36
-52 c58 -84 69 -141 64 -305 -15 -409 -232 -897 -598 -1348 -140 -172 -179
-212 -227 -236 -28 -14 -45 -30 -49 -46 -8 -33 -90 -106 -174 -155 -175 -105
-426 -140 -555 -79 -71 33 -129 95 -150 159 -14 43 -17 75 -12 164 4 95 11
129 45 233 140 422 640 1139 1018 1460 l72 61 -57 11 c-110 22 -292 31 -692
34 l-406 2 -61 -110 c-33 -60 -95 -177 -138 -260 -154 -301 -296 -529 -476
-768 -263 -349 -483 -522 -788 -622 -47 -16 -102 -39 -123 -52 -37 -23 -41
-24 -134 -13 -230 25 -428 132 -553 298 -66 88 -107 189 -127 313 -16 94 -16
111 1 257 18 169 51 393 90 617 52 298 103 749 112 985 6 137 4 176 -10 230
-18 68 -56 120 -87 120 -24 0 -49 27 -49 53 0 19 125 242 170 304 34 46 80 63
171 63 62 0 90 -4 98 -14 25 -30 105 -57 211 -71 60 -8 126 -22 147 -30 83
-35 124 -104 143 -245 21 -148 -1 -356 -100 -975 -32 -203 -92 -633 -131 -954
l-72 -584 32 -29 c19 -17 43 -28 60 -28 106 0 349 105 493 212 221 166 536
553 845 1040 154 243 191 310 175 316 -27 9 -102 66 -149 114 -123 125 -160
238 -150 458 21 460 195 922 524 1386 145 205 322 396 467 506 192 145 411
213 574 177z m-13368 -621 c26 -13 56 -40 72 -63 14 -22 74 -88 132 -147 101
-104 108 -114 191 -275 l86 -168 11 -110 c10 -94 9 -123 -6 -200 -9 -49 -26
-139 -37 -200 -28 -156 -46 -211 -82 -253 -157 -181 -405 -285 -899 -377 -106
-20 -203 -39 -216 -42 -67 -16 -112 -265 -112 -617 0 -317 59 -505 205 -652
80 -80 127 -106 205 -112 102 -7 254 44 374 127 60 42 215 206 336 356 57 72
151 186 208 254 84 99 108 135 124 185 13 38 35 76 58 101 49 52 115 160 225
365 48 91 113 204 143 252 52 84 54 88 42 123 -11 34 -10 42 24 108 19 40 59
103 88 141 29 37 61 82 70 99 9 17 39 47 65 66 29 22 93 97 159 185 151 201
143 194 250 212 98 16 352 11 389 -9 11 -5 63 -53 115 -106 92 -93 97 -99 123
-181 48 -149 102 -431 187 -980 67 -427 139 -781 197 -955 25 -76 90 -205 104
-205 13 0 58 79 219 380 539 1009 775 1402 925 1539 l48 44 106 -6 c234 -13
383 -88 479 -240 57 -90 115 -210 147 -301 48 -143 146 -546 190 -790 57 -311
94 -430 127 -410 12 8 71 132 187 393 337 756 648 1342 884 1661 208 282 429
487 606 561 374 157 690 -91 891 -701 81 -243 149 -620 230 -1260 92 -729 112
-858 152 -953 26 -60 52 -68 110 -34 57 33 213 195 319 332 166 214 506 716
883 1305 104 162 204 310 222 328 24 23 43 32 67 32 60 0 72 -33 32 -85 -31
-41 -226 -392 -435 -785 -398 -748 -719 -1335 -773 -1415 -57 -84 -140 -169
-221 -226 -129 -91 -306 -141 -573 -159 -157 -11 -213 -6 -277 27 -152 79
-272 308 -379 728 -74 290 -112 538 -147 960 -11 138 -29 340 -40 450 -80 793
-141 1085 -226 1085 -62 0 -115 -62 -173 -205 -47 -113 -86 -179 -129 -214
-20 -18 -44 -38 -53 -46 -67 -62 -557 -1051 -768 -1548 -118 -278 -161 -407
-272 -817 -72 -262 -147 -350 -262 -306 -122 46 -458 358 -574 532 -74 111
-136 312 -299 968 -105 423 -144 558 -168 591 -60 82 -206 -192 -511 -960
-162 -409 -329 -718 -495 -920 -158 -190 -326 -261 -490 -205 -141 48 -313
197 -423 366 -58 90 -66 108 -85 204 -39 190 -81 438 -132 779 -28 185 -66
432 -86 549 l-35 214 -64 127 c-35 70 -68 147 -75 172 -17 64 -35 81 -79 73
-42 -8 -103 -37 -118 -56 -5 -7 -13 -27 -16 -44 -7 -34 -553 -1069 -791 -1499
-51 -92 -146 -216 -271 -353 -106 -116 -377 -296 -508 -337 -152 -48 -309 -30
-475 54 -352 179 -712 672 -835 1146 -44 166 -59 285 -59 470 0 473 145 866
474 1285 107 136 320 349 428 429 163 121 374 200 469 175 24 -6 52 -6 86 2
83 20 155 17 205 -8z m-11329 -7248 c415 -41 781 -215 1006 -477 l46 -54 -44
-46 c-24 -24 -56 -53 -71 -64 l-27 -20 -103 104 c-188 189 -392 299 -663 357
-141 30 -405 38 -537 16 -479 -79 -790 -386 -791 -781 -1 -185 48 -304 177
-430 58 -57 109 -95 176 -132 168 -93 290 -137 767 -277 122 -36 279 -86 350
-112 484 -175 726 -391 821 -732 24 -88 26 -112 26 -267 -1 -187 -12 -250 -75
-400 -151 -363 -509 -587 -1014 -635 -418 -39 -807 40 -1126 228 -147 87 -291
206 -391 325 l-41 48 58 52 c99 88 80 91 197 -26 162 -163 315 -267 513 -348
209 -85 386 -114 645 -106 368 11 621 100 804 285 153 154 228 344 228 577 0
138 -21 234 -75 345 -34 71 -57 101 -136 180 -175 174 -355 255 -936 424 -344
99 -505 155 -650 225 -373 181 -539 438 -522 811 7 145 29 235 87 355 197 404
714 632 1301 575z m4100 0 c525 -54 964 -304 1262 -721 89 -124 207 -360 257
-515 82 -253 114 -458 114 -739 0 -385 -68 -690 -224 -1006 -208 -423 -561
-737 -989 -880 -684 -228 -1441 -54 -1901 437 -321 344 -504 815 -526 1359
-32 755 291 1445 841 1798 329 211 755 308 1166 267z m9317 -64 c4 -5 982
-3469 995 -3526 2 -8 11 10 20 41 20 66 440 1550 748 2644 121 429 225 795
230 813 l11 33 101 -3 100 -3 43 -150 c59 -212 608 -2153 776 -2745 77 -272
149 -528 160 -568 11 -40 22 -72 23 -70 2 2 41 140 88 308 73 260 790 2812
877 3119 16 57 31 105 33 108 3 2 49 2 104 1 l99 -3 -221 -775 c-122 -426
-367 -1287 -545 -1912 l-324 -1138 -112 0 -111 0 -192 673 c-624 2192 -799
2799 -803 2791 -3 -5 -43 -139 -88 -299 -93 -329 -888 -3120 -896 -3148 -5
-16 -17 -17 -117 -15 l-112 3 -271 950 c-560 1966 -814 2860 -814 2870 0 10
187 11 198 1z m10782 -19 c439 -109 703 -360 813 -770 19 -72 22 -106 21 -292
0 -194 -2 -217 -26 -307 -69 -254 -213 -457 -422 -593 -160 -104 -340 -165
-550 -185 -60 -5 -111 -11 -112 -13 -2 -2 260 -371 581 -820 322 -449 585
-819 585 -822 0 -3 -53 -5 -117 -5 l-118 0 -68 98 c-38 53 -299 424 -580 824
l-512 728 -462 0 -463 0 0 -825 0 -825 -90 0 -90 0 0 1918 0 1917 772 -6 c667
-5 782 -8 838 -22z m-15010 -62 l0 -85 -1080 0 -1080 0 0 -800 0 -800 1060 0
1060 0 0 -90 0 -90 -1060 0 -1060 0 0 -940 0 -940 -95 0 -95 0 0 1915 0 1915
1175 0 1175 0 0 -85z m3440 0 l0 -85 -650 0 -650 0 0 -1830 0 -1830 -95 0 -95
0 0 1830 0 1830 -645 0 -645 0 0 85 0 85 1390 0 1390 0 0 -85z m7517 63 c28
-63 1583 -3796 1583 -3802 0 -4 -48 -5 -107 -4 l-107 3 -211 510 -212 510
-1068 0 -1067 0 -195 -470 c-107 -258 -202 -489 -211 -513 l-16 -42 -109 0
c-83 0 -108 3 -104 13 2 6 361 868 797 1915 l793 1902 112 0 c106 0 112 -1
122 -22z m8343 -63 l0 -85 -1080 0 -1080 0 0 -800 0 -800 1060 0 1060 0 0 -90
0 -90 -1060 0 -1060 0 0 -855 0 -855 1080 0 1080 0 0 -85 0 -85 -1175 0 -1175
0 0 1915 0 1915 1175 0 1175 0 0 -85z"/>
<path d="M5605 11830 c-11 -5 -87 -35 -170 -66 -189 -71 -462 -204 -585 -286
-53 -35 -138 -105 -191 -158 -79 -78 -104 -110 -135 -175 -36 -75 -39 -86 -39
-170 0 -80 3 -95 27 -136 48 -82 130 -134 266 -171 58 -15 120 -21 252 -25
188 -5 311 7 460 48 l77 20 6 177 c4 97 16 287 27 422 21 255 36 530 29 529
-2 0 -13 -4 -24 -9z"/>
<path d="M30825 12616 c-124 -59 -345 -256 -436 -389 -160 -234 -194 -289
-246 -392 -77 -153 -108 -236 -91 -246 19 -12 101 -11 156 2 125 30 391 180
474 267 182 192 298 457 298 683 0 99 -52 124 -155 75z"/>
<path d="M28291 10862 c-176 -148 -623 -772 -720 -1006 -29 -69 -43 -148 -28
-162 22 -23 168 99 281 235 255 307 457 641 506 835 21 82 26 136 13 136 -5
-1 -28 -17 -52 -38z"/>
<path d="M14950 12614 c-123 -57 -339 -249 -430 -383 -167 -246 -198 -296
-255 -411 -85 -172 -102 -219 -84 -231 27 -17 120 -9 197 17 147 49 371 181
441 260 161 182 257 387 281 601 11 102 5 148 -23 165 -23 15 -72 8 -127 -18z"/>
<path d="M7230 5783 c-90 -9 -260 -47 -348 -77 -588 -200 -969 -713 -1058
-1426 -8 -63 -14 -196 -14 -295 0 -280 30 -479 110 -719 187 -562 599 -937
1160 -1056 133 -28 412 -38 555 -21 541 69 972 380 1210 875 260 540 262 1290
6 1831 -241 508 -665 815 -1221 884 -79 10 -321 12 -400 4z"/>
<path d="M26280 4815 l0 -915 613 0 c660 0 716 4 864 54 227 77 391 221 493
431 73 151 94 247 94 430 0 120 -4 167 -22 237 -94 379 -369 618 -767 667 -56
7 -312 11 -682 11 l-593 0 0 -915z"/>
<path d="M23518 5643 c-8 -21 -101 -245 -205 -498 -261 -629 -764 -1847 -770
-1862 -4 -10 198 -13 991 -13 548 0 996 2 996 5 0 4 -382 933 -560 1360 -32
77 -140 338 -240 580 -100 242 -185 446 -189 453 -5 9 -12 1 -23 -25z"/>
</g>
</svg>
