<?xml version="1.0" encoding="iso-8859-1"?>
<!-- Generator: Adobe Illustrator 19.0.0, SVG Export Plug-In . SVG Version: 6.00 Build 0)  -->
<svg version="1.1" id="Layer_1" xmlns="http://www.w3.org/2000/svg" xmlns:xlink="http://www.w3.org/1999/xlink" x="0px" y="0px"
	 viewBox="0 0 512 512" style="enable-background:new 0 0 512 512;" xml:space="preserve">
<path style="fill:#FF877F;" d="M263.474,499.2c-17.084,0-33.161-6.656-45.252-18.731l-90.505-90.522l63.343-63.351l-63.343-63.377
	l99.558-99.55l108.621,108.612l-54.306,54.298c-4.838,4.838-7.501,11.264-7.501,18.108c0,6.835,2.662,13.269,7.501,18.099
	l27.153,27.162c24.951,24.951,24.951,65.553,0,90.505C296.643,492.544,280.566,499.2,263.474,499.2z"/>
<rect x="266.612" y="79.316" transform="matrix(0.7072 -0.707 0.707 0.7072 -35.4177 277.899)" style="fill:#E9EBEF;" width="102.399" height="204.79"/>
<path style="fill:#BCB0AD;" d="M109.61,371.84c-24.951-24.951-24.951-65.553,0-90.505l18.116-18.116l63.343,63.386l-63.343,63.351
	L109.61,371.84z"/>
<path style="fill:#573A32;" d="M335.888,290.381L335.888,290.381L335.888,290.381c4.804,4.804,11.315,7.501,18.099,7.501
	c6.793,0,13.303-2.697,18.099-7.501l54.306-54.306c10.001-10.001,10.001-26.206,0-36.207L306.44,79.923
	c8.96-8.201,14.822-20.804,14.822-35.123c0-24.738-17.195-44.8-38.4-44.8s-38.4,20.062-38.4,44.8
	c0,13.602,5.308,25.643,13.517,33.86l-48.811,48.802c-4.804,4.804-7.501,11.315-7.501,18.099c0,6.793,2.697,13.303,7.501,18.099l0,0
	l0,0L100.564,272.282c-29.943,29.943-29.943,78.669,0,108.612l108.612,108.612C223.683,504.013,242.969,512,263.483,512
	s39.799-7.987,54.306-22.494c14.507-14.507,22.494-33.792,22.494-54.306s-7.987-39.799-22.494-54.306l-27.153-27.153
	c-4.992-4.992-4.992-13.116,0-18.099L335.888,290.381z M282.87,25.6c6.059,0,12.8,7.885,12.8,19.2S288.929,64,282.87,64
	c-6.059,0-12.8-7.885-12.8-19.2S276.812,25.6,282.87,25.6z M281.582,91.264l126.711,126.711l-54.306,54.306L227.276,145.57
	L281.582,91.264z M118.664,362.795c-19.994-19.994-19.994-52.412,0-72.405l9.054-9.054l45.244,45.269l-45.252,45.252
	L118.664,362.795z M272.528,371.84l27.153,27.153c19.994,19.994,19.994,52.412,0,72.405c-9.993,10.001-23.1,15.002-36.198,15.002
	c-13.099,0-26.206-5.001-36.207-14.993l-81.459-81.459l54.298-54.298c5.001-5.001,5.001-13.099,0-18.099l-54.298-54.323
	l81.451-81.451l90.513,90.513l-45.252,45.252C257.535,332.535,257.535,356.847,272.528,371.84z"/>
<g>
</g>
<g>
</g>
<g>
</g>
<g>
</g>
<g>
</g>
<g>
</g>
<g>
</g>
<g>
</g>
<g>
</g>
<g>
</g>
<g>
</g>
<g>
</g>
<g>
</g>
<g>
</g>
<g>
</g>
</svg>
