<?xml version="1.0" encoding="iso-8859-1"?>
<!-- Generator: Adobe Illustrator 16.0.0, SVG Export Plug-In . SVG Version: 6.00 Build 0)  -->
<!DOCTYPE svg PUBLIC "-//W3C//DTD SVG 1.1//EN" "http://www.w3.org/Graphics/SVG/1.1/DTD/svg11.dtd">
<svg version="1.1" id="Capa_1" xmlns="http://www.w3.org/2000/svg" xmlns:xlink="http://www.w3.org/1999/xlink" x="0px" y="0px"
	 width="103.834px" height="103.834px" viewBox="0 0 103.834 103.834" style="enable-background:new 0 0 103.834 103.834;"
	 xml:space="preserve">
<g>
	<g>
		<path d="M63.155,97.179c-5.611-0.169-12.438,4.313-14.41,6.655h18.972C67.717,103.834,68.761,97.337,63.155,97.179z"/>
		<path d="M26.391,97.179c-5.611,0.158-4.564,6.655-4.564,6.655h18.971C38.82,101.492,32.002,97.01,26.391,97.179z"/>
		<circle cx="38.831" cy="32.962" r="1.988"/>
		<circle cx="50.749" cy="32.962" r="1.988"/>
		<path d="M30.101,38.069c-1.215,1.248-1.967,2.948-1.967,4.828c0,3.829,3.106,6.945,6.94,6.945c0.285,0,0.556-0.05,0.826-0.087
			c0,0.026,0,0.05,0,0.076c0,4.098,3.976,9.548,8.888,9.548c4.915,0,8.888-5.45,8.888-9.548c0-0.026,0-0.05,0-0.076
			c0.277,0.031,0.546,0.087,0.828,0.087c3.836,0,6.938-3.111,6.938-6.945c0-1.88-0.755-3.58-1.962-4.828
			c1.303-0.896,2.167-2.397,2.167-4.097c0-1.598-0.785-2.982-1.945-3.89c0.185-0.031,0.484-0.177,0.484-0.754
			c0-0.121,0.021-0.303,0.053-0.546c0.18-1.595,0.612-5.321-2.066-8.327c-0.38-0.438-0.834-0.828-1.318-1.194
			c-2.328-5.772-0.127-10.455,0.079-13.088c0.701,0.901,1.787,1.495,3.021,1.495c2.12,0,3.839-1.711,3.839-3.833
			C63.793,1.717,62.074,0,59.954,0s-3.839,1.717-3.839,3.834c0,0.134,0.031,0.258,0.042,0.393c-0.433-0.248-1.055-0.393-1.988-0.393
			c-6.465,0-17.687,5.777-20.915,15.061c-0.696,0.464-1.329,0.971-1.854,1.561c-2.684,3.006-2.247,6.732-2.062,8.327
			c0.032,0.237,0.053,0.425,0.053,0.546c0,0.161,0.024,0.285,0.061,0.388c0.082,0.2,0.248,0.319,0.448,0.351
			c-1.184,0.907-1.972,2.294-1.972,3.905C27.928,35.672,28.793,37.172,30.101,38.069z M44.793,47.421
			c-3.288,0-5.962-3.536-5.962-4.638c0-1.097,2.668-1.323,5.962-1.323c3.296,0,5.961,0.227,5.961,1.323
			C50.749,43.886,48.083,47.421,44.793,47.421z M56.441,39.337c-2.262,0.369-7.588-1.187-9.136-2.046
			c-0.454,0.715-1.405,1.01-2.513,1.01s-2.057-0.29-2.51-1.01c-1.55,0.859-6.879,2.41-9.142,2.041
			c-3.024-0.485-1.529-3.336-2.808-9.329c0.135-0.065,0.279-0.158,0.475-0.298c1.16-0.793,4.678-3.214,13.985-3.214
			c9.311,0,12.825,2.42,13.99,3.214c0.185,0.135,0.332,0.227,0.475,0.298C57.971,36.002,59.469,38.847,56.441,39.337z
			 M53.299,14.655l0.944,0.536l-1.005,0.427L53.03,16.68l-0.72-0.82l-1.073,0.124l0.562-0.933l-0.454-0.989l1.058,0.243l0.799-0.733
			L53.299,14.655z M51.171,6.479l0.546,0.126l0.411-0.379l0.048,0.562l0.485,0.276l-0.512,0.222l-0.113,0.543l-0.369-0.419
			L51.11,7.473l0.293-0.475L51.171,6.479z M50.836,9.698l0.799,0.185l0.599-0.556l0.077,0.814l0.711,0.403l-0.754,0.327L52.1,11.667
			l-0.541-0.615l-0.81,0.093l0.422-0.701L50.836,9.698z M46.754,7.28L47.3,7.404l0.409-0.379l0.05,0.556l0.485,0.277l-0.52,0.222
			l-0.108,0.546L47.25,8.203l-0.556,0.063l0.292-0.48L46.754,7.28z M43.59,10.842l2.223,0.515l1.679-1.54l0.201,2.268l1.982,1.123
			l-2.102,0.892l-0.453,2.23l-1.495-1.717l-2.262,0.259l1.176-1.954L43.59,10.842z M39.762,12.469l0.799,0.182l0.604-0.551
			l0.071,0.817l0.717,0.403l-0.762,0.325l-0.156,0.799l-0.54-0.614l-0.815,0.089l0.422-0.701L39.762,12.469z M37.61,14.984
			l0.541,0.124l0.412-0.377l0.053,0.562l0.487,0.274l-0.52,0.221l-0.108,0.546l-0.367-0.422l-0.556,0.066l0.292-0.475L37.61,14.984z
			 M32.147,21.112c2.278-2.563,6.539-3.865,12.646-3.865c6.109,0,10.367,1.302,12.65,3.865c2.379,2.679,1.983,6.093,1.814,7.552
			c0,0.053-0.011,0.105-0.021,0.155C57.818,27.841,54.18,25.5,44.793,25.5c-9.384,0-13.023,2.341-14.444,3.319
			c-0.005-0.05-0.016-0.103-0.016-0.155C30.159,27.211,29.766,23.791,32.147,21.112z"/>
		<path d="M44.761,34.544c-0.994,0-1.84,0.604-2.205,1.463c0.541-0.622,1.308-1.031,2.194-1.031c0.913,0,1.696,0.448,2.236,1.107
			C46.641,35.187,45.781,34.544,44.761,34.544z"/>
		<path d="M20.271,46.417c0.886-0.454,1.896-1.791,2.059-3.428c0.079-0.87-0.124-1.632-0.432-2.263h-2.463
			c-0.021,0.253-0.037,0.525-0.021,0.815c-0.152-0.28-0.369-0.546-0.562-0.815h-4.445h-0.155H8.636
			c-0.108,1.149,0.34,2.489,1.516,3.876c2.389,2.813,7.114,5.202,9.058,3.549C19.733,47.698,20.084,47.092,20.271,46.417z"/>
		<path d="M13.846,21.816c0.287-0.129,0.493-0.217,0.596-0.282c0.053,0,0.095,0.005,0.145,0.005c0.773,0.913,5.39-0.841,8.503-0.037
			c1.535,0.396,1.086,3.261,0.828,4.772l3.736-1.316l-1.35-0.319c1.637-2.906-0.288-4.767-2.149-5.099
			c-3.364-0.588-5.962,1.653-8.517,1.616c0.788-0.448,1.69-1.438,2.396-2.732c1.131-2.085,1.329-4.158,0.448-4.635
			c-0.775-0.419-2.12,0.524-3.206,2.162c-0.071-0.211-0.129-0.417-0.216-0.628c-1.181-2.797-3.483-4.498-5.147-3.802
			c-1.661,0.704-2.057,3.538-0.88,6.336c0.596,1.424,1.487,2.558,2.436,3.238c-2.196-0.896-4.282-2.83-6.647-2.463
			c-2.458,0.385-2.732,4.05-3.763,3.895l0.562,3.024c2.31,0.042,2.381-3.86,4.69-4.143C9.542,21.022,11.82,22.739,13.846,21.816z
			 M15.57,16.957c0.609-0.763,1.289-1.158,1.706-0.931c0.562,0.303,0.433,1.622-0.288,2.945c-0.556,1.012-1.289,1.727-1.861,1.867
			C15.731,19.937,15.892,18.515,15.57,16.957z M14.441,20.519c-0.222-0.475-0.087-1.392,0.372-2.359
			C14.979,19.132,14.84,19.989,14.441,20.519z M10.634,18.56c-0.751-1.782-0.498-3.58,0.562-4.023
			c1.057-0.448,2.521,0.638,3.267,2.415c0.042,0.101,0.068,0.203,0.108,0.306c-0.691,1.498-0.886,2.9-0.53,3.628
			c-0.056,0.028-0.093,0.065-0.135,0.087c-0.124,0.05-0.261,0.082-0.39,0.092c-0.011,0-0.021,0.006-0.026,0.006
			C12.485,21.136,11.285,20.115,10.634,18.56z"/>
		<rect x="15.602" y="28.5" width="6.37" height="10.871"/>
		<rect x="6.674" y="28.5" width="6.383" height="10.871"/>
		<rect x="6.043" y="22.805" width="6.373" height="5.097"/>
		<rect x="16.245" y="22.805" width="6.37" height="5.097"/>
		<path d="M85.994,70.273c-1.382,0-3.153-1.434-4.915-2.91c-0.231,0.675-0.564,1.302-1.049,1.803
			c-0.997,1.023-2.426,1.572-4.14,1.572c-0.522,0-1.076-0.053-1.678-0.158c-0.189-0.032-0.306-0.096-0.458-0.143
			c-0.048,0.817-0.132,1.672-0.333,2.536c-0.527,2.199-1.407,4.515-2.225,6.729L65.301,65.56c0.243,0.116,0.485,0.105,0.729,0.174
			c-1.889-1.14-1.034-4.203,0.29-6.497c1.323-2.294,3.549-4.562,5.484-3.496c-0.195-0.189-0.296-0.433-0.564-0.586
			c-1.182-0.68-2.357-0.506-3.417,0.101l-8.965-5.176l-0.053-0.124c-0.333,0.2-0.696,0.33-1.05,0.485
			c-0.279,0.119-0.532,0.282-0.822,0.372c-0.649,0.205-1.324,0.337-2.03,0.369c-0.177,1.083-0.562,2.175-1.073,3.209l0,0
			c-1.714,3.47-5.095,6.338-9.031,6.338c-3.478,0-6.499-2.252-8.353-5.115c-0.422-0.648-0.772-1.334-1.057-2.024
			c-0.04-0.087-0.077-0.161-0.113-0.248c-0.282-0.712-0.499-1.442-0.612-2.165c-0.913-0.045-1.753-0.309-2.571-0.627
			c-0.279-0.114-0.549-0.232-0.81-0.372c-2.526-1.34-4.319-3.884-4.453-6.905l-0.896-0.52c0-1.227-0.433-2.323-1.622-3.009
			c-0.269-0.15-0.527-0.113-0.788-0.189c1.891,1.139,1.036,4.203-0.29,6.497c-1.318,2.296-3.544,4.564-5.482,3.494
			c0.195,0.195,0.298,0.438,0.562,0.588c1.392,0.807,2.752,0.406,3.941-0.49l7.364,3.101L17.793,81.137
			c0,1.361,2.603,2.59,6.755,3.544c0.596,2.089,3.159,3.913,6.995,5.21c2.84,4.019-3.256,6.486-1.481,6.486
			c6.826,0,11.422,7.689,13.057,6.855c1.329-0.675,1.601-7.62,1.659-10.23c0.061,2.605,0.33,9.556,1.659,10.23
			c1.635,0.834,6.23-6.855,13.055-6.855c1.771,0-4.324-2.468-1.477-6.486c3.823-1.297,6.391-3.121,6.987-5.199
			c2.167-0.496,3.896-1.065,5.067-1.693c-0.475,1.504-0.854,2.917-0.854,4.056c0,9.266,7.521,16.78,16.78,16.78
			c9.271,0,16.78-7.515,16.78-16.78C102.774,77.783,95.265,70.273,85.994,70.273z M44.771,65.211c1.303,0,2.36,1.055,2.36,2.363
			c0,1.302-1.052,2.352-2.36,2.352c-1.305,0-2.359-1.05-2.359-2.352C42.412,66.266,43.472,65.211,44.771,65.211z M44.771,73.312
			c1.303,0,2.36,1.055,2.36,2.362c0,1.303-1.052,2.352-2.36,2.352c-1.305,0-2.359-1.049-2.359-2.352
			C42.412,74.366,43.472,73.312,44.771,73.312z M44.771,91.947c-0.01,0-0.185-0.053-0.313-0.1c0.108,0,0.206,0.01,0.313,0.01
			c0.108,0,0.206-0.01,0.314-0.01C44.956,91.895,44.782,91.947,44.771,91.947z M44.793,85.883c-15.633,0-24.867-2.246-26.048-4.566
			c-0.432-0.865,0.783-3.564,1.603-3.871c0.82-0.306,13.577,4.219,24.445,4.219c10.868,0,23.746-4.861,24.489-4.234
			c0.544,0.453,1.303,2.204,1.529,3.322c-0.147,0.417-0.258,0.786-0.396,1.187C68.165,83.716,59.532,85.883,44.793,85.883z"/>
		<path d="M69.763,57.902c-1.34,0.949-1.993,2.489-1.94,3.491c-0.496,0.495-0.839,1.097-0.966,1.782
			c-0.464,2.51,3.966,5.41,7.6,6.075c3.628,0.653,5.632-1.149,5.548-3.691c-0.043-1.34-0.496-2.384-1.192-3.27
			c1.371-1.118,2.447-2.542,2.447-3.671c0-1.128-0.259-2.758-1.36-2.868c-1.002-0.095-2.004,3.143-2.689,3.622
			c-0.359,0.248,1.688-5.893-0.591-3.707c-0.833,0.807-1.239,2.874-1.772,2.874c-1.223,0,0.211-4.529-0.585-3.791
			c-0.501,0.453-1.06,1.466-1.419,2.42C71.967,57.027,70.812,57.158,69.763,57.902z M72.494,59.68
			c0.011,0.005,0.011,0.01,0.011,0.026c-0.011,0-0.026,0-0.037,0C72.479,59.689,72.483,59.685,72.494,59.68z"/>
	</g>
</g>
<g>
</g>
<g>
</g>
<g>
</g>
<g>
</g>
<g>
</g>
<g>
</g>
<g>
</g>
<g>
</g>
<g>
</g>
<g>
</g>
<g>
</g>
<g>
</g>
<g>
</g>
<g>
</g>
<g>
</g>
</svg>
