<svg id="emoji" xmlns="http://www.w3.org/2000/svg" viewBox="0 0 40.38 60.03"><defs><style>.cls-1{fill:#b1cc33;}.cls-2{fill:#fcea2b;}.cls-3{fill:#5c9e31;}</style></defs><g id="color"><path class="cls-1" d="M30.75,53.17l-13.35.64a1,1,0,0,1-.9-.45,1,1,0,0,1,0-1L24.8,37l-3.69.56c-.39.05-1.05.17-1.26-.15a1,1,0,0,1,0-1.07L27.6,24l-2.28.37c-.39.06-1.06.17-1.27-.16a1,1,0,0,1,0-1.07L35.47,5.56a1,1,0,0,1,.81-.45,1,1,0,0,1,.83.42L49,22.7a1,1,0,0,1,0,1.05c-.18.33-.82.24-1.21.22l-3-.22,7.58,12.6a1,1,0,0,1,0,1.06c-.22.32-.88.19-1.26.14L47.8,37l8.33,15.35a1,1,0,0,1,0,1,1,1,0,0,1-.83.45h-.07l-13.59-1" transform="translate(-16.1 -4.82)"/><ellipse class="cls-2" cx="20.19" cy="12.64" rx="2" ry="1.97"/><polygon class="cls-3" points="22.27 18.22 27.71 18.34 35.69 31.93 31.45 32.18 39.67 48.14 21.98 48.09 22.27 18.22"/><ellipse class="cls-2" cx="14.51" cy="37.67" rx="2" ry="1.97"/><ellipse class="cls-2" cx="24.11" cy="24.43" rx="2" ry="1.97"/></g><g id="line"><path d="M36.3,64.85a1,1,0,0,1-1-1V54.54a1,1,0,0,1,2,0v9.31A1,1,0,0,1,36.3,64.85Z" transform="translate(-16.1 -4.82)"/><path d="M55.49,54.1h-.08l-13.74-1a1,1,0,1,1,.14-2l11.94.9L45.51,36.55a1,1,0,0,1,.07-1,1,1,0,0,1,1-.41l3.24.52L42.52,23.35a1,1,0,0,1,.93-1.51l2.9.21-10-14.44L26.81,22.22l2.24-.37a1,1,0,0,1,1,.44,1,1,0,0,1,0,1.08L22.48,35.63l3.57-.54a1,1,0,0,1,1,.41,1,1,0,0,1,.07,1L18.84,52l11.71-.79a1,1,0,0,1,.13,2l-13.51.91a1,1,0,0,1-1-1.47l8.15-15.26-3.73.56a1,1,0,0,1-1-.44,1,1,0,0,1,0-1.07l7.57-12.24-2.31.37a1,1,0,0,1-1-.44,1,1,0,0,1,0-1.09L35.46,5.28a1,1,0,0,1,.82-.46,1,1,0,0,1,.84.43L49.19,22.62a1,1,0,0,1,0,1.07,1,1,0,0,1-.93.5L45.21,24,52.6,36.43a1,1,0,0,1,0,1.07,1,1,0,0,1-1,.43l-3.35-.54,8.14,15.24a1,1,0,0,1-.88,1.47Z" transform="translate(-16.1 -4.82)"/></g></svg>